<?xml version="1.0" standalone="no"?>
<!DOCTYPE svg PUBLIC "-//W3C//DTD SVG 20010904//EN"
 "http://www.w3.org/TR/2001/REC-SVG-20010904/DTD/svg10.dtd">
<svg version="1.0" xmlns="http://www.w3.org/2000/svg"
 width="512.000000pt" height="512.000000pt" viewBox="0 0 512.000000 512.000000"
 preserveAspectRatio="xMidYMid meet">
<metadata>
Created by potrace 1.14, written by Peter Selinger 2001-2017
</metadata>
<g transform="translate(0.000000,512.000000) scale(0.100000,-0.100000)"
fill="#000000" stroke="none">
<path d="M1029 3763 c-2 -97 13 -88 -144 -90 -117 -1 -140 -4 -145 -17 -3 -9
-5 -74 -4 -144 l1 -127 -71 0 -71 0 -5 -71 -5 -71 -67 2 c-42 1 -68 -3 -69 -9
-1 -6 -2 -38 -3 -71 l-1 -60 -50 -2 c-27 -1 -60 -2 -72 -2 -22 -1 -23 -5 -23
-71 l0 -70 -59 1 c-32 1 -64 -2 -70 -5 -8 -5 -11 -130 -11 -429 l0 -422 144 0
143 1 -1 -64 c-1 -74 4 -87 33 -79 12 3 21 1 21 -5 0 -5 6 -6 12 -2 7 5 27 9
45 10 36 1 38 -3 34 -103 l-2 -42 73 1 73 1 0 -69 1 -69 293 -3 292 -2 -1 52
c-3 93 -8 87 73 90 l72 3 1 62 c0 35 3 66 7 69 10 10 67 11 67 1 0 -5 6 -5 12
-1 17 11 108 11 108 1 0 -5 6 -5 13 0 16 10 107 10 107 0 0 -5 5 -5 12 -1 18
11 68 12 68 2 0 -5 5 -6 11 -2 18 11 69 12 69 2 0 -7 5 -7 13 -1 14 11 87 10
105 -1 7 -4 12 -2 12 4 0 6 11 8 28 4 15 -3 36 -5 47 -4 17 1 66 1 110 0 6 0
45 1 88 2 42 2 77 -1 77 -5 0 -5 6 -5 13 0 16 10 227 10 227 0 0 -5 6 -5 13 0
18 11 107 10 107 -2 0 -5 4 -4 8 2 5 7 18 10 32 7 14 -3 31 -5 38 -5 12 1 90
2 115 1 6 0 47 1 90 2 42 2 77 -1 77 -5 0 -5 6 -5 13 0 17 10 58 11 80 1 9 -5
17 -5 17 -1 0 4 18 8 40 8 22 0 40 -4 40 -10 0 -7 3 -7 8 0 9 12 162 13 162 1
0 -5 6 -4 13 1 6 6 21 8 32 6 24 -5 25 -5 98 0 31 2 57 0 57 -5 0 -5 5 -6 11
-2 16 10 79 12 73 2 -3 -4 -2 -8 3 -8 4 0 7 -29 5 -65 l-4 -64 74 -3 73 -3 0
-65 0 -65 220 -3 220 -2 -2 57 c-2 73 4 98 21 84 7 -6 16 -8 19 -5 3 4 29 6
57 5 l51 -1 -4 40 c-2 22 0 40 5 40 5 0 6 6 2 12 -11 17 -12 48 -2 42 4 -3 8
-2 8 3 0 4 11 8 25 8 14 0 25 -4 25 -8 0 -5 6 -5 13 0 6 4 26 8 42 8 30 1 30
1 31 60 0 33 1 65 2 71 1 6 52 10 145 10 l142 -1 3 358 2 358 -33 -3 c-18 -1
-38 1 -44 5 -6 4 -14 3 -18 -2 -5 -10 -42 -7 -53 4 -3 2 -4 35 -3 71 l2 66
-40 -4 c-23 -2 -41 -1 -41 2 0 3 -15 5 -32 5 l-33 0 0 67 c0 54 -3 68 -15 69
-8 0 -204 1 -435 2 l-420 2 -1 61 c0 33 -4 65 -7 70 -3 6 -32 9 -64 9 -32 -1
-63 0 -68 2 -6 2 -9 27 -8 56 3 84 2 85 -75 83 l-67 -1 -2 55 c-1 30 -2 63 -2
72 -1 15 -11 17 -66 17 -35 -1 -68 2 -73 5 -5 3 -8 35 -7 71 l2 65 -31 1 c-17
0 -50 1 -73 1 l-43 0 0 69 0 69 -1090 0 -1090 0 -1 -47z"/>
</g>
</svg>
