<svg id="Layer_1" data-name="Layer 1" xmlns="http://www.w3.org/2000/svg" viewBox="0 0 108.56836 41.0108"><title>ezev-</title><path d="M108.26758,21.79107c-9.375-9.165-25.874-10.001-28.44434-10.07617C65.68945,1.73736,59.2959-.67475,38.83105.14947c-13.98535.5586-24.52246,9.7627-26.45019,11.5586H5.124a2.48439,2.48439,0,0,0-2.48144,2.48144v5.07422L.91992,21.20123A3.634,3.634,0,0,0,0,23.62018v6.8125a4.198,4.198,0,0,0,1.19727,3.15625A4.39987,4.39987,0,0,0,4.126,34.73639c.03125,0,.05371-.001.0664-.001h6.59571l.00872-.00177a9.7917,9.7917,0,0,0,18.27777.00177h51.8971c.00891,0,.0163-.00482.02515-.00507a9.79233,9.79233,0,0,0,18.2799.00507h7.34632a1.94822,1.94822,0,0,0,1.94531-1.94629V22.085ZM19.93555,39.0108a7.80762,7.80762,0,1,1,7.80761-7.80762A7.8162,7.8162,0,0,1,19.93555,39.0108Zm70.20215,0a7.80762,7.80762,0,1,1,7.80761-7.80762A7.817,7.817,0,0,1,90.1377,39.0108Zm9.67565-6.27539a9.80789,9.80789,0,1,0-19.35131,0H29.61121a9.80739,9.80739,0,1,0-19.35035,0H4.166a2.45627,2.45627,0,0,1-1.58985-.59473A2.30866,2.30866,0,0,1,2,30.43268v-6.8125a1.64406,1.64406,0,0,1,.41406-1.09082L4.64258,20.0235v-5.834a.48179.48179,0,0,1,.48144-.48144h8.06543l.292-.28711c.10937-.10742,11.04687-10.69825,25.42968-11.27344C59.3291,1.32623,65.0752,3.7276,78.917,13.52447l.25489.17969.31054.00391c.17774.002,17.623.32519,27.08789,9.22656l.05274,9.80078Z"/><path d="M71.52832,12.23541H49.72L46.458,5.252a1,1,0,1,0-1.8125.8457l2.86694,6.1377H29.11914l-4.082-3.57715a1,1,0,0,0-1.31836,1.50391l4.64844,4.07324H71.52832a1,1,0,0,0,0-2Z"/></svg>