<svg id="Layer_1" data-name="Layer 1" xmlns="http://www.w3.org/2000/svg" viewBox="0 0 100.45651 41.08614"><title>ezev-</title><path d="M100.15573,21.86642c-9.375-9.16406-25.874-10.001-28.44434-10.07617C57.2153,1.552,52.36667-.0955,37.54245.00411A220.6179,220.6179,0,0,0,14.24362,2.10763a45.44708,45.44708,0,0,1-4.96973.43457L8.2905,2.592c-.57032.03125-2.30469.125-2.4834,1.41016-.0791.57031.22949,1.31348,1.333,1.69141.47753.16308.56835.30761.54589.28515l-.14062.16895-.05664.21289C7.354,6.86349,6.5278,7.56564,5.729,8.24532,4.11276,9.61837,1.89889,11.49923,1.83932,14.5256c-.05957,3.07324-.04,5.0459-.01953,6.03027-.752.41211-1.65722,1.39649-1.74023,3.751L.06,24.799c-.10938,2.80665-.27539,7.04981,1.59472,8.99415a3.294,3.294,0,0,0,2.43262,1.01757H5.45651a.95725.95725,0,0,0,.21515-.04339,9.79124,9.79124,0,0,0,18.293.04339H72.85788c.00958,0,.01739-.00518.02692-.00543a9.79237,9.79237,0,0,0,18.28009.00543H98.5112a1.948,1.948,0,0,0,1.94531-1.94531V22.16036ZM14.82663,39.08614a7.80713,7.80713,0,1,1,7.80664-7.80761A7.817,7.817,0,0,1,14.82663,39.08614Zm67.19922,0a7.80713,7.80713,0,1,1,7.80761-7.80761A7.817,7.817,0,0,1,82.02585,39.08614Zm9.67566-6.27539a9.80789,9.80789,0,1,0-19.35132,0H24.50131a9.8074,9.8074,0,1,0-19.35034,0H4.08737a1.28926,1.28926,0,0,1-.99121-.40332c-1.2793-1.331-1.12207-5.36425-1.03711-7.53027l.01856-.499c.05664-1.58594.5625-2.08008.76171-2.11719h1.042l-.043-1.041c-.001-.02148-.08594-2.17773.001-6.65527.041-2.125,1.71094-3.544,3.18457-4.7959A7.05279,7.05279,0,0,0,9.36276,7.06661a2.05383,2.05383,0,0,0,.27149-1.63086A1.97115,1.97115,0,0,0,9.102,4.55294l.27148-.01367a46.81028,46.81028,0,0,0,5.18164-.45606,218.186,218.186,0,0,1,23.02637-2.0791C52.062,1.9172,56.41354,3.41525,70.80514,13.59982l.25489.17968.31152.00391c.17676.002,17.61133.31543,27.08691,9.22656l.05274,9.80078Z"/><path d="M64.33346,13.54513H36.11282c-.01147-.02826-.01025-.05835-.02447-.08594L31.67819,4.93282a1.0002,1.0002,0,0,0-1.77734.918l3.9798,7.69434H22.35593l-9.56739-2.22949L15.2153,8.26a1.00019,1.00019,0,0,0-1.56641-1.24414l-4.3916,5.53028,12.86817,2.999h42.208a1,1,0,0,0,0-2Z"/></svg>