<svg id="Layer_1" data-name="Layer 1" xmlns="http://www.w3.org/2000/svg" viewBox="0 0 115.2213 34.04319"><title>ezev-</title><path d="M114.96055,19.39866C105.34434,8.84593,78.11387,8.716,74.50645,8.73948,72.52012,7.26,60.97422-.68142,43.19688.0471,24.1627.81663,3.15684,10.94456,3.00547,11.01976A3.34962,3.34962,0,0,0,1.03868,12.7014a2.17032,2.17032,0,0,0-.01856,1.61133l.73926,3.709L.902,18.98753a3.05,3.05,0,0,0-.64453,3.3584L1.3463,25.37327c1.5996,4.32715,5.251,4.39551,5.46582,4.39551H14.276a.94659.94659,0,0,0,.16822-.03394,9.79788,9.79788,0,0,0,16.23461-.00494.955.955,0,0,0,.19288.03888H83.5504a.93806.93806,0,0,0,.10461-.02112,9.79405,9.79405,0,0,0,16.27979-.10455.97616.97616,0,0,0,.45935.12567H113.276a1.948,1.948,0,0,0,1.94532-1.94531V19.6848ZM22.56016,32.04319a7.80762,7.80762,0,1,1,7.80664-7.80761A7.817,7.817,0,0,1,22.56016,32.04319Zm69.20117,0A7.80762,7.80762,0,1,1,99.568,24.23558,7.817,7.817,0,0,1,91.76133,32.04319Zm9.1377-4.27441a9.80716,9.80716,0,1,0-18.27637,0H31.69786a9.80716,9.80716,0,1,0-18.27637,0H6.81114c-.03906,0-2.458-.03027-3.58594-3.08008L2.12364,21.62523l-.042-.09864a1.14,1.14,0,0,1,.31445-1.21093l1.51953-1.708-.95117-4.77051-.05566-.18555c-.04981-.12011-.03223-.16015-.02442-.17968.05567-.13477.31934-.37208.9375-.627.20606-.10058,20.8457-10.04687,39.45508-10.7998,18.41211-.74707,30.15723,8.38867,30.27441,8.48144l.28125.22266.3584-.00586c.29785-.01172,29.29-.39063,39.0332,9.72754l.05176,7.29785Z"/><path d="M67.67735,9.5637H34.17515l-.50073-3.27734a.9998.9998,0,1,0-1.97656.30273l.44726,2.92713L23.38047,8.09593a1.00021,1.00021,0,1,0-.32031,1.97461l9.1377,1.48047,35.47949.01269a1,1,0,0,0,0-2Z"/></svg>