<svg id="Layer_1" data-name="Layer 1" xmlns="http://www.w3.org/2000/svg" viewBox="0 0 109.81204 47.83009"><title>ezev-</title><path d="M109.77981,24.4336c-1.374-6.06933-21.07714-8.668-25.83984-9.209A226.51017,226.51017,0,0,0,65.84134.72657L65.607.56251,65.32083.54688c-.2334-.01171-23.68945-1.22461-51.02832,0C13.982.55665,12.32083.75782,10.107,3.7588c-2.31054,3.13281-7.93359,12.457-8.18652,12.876a8.128,8.128,0,0,0-.79395,3.81543v9.18848c-.73339.627-1.6914,2.0957-.70507,5.22461,1.3291,4.21387,3.09961,4.53906,5.456,4.53906h3.592a9.79429,9.79429,0,0,0,19.397,0H80.53787a9.79429,9.79429,0,0,0,19.397,0h6.97486a1.92958,1.92958,0,0,0,1.94336-1.87109l.959-12.95215ZM19.16751,45.83009a7.80713,7.80713,0,1,1,7.80762-7.80762A7.8162,7.8162,0,0,1,19.16751,45.83009Zm71.06934,0a7.80713,7.80713,0,1,1,7.80664-7.80762A7.817,7.817,0,0,1,90.23685,45.83009Zm16.67285-8.42774H100.012a9.79452,9.79452,0,0,0-19.55127,0H28.94363a9.79452,9.79452,0,0,0-19.55127,0H5.87747c-1.70312,0-2.55762,0-3.54785-3.14062-.665-2.10742-.1709-2.9961.13965-3.15332l.65722-.24024V20.4502A6.63756,6.63756,0,0,1,3.648,17.64259C3.71243,17.53614,9.46145,8.002,11.71634,4.9463c1.62109-2.19824,2.67871-2.40137,2.65332-2.40137,25.61621-1.14648,47.79687-.14844,50.55762-.01465A227.671,227.671,0,0,1,82.84817,16.93067l.23828.21192.31739.03515c8.89258.97754,23.251,3.88672,24.3916,7.57129Z"/><path d="M75.2261,14.99708H52.74344a.97444.97444,0,0,0,.0227-.294l-1.15722-9.3955a.99967.99967,0,1,0-1.98438.24414l1.15723,9.3955c.00219.018.01269.03217.01587.04981H27.36624a.94345.94345,0,0,0,.03467-.17188V5.4297a1,1,0,0,0-2,0v9.3955a.94345.94345,0,0,0,.03467.17188H11.88919l4.61328-6.98633a.99944.99944,0,0,0-1.668-1.10156L8.17044,16.99708H75.2261a1,1,0,0,0,0-2Z"/></svg>