<svg id="Layer_1" data-name="Layer 1" xmlns="http://www.w3.org/2000/svg" viewBox="0 0 98.49322 43.0875"><title>ezev-</title><path d="M98.15435,22.8668C88.80084,13.72422,73.20221,12.86973,70.711,12.7916c-2.376-1.68652-4.35839-3.15918-6.11425-4.46289C55.89068,1.86191,53.30474-.09512,40.57721.00352,40.459.0084,27.12506-.01309,16.29791,1.09922c-4.18262.42969-5.5957,2.52637-5.7627,2.79687-.124.2168-.70117.94727-1.3125,1.71973C5.65045,10.1334,1.83892,15.23106,1.83892,18.54746v3.998C1.08307,22.95078.16314,23.93223.07916,26.3082l-.01856.49121C-.04975,29.607-.21576,33.8502,1.65435,35.79453A3.294,3.294,0,0,0,4.087,36.81211H9.459a.95418.95418,0,0,0,.21509-.0434,9.792,9.792,0,0,0,18.29407.0434H71.8565c.00952,0,.01734-.00519.02686-.00543a9.79241,9.79241,0,0,0,18.28015.00543h5.34436a1.926,1.926,0,0,0,1.94238-1.8584l1.043-11.75586ZM18.82916,41.0875a7.80762,7.80762,0,1,1,7.80762-7.80762A7.817,7.817,0,0,1,18.82916,41.0875Zm62.19531,0a7.80762,7.80762,0,1,1,7.80762-7.80762A7.817,7.817,0,0,1,81.02447,41.0875Zm14.4834-6.27539H90.70013a9.80789,9.80789,0,1,0-19.35132,0h-42.844a9.80789,9.80789,0,1,0-19.35132,0H4.087a1.28926,1.28926,0,0,1-.99121-.40332c-1.2793-1.33106-1.12207-5.36426-1.03711-7.53125l.01856-.498c.05664-1.58691.5625-2.08105.76171-2.11816h1V18.54746c0-2.89941,4.69629-8.83691,6.95313-11.6914A22.619,22.619,0,0,0,12.2442,4.93223c.042-.06153,1.05469-1.51465,4.25879-1.84278C27.2315,1.98691,40.44439,2.00352,40.58307,2.00352c.292-.002.57812-.00293.86035-.00293,11.27929,0,13.65918,1.7666,21.96093,7.93359,1.8252,1.35547,3.89356,2.89258,6.39942,4.666l.2539.17968.31153.00391c.166.002,16.59863.32422,26.0498,9.18945Z"/><path d="M63.33209,14.54551H48.3106L46.82135,5.233a.9999.9999,0,0,0-1.97461.3164l1.43872,8.9961H23.91107l1.43957-8.9961A.9999.9999,0,0,0,23.376,5.233l-1.49023,9.3125H17.40045L12.751,12.98008l2.52344-3.17774a1.00019,1.00019,0,1,0-1.5664-1.24414l-4.293,5.40821,7.65722,2.5791H63.33209a1,1,0,0,0,0-2Z"/></svg>