<svg id="Layer_1" data-name="Layer 1" xmlns="http://www.w3.org/2000/svg" viewBox="0 0 114.97949 49.14183"><title>ezev-</title><path d="M114.793,29.99144c-5.35547-8.457-20.62109-13.18262-22.68652-13.78906C80.85156,6.759,71.4873.07933,54.294.07933h-.28516c-1.24121-.02051-30.541-.50586-41.32617,1.19629a36.75672,36.75672,0,0,1-4.7959.4834C7.18555,1.7971,5.72559,1.8762,5.458,2.97484c-.14844.60937.14062,1.16406.85937,1.65332a2.7921,2.7921,0,0,1-.27539.63476l-.11328.26465a35.177,35.177,0,0,1-1.3584,3.32227C3.001,12.42991.85059,17.33226.79,20.41527.71,24.51683.6582,30.69456.64941,31.86644A10.01076,10.01076,0,0,0,0,35.40257c0,2.124,1.66211,7.46387,5.58789,7.46387h5.025a9.79242,9.79242,0,0,0,18.27807,0H84.818a9.79242,9.79242,0,0,0,18.27808,0h8.80334a1.94765,1.94765,0,0,0,1.94434-1.88281l1.13574-10.69825ZM19.752,47.14183a7.80762,7.80762,0,1,1,7.80762-7.80762A7.817,7.817,0,0,1,19.752,47.14183Zm74.20508,0a7.80762,7.80762,0,1,1,7.80762-7.80762A7.817,7.817,0,0,1,93.957,47.14183Zm17.94238-6.27539h-8.26672a9.80789,9.80789,0,1,0-19.35132,0H29.42761a9.80788,9.80788,0,1,0-19.35132,0H5.58789C3.35547,40.86644,2,37.07152,2,35.40257a7.83181,7.83181,0,0,1,.55566-2.91406l.08985-.19531.002-.21582c.001-.07129.05371-7.11036.14258-11.623.05273-2.68457,2.19434-7.56934,3.6123-10.80078.66407-1.51465,1.19629-2.72949,1.419-3.47168a3.22642,3.22642,0,0,0,.4668-2.15625,1.65428,1.65428,0,0,0-.09668-.2793,37.2967,37.2967,0,0,0,4.80371-.49609c10.61133-1.67188,40.67676-1.17578,41-1.1709.09179,0,.18066-.001.27148-.001,16.625,0,25.71485,6.55078,36.71485,15.791l.165.13867.20606.05762c.16308.04687,16.15332,4.6416,21.56543,12.71191Z"/><path d="M83.24414,17.17113H59.51587L57.73926,5.69554a1.0001,1.0001,0,0,0-1.97656.30664l1.72924,11.169H35.594L33.81738,5.69554a1.0001,1.0001,0,0,0-1.97656.30664l1.72925,11.169H22.28613l-11.5-2.89356,2.50293-5.69531A.99959.99959,0,0,0,11.459,7.77757L8.00293,15.6389l14.03516,3.53223H83.24414a1,1,0,0,0,0-2Z"/></svg>