<svg id="Layer_1" data-name="Layer 1" xmlns="http://www.w3.org/2000/svg" viewBox="0 0 42.5 42.31926"><title>1ca</title><path d="M25.631,4.118A42.00768,42.00768,0,0,1,40.63178,7.7416a13.36681,13.36681,0,0,1-5.72048,4.29676C34.6525,9.502,32.86668,8.88,27.19833,8.88L21.2529,42.31926,15.25936,8.87533c-5.62916.00467-7.41542.62491-7.674,3.16225a13.366,13.366,0,0,1-5.7207-4.29682A42.00448,42.00448,0,0,1,16.8661,4.11724L21.24866,9.455ZM21.24978,0A58.166,58.166,0,0,0,0,4.14091,20.4856,20.4856,0,0,0,1.1898,6.59829a49.001,49.001,0,0,1,20.06-4.024h.00089a49.00517,49.00517,0,0,1,20.06,4.024A16.12634,16.12634,0,0,0,42.5,4.14091,58.16311,58.16311,0,0,0,21.24978,0Z"/></svg>