<svg id="Layer_1" data-name="Layer 1" xmlns="http://www.w3.org/2000/svg" viewBox="0 0 83.23883 29.10271"><defs><style>.cls-1{fill-rule:evenodd;}</style></defs><title>1ca</title><path class="cls-1" d="M68.68734,0a14.48574,14.48574,0,0,0-9.02256,3.13475,14.55245,14.55245,0,0,0-18.04549,0,14.55209,14.55209,0,0,0-18.04524,0,14.55135,14.55135,0,1,0,0,22.83323,14.55216,14.55216,0,0,0,18.04524,0,14.55252,14.55252,0,0,0,18.04549,0A14.55145,14.55145,0,1,0,68.68734,0ZM21.19315,23.59083A11.21769,11.21769,0,1,1,14.55149,3.33332,11.2981,11.2981,0,0,1,21.19315,5.512a14.55295,14.55295,0,0,0,0,18.07879Zm2.3809-2.37419a11.21635,11.21635,0,0,1,0-13.33055,11.21528,11.21528,0,0,1,0,13.33055Zm15.66459,2.37419a11.22834,11.22834,0,0,1-13.2837,0,14.55248,14.55248,0,0,0,0-18.07879,11.22714,11.22714,0,0,1,13.2837,0,14.553,14.553,0,0,0,0,18.07879Zm2.38065-2.37419a11.21639,11.21639,0,0,1,0-13.33055,11.21528,11.21528,0,0,1,0,13.33055Zm15.6646,2.37419a11.22839,11.22839,0,0,1-13.28373,0,14.5524,14.5524,0,0,0,0-18.07879,11.22718,11.22718,0,0,1,13.28373,0,14.55248,14.55248,0,0,0,0,18.07879Zm2.38089-2.37419a11.2159,11.2159,0,0,1,0-13.33055,11.21639,11.21639,0,0,1,0,13.33055Zm9.02256,4.55276a11.29513,11.29513,0,0,1-6.6418-2.17857,14.55248,14.55248,0,0,0,0-18.07879,11.21767,11.21767,0,1,1,6.6418,20.25736Z"/></svg>