<svg id="Layer_1" data-name="Layer 1" xmlns="http://www.w3.org/2000/svg" viewBox="0 0 42.5 42.22606"><defs><style>.cls-1{fill-rule:evenodd;}</style></defs><title>1ca</title><path class="cls-1" d="M10.52407,13.061h5.10841V14.9464l-3.347.00463.00559,5.09706,2.62742.00391.00878,1.91014-2.634-.00567-.0107,8.1722H10.52407V13.061Zm5.90394-.04959h1.75867V30.12867H16.428V13.01142ZM26.1005,30.079H24.34183l-.01134-8.1373-2.42365-.0004-.03793,8.1393-1.58867-.0016V13.01142h4.14758l1.67268,3.37776V30.079ZM24.34222,19.67009H21.9133V14.89681l1.50627-.005.92265,2.2376v2.54063ZM26.49175,13.061h5.38708l-.01836,1.91653-1.76242-.00431L30.07832,30.079H28.31973l-.07841-15.09539-1.7518-.0111.00223-1.9115ZM21.25,42.22606A21.11347,21.11347,0,1,1,42.5,21.113,21.1844,21.1844,0,0,1,21.25,42.22606ZM3.49674,12.60859c.48061-2.967,2.37853-5.15328,5.42437-6.9157,6.64925-4.388,17.20118-4.45412,24.79512.15451a9.63991,9.63991,0,0,1,5.063,6.44579,30.5032,30.5032,0,0,1-3.194,21.16493c-3.7022,8.47426-23.28647,8.61823-27.88728.98916-3.89718-5.28191-5.79606-14.0869-4.20116-21.83869ZM32.19384,34.708c-4.38706,4.44757-18.95874,3.49258-21.6328,0A46.34413,46.34413,0,0,1,6.5155,12.65769q-.17475-3.737,2.45328-5.03781c6.08416-2.73146,18.25024-3.03161,23.89339-.11,2.32991.90109,3.18285,3.14444,3.08751,6.413A52.67683,52.67683,0,0,1,32.19384,34.708Z"/></svg>