<svg id="Layer_1" data-name="Layer 1" xmlns="http://www.w3.org/2000/svg" viewBox="0 0 71.08531 19.3282"><defs><style>.cls-1{fill-rule:evenodd;}</style></defs><title>1ca</title><path class="cls-1" d="M52.47029,11.16626H52.484v7.99735H49.89136v-1.989A7.7674,7.7674,0,1,1,43.67727,3.69c-.04117.93282-.08236,1.85189-.10984,2.771a5.06463,5.06463,0,1,0,6.20051,4.93837,4.95629,4.95629,0,0,0-.91907-2.90814c.80923-.42529,1.60491-.85045,2.40058-1.27575A7.794,7.794,0,0,1,52.47029,11.16626Zm-8.0111-1.00146c-.04127.05492,8.38145-5.18529,8.38145-5.18529L44.45919,0ZM55.008,8.23055V19.3282h3.16892V8.23055a1.72163,1.72163,0,0,1,1.893-1.87923h2.09884V3.64887H60.06992A5.11282,5.11282,0,0,0,55.008,8.23055ZM69.1785,16.39262h-.20578A1.95,1.95,0,0,1,66.80536,14.527V6.24151h3.51172V3.38832H66.75045V.45274h-2.8532V14.56818l.01359.01374a5.12769,5.12769,0,0,0,5.06188,4.51318h2.11259V16.39262ZM29.32857,2.79843A5.73075,5.73075,0,0,0,25.1995,4.5269a5.72322,5.72322,0,0,0-4.10161-1.70105A5.41408,5.41408,0,0,0,15.52847,8.066V8.2443h.01372V19.16361H18.711V8.23055h.01375C18.711,8.217,18.711,8.20321,18.711,8.17577V8.066a2.42371,2.42371,0,0,1,4.77375,0H23.471V19.16361h3.16881V8.2443h.01372c0-.01375.01375-.02734.01375-.04109V7.97c.096-1.05625,1.509-1.92053,2.66126-1.92053A2.28527,2.28527,0,0,1,31.70171,8.217h.01375V19.16361h3.16868V8.217c0-.05492.01386-.12356.01386-.17834A5.43182,5.43182,0,0,0,29.32857,2.79843Zm-18.08,7.39385c-1.989-1.04253-4.07416-.02748-6.5983-.86418-.78182-.26071-1.08369-2.236-.384-2.74365a5.75584,5.75584,0,0,1,2.771-.83674A2.59714,2.59714,0,0,1,9.73956,7.6408l3.19626-.13726a4.71045,4.71045,0,0,0-1.82445-3.4431,6.69812,6.69812,0,0,0-4.49945-1.3032C3.8684,2.75724.384,4.84236.384,8.03862c0,2.04382,1.09751,3.20987,3.07283,3.84093,2.45553.782,7.03721-.096,7.03721,2.59265,0,1.42662-2.78471,2.12634-3.67634,2.00278-1.06994-.13714-3.48427-.82311-3.70378-2.07129L0,14.70545c.34293,3.05888,4.15655,4.48561,6.79026,4.48561,3.08655,0,6.72172-1.33065,6.72172-4.911A4.72623,4.72623,0,0,0,11.24852,10.19228Z"/></svg>