<svg id="Layer_1" data-name="Layer 1" xmlns="http://www.w3.org/2000/svg" viewBox="0 0 96 21.87811"><defs><style>.cls-1{fill-rule:evenodd;}</style></defs><title>brand-chrysler</title><path class="cls-1" d="M8.66524,5.324c-.90007.08114-1.80109.14385-2.77936.14385C2.70256,5.46781,0,4.62053,0,2.729,0,.83764,2.70256,0,5.88588,0,6.77141,0,7.687.06251,8.572.14984l.17018.91a17.77006,17.77006,0,0,0-2.8563-.2222c-2.06524,0-3.54009.69755-3.54009,1.89136,0,1.19615,1.47485,1.89879,3.54009,1.89879a19.47658,19.47658,0,0,0,2.9822-.22839Zm4.233-5.2294V5.372H15.1697V3.02368h5.0259V5.372h2.27273V.09459H20.1956V2.18382H15.1697V.09459Zm13.82323,0V5.372H29.1058V.86971h2.23479c1.36878,0,1.73466.35612,1.73466.73562,0,.62524-1.117.89527-2.36842.89527-.23288,0-.66658-.03189-.98323-.048L32.84128,5.372h2.65239L32.54028,2.95864c1.78591-.20626,2.91948-.56114,2.91948-1.52641,0-.86973-1.48428-1.33765-3.65265-1.33765Zm15.28692,3.046V5.372h2.51752V3.22775L48.66131.09459h-2.7346L43.35887,2.2391,40.89135.09459H38.13972Zm9.11055,1.14812.29389.97252c1.158.11072,2.31607.20659,3.49285.20659,3.20068,0,4.20991-.759,4.20991-1.37808,0-1.28068-5.01957-1.85063-5.01957-2.68846,0-.23814.55263-.56362,1.95067-.56362a16.8285,16.8285,0,0,1,2.57388.22964L58.34586.14258C57.38771.05542,56.3966,0,55.42157,0c-2.97879,0-4.1.64009-4.1,1.32155,0,1.2503,5.01957,1.96274,5.01957,2.7216,0,.4422-1.08449.58466-1.94927.58466a17.63539,17.63539,0,0,1-3.273-.3391ZM63.0384.09459V5.372h7.75448V4.53334H65.55623V.09459ZM83.26049.9335V.09459H74.73183V5.372h8.52865V4.53334H77.376v-1.447h5.13136v-.776H77.376V.93349ZM87.2287.09459V5.372h2.38405V.86971h2.23509c1.36817,0,1.7342.35612,1.7342.73562,0,.62524-1.11654.89527-2.36685.89527-.23429,0-.668-.03189-.98587-.048L93.3473,5.372H96L93.04908,2.95864c1.78437-.20626,2.9167-.56114,2.9167-1.52641,0-.86973-1.48227-1.33765-3.65017-1.33765ZM57.63936,13.11935a6.04848,6.04848,0,0,1-1.42574-.23691,2.93046,2.93046,0,0,1,.3547.57337,5.29542,5.29542,0,0,1,.31093.80715s0-.334.42738-.334c.42828,0,10.98968,0,17.55529-.28646,2.91188-.12632,5.43949-.28115,7.4479-.43848a6.76428,6.76428,0,0,1-1.50318.5345c-.99872.238-2.52651.52443-11.17935.76228-8.65117.23734-10.56093.18827-11.607.18827-1.04657,0-1.09454-.14246-1.09454-.14246a2.2161,2.2161,0,0,1,.12152.63855,4.15944,4.15944,0,0,1-.02554.8685,1.12705,1.12705,0,0,1,1.0461-.7127c.903-.0107,5.92955-.07945,14.58829-.41125.37237-.016.72974-.03207,1.07487-.05017a12.9878,12.9878,0,0,1-3.91324.815c-2.664.19214-5.75519.20067-8.1338.20067-2.378,0-3.40865.13379-4.85266,1.04767-1.62117,1.02422-2.3215,2.31977-4.80464,3.30082a10.62757,10.62757,0,0,1-4.03943.726V21.03l-.0014-.06024a10.627,10.627,0,0,1-4.03946-.726c-2.48407-.981-3.1836-2.2766-4.80461-3.30082-1.44387-.91388-2.47357-1.04767-4.85328-1.04767-2.37832,0-5.46937-.00853-8.13444-.20067a13.00131,13.00131,0,0,1-3.91248-.815c.3456.0181.703.0342,1.07534.05017,8.65891.3318,13.68406.40055,14.58846.41125a1.129,1.129,0,0,1,1.0467.7127,4.01921,4.01921,0,0,1-.02647-.8685,2.28565,2.28565,0,0,1,.12032-.63855s-.04724.14246-1.09381.14246c-1.04636,0-2.95552.04907-11.60653-.18827-8.65253-.23785-10.18095-.5243-11.17968-.76228a6.69471,6.69471,0,0,1-1.50271-.5345c2.00688.15733,4.53522.31216,7.44914.43848,6.56517.28646,17.12547.28646,17.55408.28646.42718,0,.42718.334.42718.334a5.23347,5.23347,0,0,1,.31076-.80715,2.86156,2.86156,0,0,1,.35644-.57337,6.07962,6.07962,0,0,1-1.42777.23691c-.47766.02073-2.75922.09582-7.0419.09582-4.28068,0-11.22519-.28476-15.93551-.38074a52.65268,52.65268,0,0,1-8.13541-.76121,7.85008,7.85008,0,0,0,1.619.57077,39.424,39.424,0,0,0,4.7873.55787c.21258.20484,1.65678,1.30158,8.52355,1.67395.36837.28119,2.02468,1.28718,7.0467,1.39387,6.0062.12915,7.27247.02724,8.43422.44811,2.22614.80979,3.08643,2.38172,5.27754,3.392a11.132,11.132,0,0,0,5.075,1.15121h.006a11.12838,11.12838,0,0,0,5.0747-1.15121c2.19128-1.01033,3.04955-2.58226,5.27613-3.392,1.16345-.42087,2.42989-.319,8.43683-.44811,5.02065-.10669,6.67852-1.11268,7.04563-1.39387,6.86586-.37237,8.309-1.46911,8.52282-1.67395a39.50374,39.50374,0,0,0,4.78959-.55787,7.81275,7.81275,0,0,0,1.61744-.57077,52.637,52.637,0,0,1-8.13537.76121c-4.70878.096-11.65564.38074-15.93708.38074-4.27964-.00007-6.56321-.07516-7.04073-.09589Zm32.40309-1.625s-.58991,1.0504-2.98343,1.59823a26.57188,26.57188,0,0,1-4.45577.46032,8.10571,8.10571,0,0,1-2.98453,1.30328,34.32841,34.32841,0,0,1-5.334.41978s-.58947.84016-3.27793,1.17679A64.73813,64.73813,0,0,1,62.897,17.04c-3.06782.04257-4.03433.3792-4.706.67433-1.7661.77234-3.10979,2.18321-5.37849,3.23567a11.66235,11.66235,0,0,1-4.82521.92391,11.663,11.663,0,0,1-4.827-.92391c-2.269-1.05246-3.612-2.46333-5.378-3.23567-.67279-.29513-1.63851-.63176-4.706-.67433a64.77622,64.77622,0,0,1-8.1106-.58728c-2.68908-.33663-3.27732-1.17679-3.27732-1.17679a34.36289,34.36289,0,0,1-5.33635-.41978,8.11563,8.11563,0,0,1-2.98346-1.30328,26.57005,26.57005,0,0,1-4.45471-.46032c-2.39421-.54785-2.98229-1.59825-2.98229-1.59825s11.59773.462,18.8671.5469c7.81471.08962,12.43632.25175,14.20255-.12652,1.76424-.37811,3.47739-1.43474,5.1159-1.813A17.84672,17.84672,0,0,1,47.878,9.62133a17.7947,17.7947,0,0,1,3.99145.505c1.635.40134,3.33927,1.41026,5.10333,1.78837,1.76454.37827,6.38741.21614,14.201.12652,7.27076-.08488,18.86879-.54693,18.86879-.54693Zm-.46188.12649s-12.39885.51376-18.70018.63005c-6.80669.127-7.56309.08375-11.0928.08375a11.43552,11.43552,0,0,1-6.00867-1.26024,14.87718,14.87718,0,0,0-11.58472,0,10.96461,10.96461,0,0,1-6.00944,1.26024c-3.5297,0-4.28564.04321-11.09206-.08375-6.30223-.11629-18.69924-.63005-18.69924-.63005s-.04891.66086,2.6476,1.26054a21.06715,21.06715,0,0,0,4.4123.46142s.46109.71473,2.85738,1.26164a39.49353,39.49353,0,0,0,5.46163.46188s.33586.798,3.19324,1.17612a78.90215,78.90215,0,0,0,9.08655.413c2.773.08222,3.526.416,4.86472,1.26844a34.23787,34.23787,0,0,0,4.43208,2.745,12.136,12.136,0,0,0,3.97115.8685,5.32048,5.32048,0,0,0,.661.00093v-.00093h.01237v.00093a5.27812,5.27812,0,0,0,.65932-.00093,12.15148,12.15148,0,0,0,3.97192-.8685,34.35325,34.35325,0,0,0,4.43117-2.74512c1.33732-.85239,2.09173-1.18622,4.865-1.26844a78.888,78.888,0,0,0,9.086-.413C73.86507,15.86429,74.2,15.06624,74.2,15.06624a39.50646,39.50646,0,0,0,5.4621-.46188c2.395-.54691,2.85817-1.26164,2.85817-1.26164a21.07238,21.07238,0,0,0,4.41243-.46142c2.69815-.59966,2.648-1.26052,2.648-1.26052Zm-37.44946,7.2291A6.07185,6.07185,0,0,0,53.676,17.75213a3.26258,3.26258,0,0,0,1.04776-2.265,3.25965,3.25965,0,0,0-1.04776-2.2633,6.04274,6.04274,0,0,0-1.5379-1.09207,5.27287,5.27287,0,0,1,1.141,3.3532,5.274,5.274,0,0,1-1.14788,3.36492Zm-.94728-1.5693c-.01367.05825-.028.115-.04251.1718l.00827-.01337.03314.02074-.36107,1.38533.225.161.42364-1.86689-.2232-.10459c-.02251.08266-.04454.16533-.06314.24592ZM49.62946,18.716l.43485.588.26982.37014.16816-.646h.00007l.21734-.82659a1.69724,1.69724,0,0,1-.7403.39554C49.87687,18.6281,49.75835,18.66781,49.62946,18.716ZM40.1604,15.48874c0-2.87627,3.47294-5.21645,7.742-5.21645,4.26962,0,7.74334,2.34018,7.74334,5.21645,0,2.87788-3.47372,5.21966-7.74334,5.21966C43.63334,20.7084,40.1604,18.36662,40.1604,15.48874Zm10.3485,4.50979.23434-.90647.43216.312.22449-1.08734.27313-1.32258-.35645-.16443a1.87286,1.87286,0,0,1,.09242-.23085l.13859-.25455a1.80271,1.80271,0,0,0,.30193-.949,1.606,1.606,0,0,0-.3264-.98138,3.82965,3.82965,0,0,1-.23211-.41512,3.54548,3.54548,0,0,1-.18563-.50616,1.63157,1.63157,0,0,0-.5094-.89994,3.05736,3.05736,0,0,0-1.102-.47315l-.1974-.055a2.27337,2.27337,0,0,1-.41668-.1903A2.05712,2.05712,0,0,0,47.8632,11.561a1.746,1.746,0,0,0-1.01465.34357,3.41627,3.41627,0,0,1-.41216.23194,2.59839,2.59839,0,0,1-.5195.1697,1.413,1.413,0,0,0-.7412.36217,1.76073,1.76073,0,0,0-.4924.95708c-.04057.151-.08254.30826-.14616.48279a2.41908,2.41908,0,0,1-.2089.41758,1.85905,1.85905,0,0,0-.29526.82359,1.53476,1.53476,0,0,0,.29666,1.09207c.07915.13643.16693.28849.26138.48263a3.154,3.154,0,0,1,.22544.61935,1.11371,1.11371,0,0,0,.45012.71583,2.19769,2.19769,0,0,0,.90814.437c.124.03468.25361.07045.40488.12529a2.98558,2.98558,0,0,1,.46545.22251,1.9766,1.9766,0,0,0,.77265.28115,1.70583,1.70583,0,0,0,1.13108-.29342c.135-.07.28755-.15093.46035-.22837.01647-.00737.02857-.01077.04454-.01767l.469.60868.48327.62888.07223.094Zm-9.96209-4.51142a3.73592,3.73592,0,0,0,1.20369,2.63936,8.80971,8.80971,0,0,0,6.15067,2.19145,10.803,10.803,0,0,0,2.43139-.27693l-.47809-.62235A4.42928,4.42928,0,1,1,51.53529,18.006l-.313,1.51819s-.32809-.23688-.4374-.31693l-.19822.77254c2.72992-.70643,4.67-2.45163,4.67-4.49271a3.73494,3.73494,0,0,0-1.205-2.63937,8.8202,8.8202,0,0,0-6.15049-2.18961,8.821,8.821,0,0,0-6.15067,2.18961A3.73969,3.73969,0,0,0,40.54681,15.48711ZM43.673,18.84988A5.27448,5.27448,0,0,1,42.52472,15.485a5.27383,5.27383,0,0,1,1.141-3.3532,6.01824,6.01824,0,0,0-1.53939,1.09207,3.26831,3.26831,0,0,0-1.04763,2.2633,3.27124,3.27124,0,0,0,1.04763,2.265A6.04462,6.04462,0,0,0,43.673,18.84988Zm6.38274-4.75553.14449-.07372.0026-.41124-.14506.08Zm1.109.447-5.8,3.25872a.81513.81513,0,0,1-.175-.38571,3.4577,3.4577,0,0,0-.25038-.68809c-.07027-.1434-.1372-.26509-.19847-.37441l5.77885-3.30362a2.25989,2.25989,0,0,1,.216.5356,4.35567,4.35567,0,0,0,.20377.5537,3.7442,3.7442,0,0,0,.22525.40382Zm-5.082,1.28128c-.00744-.05278-.01551-.08115-.065-.07355-.13209.06875-.28564.15683-.4066.22824-.04117.03421-.06022.06238-.05264.103l-.00617,1.31551a.07819.07819,0,0,0,.108.07618l.36714-.2064a.14.14,0,0,0,.04907-.08485c0-.08688,0-.27252.00107-.37067l-.17216.08591c0,.05655,0,.11043-.0014.17064,0,.06288-.06642.079-.14183.11692,0,.00093-.01534.017-.02277-.01024,0-.0438.00483-1.07053.00483-1.07053.02771-.016.15605-.08859.15605-.08859v.29233c.05142-.03094.13194-.06782.17994-.096Zm.67292-.47906-.186.10575-.00233.61285s-.17633.09709-.18423.10079l.00293-.60061-.17263.09708-.00344,1.49948.17977-.10345.00373-.66519.1669-.09135-.0023.65729.1909-.10822c0-.005.00676-1.50441.00676-1.50441Zm.782.86583c-.0124.0048-.07758.04321-.07758.04321l-.18056-.35737a.35587.35587,0,0,0,.09092-.06674.15936.15936,0,0,0,.02706-.09335v-.60172a.086.086,0,0,0-.03931-.06874c-.03917-.01237-.05033-.01067-.10315.01006-.13159.07572-.23717.14076-.35363.20484L46.9,16.761l.16459-.082.00374-.68456.05788-.02817.24047.533h.01844c.04428-.02677.10822-.06628.15253-.09445Zm.49981-1.578s-.124.07094-.18534.104l-.076.478c-.00513.0011-.18056-.31956-.18056-.31956l-.1796.09492s.22977.40491.29605.52286l-.0037.79372.18067-.09865.00233-.72557Zm.604,1.05633.0037-.709c-.00681-.01814-.01223-.03687-.04041-.03037-.09445.05591-.1691.09538-.26509.14449-.0113.00867-.03687,0-.03947-.02664.00153-.13022,0-.25178.0026-.3761l.17717-.10082v.199l.153-.08485s.00374-.25765.00374-.30936c-.002-.05651-.00961-.08688-.06875-.06611-.04167.0218-.40647.231-.40647.231a.08893.08893,0,0,0-.016.065l-.0037.7553c.01595.03048.03082.02291.06178.01347l.25128-.14742.02818-.01a.043.043,0,0,1,.01134.03837l-.00217.35737v.02941L48.314,15.765l.00216-.23954-.1643.087-.00106.39791s-.00263.04168.0192.03191c.04428-.02337.08639-.048.08749-.04691.0037,0,.34883-.19991.36867-.21708.02074-.01855.01534-.09053.01534-.09053Zm.58467-.42148-.23677.12652.00637-1.29587-.17823.10188-.00634,1.47871.41278-.23781Zm.58465-.3377c-.00107-.00263-.28582.17824-.28582.17077v-.43105l.19617-.11212.00264-.24155-.20532.12853.00277-.42722c.10933-.06407.27625-.16116.27625-.16116-.0011-.0085.00107-.21817.00107-.21817l-.47906.271-.0059,1.49158.495-.279Zm.69879-.392c-.0107.00744-.07725.04318-.07725.04318l-.17933-.35627a.40357.40357,0,0,0,.08965-.06628.152.152,0,0,0,.02617-.09428v-.60231a.08173.08173,0,0,0-.03684-.06721.12109.12109,0,0,0-.10342.0085c-.13132.07742-.23848.14356-.35383.20751l-.0009,1.47978.16427-.08315.00264-.68283.0576-.02991.24061.53344.01967.00106c.04428-.02723.10729-.065.151-.09335Zm-3.42535,1.22957.14248-.07355.00246-.41188-.14352.08Zm2.8066,2.45853a4.98661,4.98661,0,0,0-.613.22511c-.1866.08331-.34517.1654-.48483.24171a1.35,1.35,0,0,1-.89292.24961,1.60215,1.60215,0,0,1-.64013-.23364,3.351,3.351,0,0,0-.52087-.24915c-.16693-.06024-.30936-.10078-.43648-.13486a1.82376,1.82376,0,0,1-.76955-.36866c-.0203-.016-.03874-.03191-.05761-.04691l5.7724-3.245a1.16613,1.16613,0,0,1,.23954.72017,1.42221,1.42221,0,0,1-.25178.77251l-.14353.264a3.04422,3.04422,0,0,0-.25921.77358,1.14655,1.14655,0,0,1-.942,1.03153Zm.19527-2.68584.0096.15376c.00155.0181.01008.02554.01967.01594l.32547-.24958a.0689.0689,0,0,0,.01764-.04648l-.0085-.15359c0-.01717-.01024-.02351-.02137-.015l-.32393.24958a.06368.06368,0,0,0-.01852.04538Zm-.02557.5393c-.0017.0172.00854.02464.01967.0172l.34623-.2177a.05762.05762,0,0,0,.02184-.04538l.00634-.15206c.0011-.017-.00634-.02447-.017-.017l-.34777.21711a.06351.06351,0,0,0-.02183.04427ZM47.54,17.96328a.0602.0602,0,0,0,.04431.02353l.15233.01224c.01733,0,.02727-.00633.01844-.01764l-.20378-.35566a.06388.06388,0,0,0-.04444-.02354l-.15236-.01117c-.0184-.00107-.02584.00743-.0195.0186Zm-.3439-.43355a.0651.0651,0,0,0-.04057-.03051l-.14849-.03684c-.017-.00373-.02647.00324-.02087.01547l.1449.38247a.06025.06025,0,0,0,.0392.03051l.1488.03684c.01594.00373.02694-.00387.02184-.0161Zm.79355.46779a.056.056,0,0,0,.04785.0175l.15236-.016c.017,0,.0234-.01007.01487-.01967l-.26169-.31476a.07611.07611,0,0,0-.048-.0155l-.15342.0133c-.016.0022-.02338.01117-.01346.022Zm.41885-.04645a.054.054,0,0,0,.05017.01127l.1488-.0359c.01594-.00357.02074-.01487.01113-.02447l-.30455-.27252a.0658.0658,0,0,0-.04908-.0085l-.14989.03667c-.01594.00373-.02214.01223-.01114.022Zm.43108-.12435a.06243.06243,0,0,0,.05061-.0037l.13706-.06722c.0161-.00743.01874-.01967.0065-.02723l-.35753-.19791a.06066.06066,0,0,0-.05.00277l-.13766.06878c-.015.00743-.01874.01874-.0065.02567Zm.39051-.19354a.05384.05384,0,0,0,.04784-.01133l.12169-.09429c.0133-.0102.01487-.02134.00107-.0246l-.39048-.127a.0587.0587,0,0,0-.04644.015l-.12312.09059c-.01347.01223-.01347.02243-.00107.02833Zm.35346-.26572a.05486.05486,0,0,0,.04445-.02183l.09818-.11583c.01224-.01593.009-.02553-.005-.02553l-.40644-.03948a.06631.06631,0,0,0-.04538.02244l-.09971.11782c-.00961.01224-.007.02464.00743.02664Zm.3148-.30565a.06089.06089,0,0,0,.04274-.02724l.08485-.12636c.0085-.01594.0048-.02724-.00757-.02724l-.40864.00744a.05875.05875,0,0,0-.04321.0283l-.08469.12636c-.00973.015-.006.02724.00851.02724Zm.22931-.3462a.05822.05822,0,0,0,.0384-.031L50.235,16.547c.007-.01594.00216-.02664-.01114-.02448l-.40554.05762a.074.074,0,0,0-.03778.03467l-.06781.13876c-.00743.0133-.00217.02444.01114.02337Zm.166-.392a.05935.05935,0,0,0,.02928-.03888l.04057-.149c.0054-.017-.00217-.02557-.0144-.02077l-.38464.13766a.05529.05529,0,0,0-.033.03777l-.03794.1499c-.00527.0161.0011.0246.01333.0198Zm-2.53857.69876c.14136-.055.279-.113.43091-.185l-.002.2149.62725-.50522c.00634.09615-.0048.15.00107.26678l.48806-.68546s-.39314.3798-.40428.37717c-.0113,0,.033-.25655.02927-.25655l-.61137.496.0133-.1782c-.14984.11411-.3903.30568-.57225.45554Zm-.89754.19777a2.00823,2.00823,0,0,0,1.088.3197,2.0531,2.0531,0,0,0,2.051-2.05379v-.03067l-.28665.16113a1.79067,1.79067,0,0,1-2.6109,1.46787Zm-.16783.09435.03057.37477a.06531.06531,0,0,0,.03067.04211l.13439.07355c.01471.00743.02508.00373.024-.01007l-.04058-.40644a.05913.05913,0,0,0-.03-.04058l-.10279-.05934Zm-.28389.1603.00667.00484.12772.08578c.01424.0085.02587.0048.02587-.01007l-.0042-.16323Zm-.21511.12019.00947-.005a2.80867,2.80867,0,0,0,1.7613.63746A2.74209,2.74209,0,0,0,50.70266,15.486a2.7946,2.7946,0,0,0-.02817-.41015l.03651-.02233-.51547.28985.28959-.16083.048-.02837a2.44961,2.44961,0,0,1,.02074.33183,2.60916,2.60916,0,0,1-2.60711,2.61119h-.00129a2.56369,2.56369,0,0,1-1.62984-.57134l.04161-.02457Zm4.21969.284c.0214-.019.04107-.03317.06408-.05587a1.19508,1.19508,0,0,0,.28385-.648l.00625-.02683c-.00311-.00817.0047-.02017.0047-.02017.0116-.05135.02394-.10359.03774-.15777l.01026-.037a2.61026,2.61026,0,0,1,.2061-.54842c0-.001.03374-.06356.06845-.1276l.0182-.03355.05785-.10655.00523-.00952.0069-.01262a1.28865,1.28865,0,0,0,.22908-.7146c.0011-.01113.0011-.02354.0011-.033a.87787.87787,0,0,0-.0812-.37554l-.0088-.02a2.0303,2.0303,0,0,0-.099-.18553c-.02217.01254-.21174.11918-.50036.28148a2.3929,2.3929,0,0,1,.03367.438,2.79714,2.79714,0,0,1-2.79313,2.79316,2.71322,2.71322,0,0,1-1.80684-.664c-.30359.17063-.5067.28475-.541.30393a1.733,1.733,0,0,0,.71053.32906c.04538.01277.09609.02744.14637.042l.00486.00144c.08908.026.18337.05484.29025.09422a3.22647,3.22647,0,0,1,.53234.25438,1.52561,1.52561,0,0,0,.61178.22574.919.919,0,0,0,.55307-.09788l.03587-.01511c.06317-.03007.13342-.06611.20773-.10548l.01325-.00687.03874-.02007c.14028-.07372.29869-.15857.48759-.24218a4.70487,4.70487,0,0,1,.62408-.2272l0,.00005a1.24135,1.24135,0,0,0,.5335-.26618m-.71925-4.52856-5.01515,2.853a1.12649,1.12649,0,0,1-.22527-.81659,1.4864,1.4864,0,0,1,.24558-.67172,2.87838,2.87838,0,0,0,.23644-.478,5.21136,5.21136,0,0,0,.1573-.5195,1.402,1.402,0,0,1,.38617-.77621,1.04444,1.04444,0,0,1,.563-.26508,2.90454,2.90454,0,0,0,.59381-.19418,4.23872,4.23872,0,0,0,.45335-.25438,1.36294,1.36294,0,0,1,.80949-.28492,1.68142,1.68142,0,0,1,.83366.26772,2.67,2.67,0,0,0,.49022.21881l.20548.05758a2.70072,2.70072,0,0,1,.97131.41017c.01224.01021.02444.01981.03684.031l-.7327.41681-.0093.0056Zm-3.88713,2.024-.0085-.151c-.0014-.017-.01041-.0234-.02137-.01487l-.32053.247a.06846.06846,0,0,0-.01779.048l.00849.151c.00107.01427.00924.0161.018.01243l.02554-.01453.29909-.23a.07275.07275,0,0,0,.017-.04807Zm.04907-.5147c0-.01827-.0085-.02677-.02027-.0198l-.34189.21491a.06435.06435,0,0,0-.02274.046l-.00607.151c-.00137.017.00747.02444.01891.017l.3433-.21491a.05912.05912,0,0,0,.02167-.04427Zm2.006-1.88252a.05367.05367,0,0,0-.04678-.0161l-.151.01457c-.01733.00153-.02337.01113-.01487.02134l.25922.31032a.06819.06819,0,0,0,.048.0161l.14973-.01333c.017-.00277.02337-.0113.01484-.02091Zm.42131.36217a.06484.06484,0,0,0,.04428.02354l.151.01223c.017,0,.02571-.00633.0181-.01873l-.20114-.35087a.06643.06643,0,0,0-.04411-.02354l-.15129-.01223c-.01844-.00107-.02554.00743-.01844.01967Zm-.83659-.31093a.06234.06234,0,0,0-.04894-.0085l-.14616.03454c-.01734.0048-.02214.01441-.01253.02571l.30226.26878a.06375.06375,0,0,0,.04908.0085l.14756-.03514c.01593-.0037.02073-.015.011-.02243Zm-.42611.127a.05773.05773,0,0,0-.04988.0011l-.13639.06768c-.01457.007-.017.01921-.0048.02571l.3532.19617a.06835.06835,0,0,0,.04907-.00107l.13626-.06985c.01471-.00633.01841-.01767.0062-.02353Zm-.37347.19621a.05718.05718,0,0,0-.04908.0113l-.11922.09168c-.0141.01127-.0141.02244-.00127.02614l.38571.12542a.06322.06322,0,0,0,.048-.0139l.1191-.09185c.0147-.01113.01577-.0223.00122-.026Zm-.34452.26138a.07375.07375,0,0,0-.04411.02244l-.09649.11522c-.01173.0139-.00913.0246.00374.02724l.40351.03794a.06605.06605,0,0,0,.044-.02311l.09849-.11672c.0099-.01223.0085-.0246-.00561-.02617Zm-.28676.29619a.07113.07113,0,0,0-.041.02817l-.08488.12542c-.0085.016-.00617.02558.00807.02558l.40458-.007a.05741.05741,0,0,0,.0418-.02707l.08409-.12542c.00976-.01594.006-.02727-.00727-.02571Zm-.24.344a.05611.05611,0,0,0-.03764.03194l-.06674.13609c-.00744.01487-.00264.026.011.02354l.40041-.06038a.05621.05621,0,0,0,.0371-.03046l.06735-.13656c.0085-.0161.0034-.02554-.01067-.02354Zm-.17637.38774a.06763.06763,0,0,0-.0302.03841l-.03854.14833c-.00544.016.0023.02447.01484.02137l.38122-.1355a.07264.07264,0,0,0,.03145-.039l.03871-.14773c.00417-.0161-.0028-.02554-.015-.01917Zm2.55222-.76755c-.12143.05435-.44069.22235-.44349.21121.0076-.09815.0076-.1728.0127-.26988l-.0051-.0011s-.67556.58561-.67929.57817a.96278.96278,0,0,0-.02448-.21707l-.52579.67539c.12463-.09815.35134-.30362.47039-.40444.0037-.0048.0167.20811.02384.2016l.59288-.55523c.00853.0065-.02074.16116-.0198.2166.00756.00327.01236-.00276.01747-.0037Zm.79632-.18853a2.05072,2.05072,0,0,0-3.04364,1.73223l.26761-.1523a1.80059,1.80059,0,0,1,2.48721-1.41557Zm-.30626-.25585a.07049.07049,0,0,0,.03947.031l.14833.03671c.01611.0037.02464-.00527.01984-.0175L48.696,13.107a.06475.06475,0,0,0-.03837-.03034l-.14727-.03578c-.0181-.00373-.02727.00374-.02183.01594Zm.5002.14543-.02964-.299a.05815.05815,0,0,0-.02834-.03794l-.13379-.07524c-.015-.00684-.02571-.0037-.02354.01023l.03841.40271a.06966.06966,0,0,0,.0305.04058l.03787.02047Zm.26345-.15-.1251-.08142c-.01333-.01-.02447-.00633-.02447.00747l.00357.15706Zm.21654-.12329a2.73188,2.73188,0,0,0-4.3909,2.17878,2.83279,2.83279,0,0,0,.0216.30789l.10419-.05928c-.0073-.08188-.01291-.16446-.01291-.24861a2.61267,2.61267,0,0,1,4.15172-2.107Zm-.6536-.88654c-.09392-.04271-.18467-.08915-.27259-.13622a1.62639,1.62639,0,0,0-.797-.25829,1.288,1.288,0,0,0-.77031.27422,4.42769,4.42769,0,0,1-.45972.25872,2.88965,2.88965,0,0,1-.60728.199.96191.96191,0,0,0-.52847.24585,1.32018,1.32018,0,0,0-.364.73594l-.00166.006c-.04157.15487-.08671.3281-.15879.52287a3.03373,3.03373,0,0,1-.24308.49146,1.42076,1.42076,0,0,0-.23508.64212,1.27039,1.27039,0,0,0-.0088.14616,1.04178,1.04178,0,0,0,.18627.55541c.02243-.01271.2131-.12119.49659-.28249a2.84566,2.84566,0,0,1-.0251-.33533,2.7839,2.7839,0,0,1,4.49115-2.20649l.00008,0c.34543-.19663.58611-.33373.62441-.35563a2.05434,2.05434,0,0,0-.49556-.23758l-.01077-.00353c-.12423-.04221-.251-.079-.38183-.11452l-.20378-.05668a1.7659,1.7659,0,0,1-.23317-.09035"/></svg>