<svg id="Layer_1" data-name="Layer 1" xmlns="http://www.w3.org/2000/svg" viewBox="0 0 53.33888 34.74756"><defs><style>.cls-1{fill-rule:evenodd;}</style></defs><title>1</title><path class="cls-1" d="M24.998,32.979c-2.79634-1.75189-4.85685-7.79635-4.85685-14.97916,0-.26351.0019-.52393.00757-.78337h0l.00315.0041h0C12.37319,15.99771,6.75311,12.64841,6.60905,8.68786h0l-.023.046h0a12.71706,12.71706,0,0,0-2.98957,8.0138c0,8.5747,9.41231,15.60078,21.35137,16.22188h0l.05013.00947ZM0,17.37344C0,7.77924,11.94035,0,26.66944,0S53.33888,7.77924,53.33888,17.37344c0,9.5945-11.94037,17.37412-26.66944,17.37412S0,26.96794,0,17.37344ZM26.66944,2.50693c2.84362,0,5.26256,4.31364,6.1582,10.33223h0l.00318-.00951h0c5.53243-.86123,9.40535-2.84735,9.40535-5.15885,0-3.1021-6.97-5.6147-15.56673-5.6147S11.10335,4.5687,11.10335,7.6708c0,2.3115,3.87228,4.29762,9.40471,5.15885h0l.00346.00951h0c.89628-6.01859,3.31524-10.33223,6.15792-10.33223Zm1.72162,30.4626c11.93906-.6211,21.35229-7.64718,21.35229-16.22188a12.7181,12.7181,0,0,0-2.99051-8.0138h0l-.023-.046h0c-.14406,3.96055-5.76317,7.30985-13.54245,8.53271h0l.00314-.0041h0c.00536.25944.0082.51986.0082.78337,0,7.18281-2.06177,13.22727-4.85684,14.97916h0l.0492-.00947ZM26.66944,13.28585c1.27425,0,2.51227-.05421,3.69732-.15827h0l-.00158.00129h0c-.58983-3.85748-2.02206-6.58037-3.69574-6.58037s-3.1056,2.72289-3.69576,6.58037h0l-.00159-.00129h0c1.18506.10406,2.42371.15827,3.69735.15827Zm0,14.28711c2.14088,0,3.88741-4.45489,3.98011-10.04278h0l.01167.00407h0c-1.29037.1195-2.62516.18189-3.99178.18189-1.367,0-2.70114-.06239-3.99115-.18189h0l.01165-.00407h0c.0927,5.58789,1.83858,10.04278,3.9795,10.04278Z"/></svg>