<svg id="Layer_1" data-name="Layer 1" xmlns="http://www.w3.org/2000/svg" viewBox="0 0 79.26902 40.48047"><defs><style>.cls-1{fill-rule:evenodd;}</style></defs><title>3</title><path class="cls-1" d="M53.22637,16.38307a5.02911,5.02911,0,0,0,3.04121,1.321l1.7709.11822c1.30451.08992,1.5742.71936,1.5742.71936,1.13029,1.98487,3.95792,3.0589,3.95792,3.0589A10.24417,10.24417,0,0,1,60.467,18.27205c-.85433-1.25968-2.92312-1.25968-2.92312-1.25968H56.32957a9.32981,9.32981,0,0,1-3.1032-.6293Z"/><path class="cls-1" d="M66.25008,22.34953a7.131,7.131,0,0,0-2.07955-.50948,5.21056,5.21056,0,0,1,1.49906.71973.99779.99779,0,0,1,.27,1.409c-.71044,1.25781-3.499.62837-3.499.62837,2.96821,1.97823,4.213.49419,4.213.49419a1.57347,1.57347,0,0,0,.37464-1.93394,5.84218,5.84218,0,0,0,5.48731-1.70879s-2.99853,2.39834-6.26544.90088Z"/><path class="cls-1" d="M15.35956,1.22963s-1.754.2096-2.59345.19484c0,0-.17993.03019-.17993.14986,0,0,.06.21.43474.21a5.70867,5.70867,0,0,0,2.33864-.55471Z"/><path class="cls-1" d="M33.64463,14.08061a53.09828,53.09828,0,0,0,6.26836.018,4.6454,4.6454,0,0,1,1.43909.10293c1.74868.26027,2.02424,1.07922,2.02424,1.07922s3.10332,6.38684,9.21994,6.22991l2.88788.01649c2.60886,0,6.09041,2.5618,6.09041,2.5618-.71921-.53968-2.18835-1.949-2.18835-1.949a8.37,8.37,0,0,0-4.86158-1.6621l-3.03777-.01717A7.66449,7.66449,0,0,1,44.186,15.19079a2.67257,2.67257,0,0,0-2.474-1.529c-.13246-.00174-.26253-.00678-.38979-.00053-5.69677.28473-7.56262-.17064-7.56262-.17064a17.74358,17.74358,0,0,1-3.75245-1.49679A4.09273,4.09273,0,0,0,29.737,9.625a7.69918,7.69918,0,0,0,4.01817.38978A18.33013,18.33013,0,0,1,28.47784,7.6762s1.04929,3.02857.17967,4.168c0,0-.56973,2.09859-5.78667.38954a13.01845,13.01845,0,0,0-3.838-.83931s-1.3496.05957-1.3496.74967a.55576.55576,0,0,0,.32983.47969.69345.69345,0,0,1,.14975.86908.97584.97584,0,0,0,.38993-.95911s-.06012-.3.21012-.36014c0,0,.7196-.29963,2.75835.45017,0,0,3.29855,1.49893,5.18754,1.49893,0,0,2.03861-.12,2.78841-1.01963a17.445,17.445,0,0,0,4.14742.97748Z"/><path class="cls-1" d="M10.10471,8.827a1.84857,1.84857,0,0,0,1.23682-.61868,5.72507,5.72507,0,0,1,3.50815-1.68657c2.64252-.17995,5.85821,2.38384,5.85821,2.38384C18.43669,5.881,16.0418,5.67829,16.0418,5.67829a1.202,1.202,0,0,1-.83226-.71935c-.76441-1.40583-1.63031-1.47341-1.63031-1.47341a2.40462,2.40462,0,0,1,.38208,1.38338c0,1.47285-2.20351,1.68657-2.20351,1.68657-.87694,1.73153-1.6157,1.63059-1.6157,1.63059a.5118.5118,0,0,1-.49459-.225c-.08992-.135.0601-.25482.0601-.25482a4.3136,4.3136,0,0,0,.46467-.34458,3.45658,3.45658,0,0,0,1.51423-2.45884,1.60032,1.60032,0,0,0-1.46915-1.54444,1.03453,1.03453,0,0,0-.8397.36,15.26788,15.26788,0,0,0-.80951,1.31925c-.435.71974-.82493.61442-.82493.61442a1.13808,1.13808,0,0,1-.83917-.41971.49518.49518,0,0,1-.04948-.05319A.45983.45983,0,0,1,6.814,4.69283a2.92807,2.92807,0,0,1,1.7689-1.13972c.04188-.01157.08244-.02423.1226-.0366,0,0,.10641-.02512.22423-.06448l-.00651-.00718C10.4759,2.89814,10.6069,2.084,10.6069,2.084a2.13819,2.13819,0,0,0-1.01938-.28513,1.51087,1.51087,0,0,0-1.259.99l-.225-.23606s-.10119-.124.05639-.26984c0,0,.70792-.87346,3.30162-1.26326a18.61816,18.61816,0,0,1,4.88765-.015,3.8336,3.8336,0,0,1-3.763,1.03494s-.03018.65937,1.76877.98916a8.20288,8.20288,0,0,1,4.273,2.47389,8.92656,8.92656,0,0,0-2.66858-2.93881.15312.15312,0,0,1-.01529-.25507,3.04986,3.04986,0,0,1,2.06906-1.00408s6.13191.31479,9.58008,3.913a5.13239,5.13239,0,0,0-.64447-1.46956s-.10533-.10465-.04522-.17979c0,0,.04522-.14975.64473-.03019a46.9216,46.9216,0,0,1,7.2711,2.21933l5.50221,1.964s1.919.70446,2.9835,1.18414a8.53321,8.53321,0,0,0-3.28353.50989s-.04655.02965-.02433.06941c0,0,.01143.03923.10652.02235a5.89273,5.89273,0,0,1,3.54791.26985,14.76744,14.76744,0,0,1,3.18778,1.84949s.9558.83211,1.56289,1.50677a18.97223,18.97223,0,0,0,3.05837,2.27148s-1.32657-1.2593-2.42826-2.42854c0,0-1.5746-1.8894-2.29448-2.5191,0,0,5.42919,2.54716,10.32256,5.30724.87708.49511,3.71016,2.13661,3.71016,2.13661a40.20266,40.20266,0,0,0,5.4385,2.79253,5.22124,5.22124,0,0,0,4.498-.06051l.09722-.043c1.31912-.68368,1.621-.46837,1.621-.46837a.76215.76215,0,0,1,.46506.92175c.5692-.58435.51827-.9018.51827-.9018-.01849-1.00182-1.11553-.91977-1.11553-.91977a9.48852,9.48852,0,0,0-1.82981.90794l-.17621.11384a5.62774,5.62774,0,0,1-3.808.05943,39.57869,39.57869,0,0,1-5.50605-2.7622s-5.03713-2.99069-9.3774-5.17212c0,0-5.41975-2.81128-12.68353-5.95942,0,0-13.85278-6.40907-24.06243-6.40907,0,0-5.29209-.06781-7.08385,1.96747a1.00282,1.00282,0,0,0-.15761.585.1529.1529,0,0,1-.04467.14617A7.79248,7.79248,0,0,0,6.13563,3.95834a.698.698,0,0,0-.06742.87678s.22462.35975.42742.62985l.00306-.00279a1.7482,1.7482,0,0,0,1.42472.7333A.76212.76212,0,0,1,8.2608,6.252a1.59013,1.59013,0,0,0,.44978.2697h.37105s.079-.011.08989-.07873a2.03751,2.03751,0,0,0-.06742-.337.77753.77753,0,0,1-.12394-.61866,2.20805,2.20805,0,0,1,.43887-.967.653.653,0,0,1,.83185-.03365A1.44833,1.44833,0,0,1,10.66727,6.117s-.36026.6748-.75378.6748a.42954.42954,0,0,1-.39339-.135l-.25879-.0339s-.07888,0-.07888.06755l.01158.191a.27693.27693,0,0,0,.05611.16865.23042.23042,0,0,1-.01129.28127.519.519,0,0,0-.12369.55084s.22516.94476.98957.94476ZM9.8124,2.324a1.16977,1.16977,0,0,1-1.04928.50974A.78078.78078,0,0,1,9.8124,2.324Zm-2.01267.67826c.25854-.10108.29259.0452.29259.0452.01116.12369-.13539.1685-.13539.1685A6.39978,6.39978,0,0,0,6.66428,4.307c-.10121.11239-.16865.056-.16865.056-.124-.11252,0-.25893,0-.25893a7.85125,7.85125,0,0,1,1.3041-1.10181Z"/><path class="cls-1" d="M21.67126,5.87712a2.88742,2.88742,0,0,0-.29988,3.47835c-3.86815-.1201-4.97755.95939-4.97755.95939a2.79518,2.79518,0,0,0-1.19932,3.17805c1.07936,1.70947,2.33917.50988,2.33917.50988-1.79921.36013-1.7693-1.22935-1.7693-1.22935.38967-2.75862,3.98783-2.63865,3.98783-2.63865a56.82829,56.82829,0,0,1,7.88579.86962c-3.6281-.83956-4.7375-1.73912-4.7375-1.73912-1.52912-.92947-1.22924-3.38817-1.22924-3.38817Z"/><path class="cls-1" d="M50.23754,35.462a8.42068,8.42068,0,0,0,.17862-2.04858V28.13154h-1.1666v5.6784a7.1446,7.1446,0,0,1-.13259,1.492c-.32342,1.57328-1.51422,2.15244-3.302,2.15244a3.19922,3.19922,0,0,1-2.42865-.87054,3.78518,3.78518,0,0,1-.61881-2.66272v-5.7896h-1.896v5.88961a4.13085,4.13085,0,0,0,.9558,3.14148,5.77146,5.77146,0,0,0,3.94834,1.10781c2.4945,0,3.98558-.83225,4.462-2.80848Z"/><path class="cls-1" d="M63.49147,38.04941h2.25632L60.906,28.13154H59.72785l-4.94817,9.91787h1.203l1.33881-2.78482H62.242l1.24944,2.78482ZM59.841,30.01216l2.08755,4.57764H57.64563l2.1954-4.57764Z"/><path class="cls-1" d="M18.33774,38.04941h2.25617l-4.8427-9.91787h-1.178l-4.948,9.91787h1.203l1.34013-2.78482h4.92011l1.2493,2.78482Zm-3.65218-8.03725L16.775,34.5898H12.49215l2.19341-4.57764Z"/><path class="cls-1" d="M30.91994,38.26979a10.38509,10.38509,0,0,0,3.91084-.73666V33.49037H32.93527v3.62052a6.67184,6.67184,0,0,1-2.14075.34936,3.97666,3.97666,0,0,1-4.16246-4.25207,4.22855,4.22855,0,0,1,4.55213-4.4738A5.73892,5.73892,0,0,1,34.502,29.89473V28.7155a7.99388,7.99388,0,0,0-3.45162-.77161,6.93836,6.93836,0,0,0-5.13981,1.974,5.23174,5.23174,0,0,0-1.37883,3.41571c0,3.80817,3.11276,4.93622,6.38818,4.93622Z"/><path class="cls-1" d="M77.08426,38.04941H79.269l-2.91554-4.02667a3.062,3.062,0,0,0,2.18556-2.827,2.80978,2.80978,0,0,0-.65565-1.95762c-.81-.89555-2.26721-1.10661-3.72212-1.10661H70.57294v9.91787h1.89644v-3.808h1.98753l2.62735,3.808Zm-3.22089-9.22978c1.52021,0,2.73867.63463,2.73867,2.311a2.27243,2.27243,0,0,1-.8026,1.86013,3.13925,3.13925,0,0,1-2.11028.574H72.46938V28.81963Z"/><path class="cls-1" d="M1.61464,40.08841a4.68577,4.68577,0,0,0,2.42906-4.4501V28.13154H2.147v6.2379a21.09841,21.09841,0,0,1-.11,2.63294A4.4526,4.4526,0,0,1,0,40.48047a3.82547,3.82547,0,0,0,1.61464-.39206Z"/></svg>