<svg id="Layer_1" data-name="Layer 1" xmlns="http://www.w3.org/2000/svg" viewBox="0 0 75.49 33.17301"><title>1ca</title><path d="M75.49,7.69559H51.68013a16.58085,16.58085,0,0,0-27.99834,0H0L2.40939,10.1098H22.40718a16.46411,16.46411,0,0,0-.87979,2.71818H5.12211L7.5315,15.24219H21.15336c-.03563.44388-.0589.89126-.0589,1.34432,0,.46309.02394.92036.06115,1.37386H10.24423l2.40938,2.41421h8.8806a16.46291,16.46291,0,0,0,.88633,2.71818h-7.0542L17.77573,25.507h5.925a16.58058,16.58058,0,0,0,27.96044,0h6.05309l2.40939-2.41421H52.9414a16.46285,16.46285,0,0,0,.88631-2.71818h9.00867l2.40939-2.41421H54.20631c.03721-.4535.06115-.91077.06115-1.37386,0-.45306-.02327-.90044-.0589-1.34432H67.9585L70.36788,12.828H53.83453a16.46406,16.46406,0,0,0-.87977-2.71818H73.08061ZM37.745,30.77606A14.16211,14.16211,0,1,1,51.90711,16.614,14.16211,14.16211,0,0,1,37.745,30.77606Z"/><polygon points="30.463 18.673 28.54 12.857 26.36 12.857 26.36 20.328 27.952 20.328 27.952 14.788 29.63 20.328 31.279 20.328 32.963 14.788 32.963 20.328 34.554 20.328 34.554 12.857 32.369 12.857 30.463 18.673"/><polygon points="44.327 18.329 41.332 12.857 39.572 12.857 39.572 20.328 41.05 20.328 41.05 15.091 44.044 20.372 45.824 20.328 45.824 12.857 44.346 12.857 44.327 18.329"/><rect x="36.29039" y="12.85102" width="1.5153" height="7.47098"/><rect x="47.54996" y="12.85102" width="1.5153" height="7.47098"/></svg>