<svg id="Layer_1" data-name="Layer 1" xmlns="http://www.w3.org/2000/svg" viewBox="0 0 58.61302 34.16335"><title>3</title><path d="M49.65359,26.54193v5.48286a2.02,2.02,0,0,0,2.16264,2.09179c1.51961.06,3.07427.06545,4.72656-.00236A2.02042,2.02042,0,0,0,58.613,32.01958V26.54193H56.61738v5.04423a.65164.65164,0,0,1-.6631.69,25.0461,25.0461,0,0,1-3.70373,0,.72506.72506,0,0,1-.61351-.706V26.54193Z"/><path d="M2.30741,26.54025A2.2238,2.2238,0,0,0,.02519,28.42009a2.51041,2.51041,0,0,0-.0062.662,1.95607,1.95607,0,0,0,2.0048,1.81151c.8451.07362,4.2948.25854,4.71582.2923.56587.04666.64579.26975.64579.57159,0,.33864-.15668.53754-.64579.56588-1.06327.064-3.0601.04418-4.06264.01191-.3538-.0125-.6083-.10581-.6209-.531l-.00492-.366H.05215s-.00345.1749-.00266.22136c.009,1.57353.54532,2.3017,2.04426,2.41921A43.05136,43.05136,0,0,0,7.34859,34.071a2.03485,2.03485,0,0,0,1.99054-2.19858c.00423-.06043,0-.17281,0-.26672a1.95683,1.95683,0,0,0-1.8865-2.08667c-.68991-.06022-4.37648-.22792-4.89446-.2728-.39532-.03493-.55573-.235-.55573-.56411a.49292.49292,0,0,1,.52168-.5015c1.18108-.07894,3.22514-.06212,4.03235-.01438.39739.02569.55495.22161.5761.452v.34986H9.13214v-.311c-.037-1.5028-.7624-2.07568-2.14265-2.13217C5.48915,26.46566,3.86069,26.44873,2.30741,26.54025Z"/><path d="M20.10959,34.14257h6.62465A2.05064,2.05064,0,0,0,28.98057,31.812c0-1.034-.49445-1.59274-.86762-1.70571.31068-.13613.669-.59187.669-1.48193a1.961,1.961,0,0,0-2.10047-2.08245c-1.28843-.00168-6.57191,0-6.57191,0v7.60064Zm6.06567-5.93233h0c.3663.0265.68014.179.68014.58685,0,.41778-.28431.63311-.71587.6582H22.1066V28.21024Zm0,2.82252h0c.33648.01536.79509.15806.79509.70752,0,.57089-.37879.70986-.83987.72787H22.1066V31.03276Z"/><path d="M10.08964,26.54193v5.48286a2.0204,2.0204,0,0,0,2.16394,2.09179c1.51922.06,3.07464.06545,4.7283-.00236a2.02243,2.02243,0,0,0,2.06849-2.09464V26.54193H17.0562v5.04423a.65593.65593,0,0,1-.66667.69,25.01291,25.01291,0,0,1-3.70126,0,.72318.72318,0,0,1-.61528-.706V26.54193Z"/><path d="M39.90329,26.54025v7.60232l1.98727-.00265V31.41845H46.0162a.71691.71691,0,0,1,.74154.7329c.05038.776.03021,1.98581.03021,1.98581l2.0175.00541s-.00768-1.09949-.03366-1.9175a1.83477,1.83477,0,0,0-.87008-1.68141,1.80457,1.80457,0,0,0,.79085-1.71083,2.0185,2.0185,0,0,0-2.13411-2.29258Zm6.11291,1.67h0c.47.0379.71831.24662.71831.7266a.669.669,0,0,1-.71831.73547H41.89056V28.21193Z"/><path d="M31.861,32.79114H36.3834l.69381,1.34878h2.33134L35.267,26.54025H33.03425l-4.14639,7.59967h2.26678l.70637-1.34878Zm3.69457-1.60926H32.7038l1.43868-2.747Z"/><path d="M7.625,11.74386C7.625,5.25522,17.6873,0,29.51547,0,41.343,0,51.22116,5.25522,51.22116,11.74386c0,6.48473-9.87816,11.74384-21.70569,11.74384-11.989,0-21.89043-5.25911-21.89043-11.74384ZM29.52569,22.24622h0c10.95162,0,20.096-4.70291,20.096-10.50236,0-5.84486-9.24243-10.50151-20.096-10.50151-10.94706,0-20.299,4.65665-20.299,10.50151,0,5.79945,8.9766,10.50236,20.299,10.50236Zm5.66078-4.1502h0c.324.04933,1.46512.21756,1.93219.303a.9108.9108,0,0,1,.77723.67159c.06347.1528.15867.48339.21.67421.06912.24212.15779.61008.16823.64269a.13089.13089,0,0,0,.13214.093.13808.13808,0,0,0,.12932-.09521c.0226-.05346.12325-.42795.18844-.6516a6.32826,6.32826,0,0,1,.216-.66312.92966.92966,0,0,1,.73311-.6577c.469-.08344,1.54642-.21994,2.07978-.28515.40406-.0439,1.27975-.15888,1.38167-.16866.108-.01629.15172-.07912.15172-.14823,0-.07737-.04369-.13627-.15716-.14692-.1656-.01348-.97217-.09693-1.37623-.14627-.61791-.07348-1.67986-.228-2.0363-.30733a.873.873,0,0,1-.72246-.53685,3.18681,3.18681,0,0,1-.23127-.622c-.0389-.15454-.19169-.66183-.21255-.74483-.02261-.09913-.07977-.1289-.13933-.1289-.06564,0-.11954.022-.14736.13279-.035.10694-.15779.5864-.20908.75093a5.35874,5.35874,0,0,1-.21627.604.89345.89345,0,0,1-.70659.54489c-.60465.12083-1.69248.29319-1.94914.333a6.21272,6.21272,0,0,1-1.88266.0928c-.51511-.04717-1.669-.22756-2.433-.34646-.46338-.0691-.93872-.10475-1.19562-.53922a3.87433,3.87433,0,0,1-.33581-.83157c-.08846-.2756-.22385-.759-.25341-.87786-.03174-.095-.07-.14845-.15281-.14845-.08346,0-.126.05347-.15409.15605-.03564.10542-.18236.617-.2532.86027a3.10465,3.10465,0,0,1-.34189.84156c-.261.38013-.50708.42817-1.13868.53509-.66268.11107-1.48816.20409-2.12934.26952-.56467.06564-.92024.103-1.12737.1267-.103.01284-.16453.04695-.16453.14736,0,.10173.06151.13976.16453.15171.188.02653.74246.08716,1.13128.12672.65161.06955,1.24019.12715,2.12543.26755.85787.13259,1.00827.24777,1.28386.89547a4.0445,4.0445,0,0,1,.2456.81178c.0613.27255.188.82005.208.93329a.14774.14774,0,0,0,.14455.15148c.09279,0,.13473-.06042.15256-.15582.02043-.12673.15258-.70507.2141-.929a6.69187,6.69187,0,0,1,.2356-.81178c.27559-.6992.49923-.7744,1.33515-.90263.64226-.09977,1.83462-.28016,2.43906-.34907a6.10961,6.10961,0,0,1,1.88657.07717Zm6.33063-4.4256h0c.349.04912.94392.16452,1.612.31471a.85318.85318,0,0,1,.69616.61618,9.542,9.542,0,0,1,.26147.9311c.07716.28538.12868.5349.13476.58055a.15787.15787,0,0,0,.145.13387.15181.15181,0,0,0,.15019-.12627c.01391-.06108.0652-.31082.1365-.59315.0778-.30406.16648-.64117.26167-.93a.81223.81223,0,0,1,.636-.58924c.37426-.08431.98849-.18757,1.48968-.26146.43578-.0665,1.18672-.1617,1.29147-.17757.10933-.01653.15281-.08324.15281-.14585A.147.147,0,0,0,48.332,13.272c-.10867-.01759-.82982-.11563-1.29755-.18431-.57227-.08518-1.16084-.18017-1.4836-.25321a.88548.88548,0,0,1-.58989-.4562,4.478,4.478,0,0,1-.2758-.71616c-.05694-.21538-.14411-.52446-.16909-.6103a.14585.14585,0,0,0-.14954-.11628.14394.14394,0,0,0-.14106.12216c-.03021.10909-.10585.38513-.17431.60791a3.39877,3.39877,0,0,1-.2669.71267.86466.86466,0,0,1-.65509.46926c-.66812.14148-1.24712.26277-1.61139.31754a6.30554,6.30554,0,0,1-2.33822.00782c-.53075-.07956-1.42621-.21344-2.12955-.34863a1.16585,1.16585,0,0,1-.93111-.56858,5.89188,5.89188,0,0,1-.29928-.865c-.05934-.195-.17431-.58988-.21409-.74028-.02825-.10194-.06889-.14344-.15257-.14344-.08282,0-.12389.0415-.15236.14344-.03955.1278-.1465.51055-.2117.73615a5.64433,5.64433,0,0,1-.30407.86329,1.10321,1.10321,0,0,1-.91263.56663c-.58423.12259-1.51556.22169-2.3469.30885-.3684.0476-1.04435.12671-1.20171.15061a.13329.13329,0,0,0-.13976.1428c0,.0889.03565.13388.13824.14628.14476.02216.93936.11107,1.19779.14106.44469.04934,1.51121.196,2.34843.31472a1.1041,1.1041,0,0,1,1.052.98261c.0891.36515.16865.63423.2258.91547.05152.23016.133.59618.15455.66833.03.10607.08128.14953.14736.14953.06737,0,.12932-.03151.15757-.15431.01391-.06737.11542-.52293.14107-.64769.06128-.26625.13995-.594.22973-.93524.1704-.6066.34862-.81026,1.07368-.9787.56859-.13258,1.6138-.26538,2.11956-.33668a6.39812,6.39812,0,0,1,2.34756-.01368Zm5.04-4.71707h0c-.06173,0-.96263-.12258-1.4384-.18561-.55076-.08129-1.2343-.15845-1.84961-.29146a1.02146,1.02146,0,0,1-.75158-.53337,6.84629,6.84629,0,0,1-.33471-.98609c-.04413-.13845-.14584-.53076-.17062-.626-.02934-.10868-.09086-.1328-.14606-.1328-.05587,0-.11562.018-.15106.1328-.028.09911-.12648.4399-.17625.61487a7.44285,7.44285,0,0,1-.33669,1.00175,1.03516,1.03516,0,0,1-.85959.54487c-.42775.0713-1.30169.1941-2.17541.30755a9.9036,9.9036,0,0,1-3.41.02305c-.49055-.05152-1.78679-.21757-2.2143-.27626-1.56664-.18517-4.17-.45055-5.75359-.73006a2.35065,2.35065,0,0,1-2.125-1.56489,19.99077,19.99077,0,0,1-.71593-2.22823c-.15823-.55337-.33625-1.30864-.39557-1.561C23.52325,2.34169,23.47369,2.3,23.39414,2.3c-.07042,0-.11934.03848-.15606.16259-.065.24776-.27081,1.03391-.42207,1.55728a20.75206,20.75206,0,0,1-.7053,2.23192,2.35628,2.35628,0,0,1-2.09978,1.571c-1.604.30493-3.55881.54532-5.37062.74093-.89046.095-3.46863.37776-3.57578.3897a.1452.1452,0,1,0,0,.29038c.10715.01522,2.75531.293,3.58622.38318,1.87742.20257,3.61664.42057,5.28129.70963a2.53243,2.53243,0,0,1,2.29973,2.12912c.24168.81026.56662,2.22932.67921,2.78334.11107.48663.3032,1.50512.3271,1.59336.0237.11084.07346.15605.15236.15605.0713,0,.12888-.03934.15846-.15605.02042-.09716.216-1.14345.31514-1.59727.12129-.54273.453-2.02394.68246-2.79137.40949-1.3506.81-1.822,2.2428-2.07132,1.441-.25755,4.14718-.57726,5.76358-.77006.406-.05,1.33907-.12953,2.20431-.2345A10.25744,10.25744,0,0,1,38.175,9.41c.8559.1026,1.44253.185,2.13193.30148a.95923.95923,0,0,1,.929.73027c.1367.383.24189.80223.31319,1.08954.06346.25213.14583.661.166.74812a.14233.14233,0,0,0,.13911.125.16088.16088,0,0,0,.15126-.125c.023-.10692.1-.496.16171-.74812.06108-.25754.20778-.77852.31473-1.08954a.98355.98355,0,0,1,.81744-.71529c.45859-.09954,1.25277-.206,1.82788-.291.44012-.06194,1.36254-.17844,1.42991-.18822a.14253.14253,0,0,0,.1428-.15061A.14686.14686,0,0,0,46.55713,8.95335Z"/></svg>