<svg id="Layer_1" data-name="Layer 1" xmlns="http://www.w3.org/2000/svg" viewBox="0 0 35.94843 46.78718"><defs><style>.cls-1{fill-rule:evenodd;}</style></defs><title>1ca</title><path class="cls-1" d="M13.31009,17.69648c0-.061-.03388-.10158-.11965-.14227l-.41328-.192a.40493.40493,0,0,1-.262-.40867.46818.46818,0,0,1,.49454-.49907.48936.48936,0,0,1,.5284.53069H13.2672c-.02714-.1807-.10166-.25521-.25292-.25521-.13547,0-.23259.079-.23259.1897a.14176.14176,0,0,0,.09485.1242l.42455.19643a.39582.39582,0,0,1,.27548.4133.51548.51548,0,0,1-.16935.39293.48631.48631,0,0,1-.35907.11741.50933.50933,0,0,1-.47871-.23714.58373.58373,0,0,1-.07905-.30937h.26642c.03388.192.122.271.30035.271C13.20624,17.88845,13.31009,17.8094,13.31009,17.69648Zm9.61293.43583h.27774v-1.3481h.39976v-.29809H22.51427v.29809H22.923Zm-7.42746.03163c.43356,0,.54421-.28677.54421-.66171V16.48612H15.762v1.0094c0,.271-.07224.37031-.27093.37031-.1875,0-.26194-.10384-.26194-.37031v-1.0094h-.27782v1.01611C14.95134,17.88165,15.06426,18.16394,15.49556,18.16394Zm1.09922-.03163h.27773v-1.3481h.39968v-.29809H16.186v.29809h.40875Zm4.96254,0h-.27773V16.48612h.5939c.19192,0,.26422.02034.34553.09485a.5079.5079,0,0,1,.13994.37933.386.386,0,0,1-.19191.38166c.13093.07.14675.11512.15809.43356.009.26647.01579.30717.0587.35679h-.30709a.70555.70555,0,0,1-.03389-.25967c-.00681-.24167.02708-.39066-.23033-.39066h-.25521Zm0-.92817h.26422c.1897,0,.25066-.05188.25066-.21224s-.05869-.20769-.25066-.20769h-.26422Zm-7.4753.92817h.27781v-1.3481h.39967v-.29809H13.67327v.29809H14.082Zm4.99211.03163a.4544.4544,0,0,0,.40415-.2394l.02707.20777h.192v-.892h-.56v.28237h.30491c-.03618.22124-.15137.34316-.32518.34316-.22812,0-.37714-.219-.37714-.55548,0-.34325.14455-.55776.37714-.55776.15128,0,.24158.079.29575.2574h.28455a.56428.56428,0,0,0-.58256-.5555c-.39969,0-.66171.34553-.66171.8694C18.45306,17.81623,18.71053,18.16394,19.07413,18.16394Zm-1.26-.03163h.27776v-1.3481h.39968v-.29809H17.4054v.29809h.40873Zm3.98749,6.8758a1.31472,1.31472,0,0,1,.0226.88066c-.11292.48545-.48551.67743-.55321.99351s.28228.80164.38388.98226.14673.36131-.06778.48551a1.99117,1.99117,0,0,0-.57578.75646,1.83849,1.83849,0,0,1-.74518.6549c-.23714.1015-.15809.18063-.16937.34991s-.27093.29361-.38385.29361-.18064.12414-.20318-.12426a.9012.9012,0,0,1,.18063-.62092A2.99971,2.99971,0,0,1,20.3,29.15168a1.17943,1.17943,0,0,0,.38387-.56456,4.46212,4.46212,0,0,1,.29353-.39514,1.45784,1.45784,0,0,1-.10156-.22578,1.82511,1.82511,0,0,0-1.02749-.54195.63584.63584,0,0,0-.09031.49678.26858.26858,0,0,1-.20316.33872,1.85873,1.85873,0,0,0-.98226.51934,1.22826,1.22826,0,0,1-.76773.37259c-.1242.03389-.10166.22578-.1242.3161s-.11294.2484-.44036.2484-.12421-.33872-.03389-.53061.18069-.192.32744-.33871a1.13915,1.13915,0,0,1,.58711-.29363,3.08224,3.08224,0,0,0,.84678-.59831.60481.60481,0,0,0,.04515-.79035,4.48215,4.48215,0,0,1-.59838-.90327,4.904,4.904,0,0,1-2.23551-.55315c-.31608.3499-1.35483.06768-1.58063-.01134-.28228-.05643-.40646.04515-.45163.21451a.74025.74025,0,0,0,.079.53067.89845.89845,0,0,1,.1242.54195.42565.42565,0,0,0,.27093.39515c.2258.02262.15809.24839.13548.47417s-.29355.11294-.40641.01128l-.28221-.39515a.85522.85522,0,0,1-.271-.81289,2.83819,2.83819,0,0,0-.07906-.9258c-.0903-.53069.07906-.5645.29357-.60967a4.07449,4.07449,0,0,0,.79027-.28227c-.429-.18064-.64346-.779-.76766-1.05a.25847.25847,0,0,0-.42908-.1016,3.49081,3.49081,0,0,0-.32744.36127c-.06771.10164-.03383.18069-.05643.28229s-.20326.30482-.25969.47417a3.32858,3.32858,0,0,1-.06777.58711.35518.35518,0,0,1-.44028.13547c-.1807-.079,0-.4968.01128-.56449.06777-.24841.192-.31618.192-.47419,0-.45163.158-.36132.25967-.59837a5.91236,5.91236,0,0,1,.58711-.8806.34444.34444,0,0,1,.51934-.02261,3.05562,3.05562,0,0,0,.7452.36125.68814.68814,0,0,0,.18063-.39514,1.351,1.351,0,0,1,.31608-.68869c.14681-.1242.463-.54195.59847-.67742.06768-.1242.2145-.23712.05641-.429s-.30482-.01136-.50807.15807-.33869.04509-.32744-.01134.01128-.079-.05642-.18063-.16935.02254-.29355-.15807a.26657.26657,0,0,1,.06769-.30482c.10166-.12421.15809-.20326.23714-.28229s.40647-.25967.59838-.45157c.06777-.04515.192-.04515.21458-.09032s-.03389-.16942-.02261-.28228.38386-.20323.5306-.21451a.34182.34182,0,0,1,.192-.41775c.13546-.079.22576,0,.20322.079s-.02261.20324.05643.24839a.348.348,0,0,1,.14675.19189.15587.15587,0,0,0,.04071.15083c.03588-.04818.07172-.09522.10693-.13994a.18856.18856,0,0,1,.08948-.27056.35473.35473,0,0,1,.44036.1016c.11294.1242.55316-.04516.6661-.04516a.08138.08138,0,0,1,.05642.14682c-.04508.03388-.0677.10156.01135.18062s.33871-.03389.56449-.04517.192.15809.06777.192c-.29355.11286-.28229.21452-.22586.39514s.21458.14674.4968.13548.22578.18062.10165.22578a.418.418,0,0,0-.24839.29356c0,.0903.28228.15807.4741.21452.192.05649.20325.19195.09039.24838a.16658.16658,0,0,0-.11292.20324c.01126.09032,0,.20326-.16929.21451a.36023.36023,0,0,0-.3049.22579c-.01126.06777.09032.13553.271.20324a.16248.16248,0,0,1,.01127.30484c-.10157.0226-.192-.05643-.28228.15807s-.19189.23712-.29355.23712a.24344.24344,0,0,0-.24841.13547.3967.3967,0,0,1-.22576.20318c-.14356.0718-.3161.192-.03389.429a4.47631,4.47631,0,0,0,1.829.50807,2.35421,2.35421,0,0,1,1.08384.25973c.16943.11286.3726.35.59845.1242s-.079-.5194-.28228-.7452a.8098.8098,0,0,1-.30483-.858c.02254-.15807-.09032-.38385-.06777-.50805a.54881.54881,0,0,1,.271-.36135.74031.74031,0,0,0,.25967-.28219c.21451-.36127.46292-.30484.79036-.36127s.29348-.05649.41768-.36132.30482-.31616.35-.24839,0,.24839-.04522.33872a.41945.41945,0,0,1-.02255.38385c-.09031.20326-.67742.39515-.79027.429s-.02262.15807.05643.10156c.50806-.37251.60964.03389.62092.15809.32743-.01126.31616.2258.28227.41776a.62043.62043,0,0,1-.23712.64354c-.11292.10165.05651.23706.2145.25967a.62692.62692,0,0,0,.0904.49679c.09031.13548-.02262.429-.1807.56449a.8753.8753,0,0,1,0,.54195c-.06769.158-.6322.18064-.88058.06771S21.99359,24.95169,21.80162,25.00811Zm-4.67411-5.521a.1786.1786,0,0,1-.00988-.01553l.00017.15041A.08611.08611,0,0,0,17.12751,19.48714Zm3.0167-1.35483h-.29128l.481-1.64619h.3139l.47651,1.64619h-.30262l-.09258-.34551h-.49007Zm.17162-.62779h.3388l-.16937-.64128ZM4.41018,14.0504a.6211.6211,0,0,0,.46725.211c.34395,0,.74519-.26136.7678-.96139a12.50687,12.50687,0,0,1,6.05157-2.12259,4.21238,4.21238,0,0,1,2.4839.94837c.13546.11292.2484.11292.22578-.06771-.11286-.72257-1.08383-1.37744-1.42262-1.55807a2.83232,2.83232,0,0,1,.79035-1.08383c.09031-.09031.15808-.20325,0-.20325A2.72946,2.72946,0,0,0,11.9678,10.229a4.98334,4.98334,0,0,0-1.01614-.02255,2.73856,2.73856,0,0,1,.971-1.7387c.0677-.06777.13547-.18063-.02262-.18063C10.6355,8.4,9.93555,10.04841,9.84515,10.38711c-.11286.02262-.83543.13548-1.06122.20325A3.40558,3.40558,0,0,1,10.071,8.26454c.13547-.09031.18063-.22579,0-.22579-1.67095.04517-2.41613,2.4613-2.4839,2.98071a14.15417,14.15417,0,0,0-1.30968.6322A4.01607,4.01607,0,0,1,7.67749,8.33231c.09025-.0903.15809-.24839-.04515-.20323C5.71292,8.4,5.21613,11.71943,5.18225,12.092c-.04509.35-.36125.21451-.43768.17623a.6228.6228,0,0,0-.94141.53509.509.509,0,0,0,.02332.15269.67427.67427,0,0,0-.40726.59243.62274.62274,0,0,0,.62277.62269A.582.582,0,0,0,4.41018,14.0504ZM26.284,36.18238c.07224-.30349.53741-.45073.63681-.495.07464-.03332.10115-.13009,0-.13009a1.74635,1.74635,0,0,0-1.40008.40641,3.98149,3.98149,0,0,0-.74065-.05055c.08131-.37117.682-.71,1.00534-.98182-.047.03949.08671-.11561-.01444-.11561a2.191,2.191,0,0,0-1.708,1.14981c-.07225.01447-.79212.15895-.93667.20233.13186-.85173,1.18867-1.40815,1.27539-1.46591s.11554-.14455,0-.14455a3.05541,3.05541,0,0,0-2.26267,1.876,7.49459,7.49459,0,0,0-.75689.30532,2.572,2.572,0,0,1,.96374-1.84447c.05785-.05779.10116-.15888-.02892-.13-1.22831.1734-1.7224,1.96364-1.74409,2.2021-.02893.224-.3035.24565-.3524.22119a.39859.39859,0,0,0-.60257.34239.32334.32334,0,0,0,.015.09776.33556.33556,0,0,0-.20643.343.36922.36922,0,0,0,.36232.39854c.09139,0,.15044.0105.21763-.04112a.39762.39762,0,0,0,.2991.135c.22,0,.33231-.0589.34678-.50691A11.249,11.249,0,0,1,25.266,36.70171a3.543,3.543,0,0,1,2.04582.9412c.08676.07223.159.07223.14453-.04338A2.085,2.085,0,0,0,26.284,36.18238Zm-2.42315,3.48089a.579.579,0,0,1,.30007-.36112c.05112-.02281.06919-.089,0-.089a.85364.85364,0,0,0-.82211.33445,1.84316,1.84316,0,0,0-.405-.00071,1.72581,1.72581,0,0,1,.5747-.7393c-.032.027.05934-.079-.00985-.079-.60675-.013-1.20783.79623-1.24731.94453a4.17362,4.17362,0,0,0-.50522.13838,1.73083,1.73083,0,0,1,.49975-.9914c.05935-.03955.07911-.09889,0-.09889-.83153.02779-1.11147,1.07845-1.14111,1.30579a3.29635,3.29635,0,0,0-.41611.175,1.86989,1.86989,0,0,1,.32048-1.27292c.03957-.03947.06919-.10866-.01978-.089-.75709.13418-.83947,1.3883-.85429,1.55141-.01969.15321-.20755.16807-.241.15128a.27257.27257,0,0,0-.41208.23423.222.222,0,0,0,.0102.06684.2296.2296,0,0,0-.14121.23465.25256.25256,0,0,0,.24782.27257c.06246,0,.10294.00723.14887-.02814a.27185.27185,0,0,0,.2046.09243c.1505,0,.295-.06294.305-.36933a6.39263,6.39263,0,0,1,3.0316-.95977,2.62421,2.62421,0,0,1,1.35414.45185c.05933.04941.10875.04941.09883-.02964C24.69236,40.192,24.44361,39.94519,23.86082,39.66327ZM35.94843,2.43877,33.96138,28.63234c-.36131,7.4968-7.40655,13.729-15.9871,18.15484C9.39359,42.36132,2.34843,36.12914,1.98711,28.63234L0,2.43877C7.31616.76782,11.742,0,17.97428,0S28.63233.76782,35.94843,2.43877Zm-33.524,22.363L11.2,24.79991l-.0007-3.04549a2.39564,2.39564,0,0,0-1.75211-.50481,5.8903,5.8903,0,0,0-3.66137,1.98031c-.01525.47247-.28612.64892-.51829.64892a.41939.41939,0,0,1-.31538-.14242.39321.39321,0,0,1-.24854.08146.42031.42031,0,0,1-.4203-.42032.45522.45522,0,0,1,.27484-.39987.34193.34193,0,0,1-.01574-.10309.42036.42036,0,0,1,.63545-.36117c.05161.02587.21983.13986.25031-.09635.0229-.25152-.00879-2.61122,1.2529-2.9685.13724-.03048.09145.07622.03049.13718a3.92963,3.92963,0,0,0-.54422,2.24053,5.7676,5.7676,0,0,1,.6809-.41548c.061-.2591.49785-2.2231,1.54106-2.24337.12194,0,.09152.09144,0,.15241A2.47873,2.47873,0,0,0,7.752,20.8985c.15241-.04573.53286-.11066.60907-.12591.061-.22861.5109-1.54453,1.3644-1.62075.10677,0,.061.1101.01525.15582a3.17821,3.17821,0,0,0-.58767,1.28651,2.63568,2.63568,0,0,1,.61255.02657,4.94634,4.94634,0,0,1,1.43418-1.17157l.002-2.67547c-.11873-.10768-.30433-.22257-.87336-.22428a8.61356,8.61356,0,0,0-4.43024,1.70709c-.02035.63-.38146.86528-.691.86528a.55945.55945,0,0,1-.42052-.18991.5243.5243,0,0,1-.33141.1086.56043.56043,0,0,1-.56046-.56038.60693.60693,0,0,1,.36658-.53323.45659.45659,0,0,1-.02105-.13747.56058.56058,0,0,1,.84734-.48154c.06876.03453.35324.15645.39393-.15858.03048-.33531.54528-3.14212,2.27272-3.386.1829-.04061.12193.10166.04062.18289A3.70289,3.70289,0,0,0,6.46713,16.773a10.86805,10.86805,0,0,1,1.08835-.52387c.08133-.34551.84458-2.45229,2.23552-2.47937.16254,0,.12192.12193,0,.20324a2.65465,2.65465,0,0,0-1.09064,1.9577c.20323-.061.831-.20771.93255-.22806a2.28809,2.28809,0,0,1,1.759-1.619c.14229,0,.08131.14675.02035.20771a2.06036,2.06036,0,0,0-.78362,1.29388,2.65206,2.65206,0,0,1,.57485.07549L11.2,14.90329h6.413v-8.892A63.06605,63.06605,0,0,0,1.16727,8.35378Zm15.18839,9.94461V32.64348a6.58487,6.58487,0,0,1-5.24017-2.87421l-9.5628.01056a13.85888,13.85888,0,0,0,1.86582,4.96831ZM17.613,45.73717l-.00008-5.91-8.62641.01963A42.87365,42.87365,0,0,0,17.613,45.73717Zm.36132-13.8081a6.1217,6.1217,0,0,0,6.05157-6.00641V15.62586H11.92265v10.2968A6.1217,6.1217,0,0,0,17.97428,31.92907ZM33.47,25.472l-8.72157.02685v.87535a6.66043,6.66043,0,0,1-2.61391,4.9162l-.10166.21a2.16745,2.16745,0,0,0-.14312,1.34882,6.28672,6.28672,0,0,1,.77674-.32517c.05423-.4155,1.16748-2.37892,2.68714-2.42975.14448,0,.1084.10839,0,.1807a3.1917,3.1917,0,0,0-1.4813,1.86063c.18062-.05423,1.27806-.23485,1.36837-.25292a2.27933,2.27933,0,0,1,1.71163-1.409c.12648,0-.04062.19382.01809.14448a2.04559,2.04559,0,0,0-.77681,1.1426,4.96706,4.96706,0,0,1,.92581.06324,2.067,2.067,0,0,1,1.69354-.45166c.12648,0,.09337.121,0,.16264-.12418.05536-.79025.12646-.88057.50578a2.73616,2.73616,0,0,1,1.63479,2.1949c.01807.14447-.07224.14447-.18063.05415a4.07987,4.07987,0,0,0-2.52907-1.57161,14.8064,14.8064,0,0,0-5.88,1.65292c-.01807.56-.15843.63361-.43355.63361a.49706.49706,0,0,1-.3738-.16878c-.084.06451-.15787.05138-.272.05138a.46157.46157,0,0,1-.453-.49812.41953.41953,0,0,1,.25805-.42882.40543.40543,0,0,1-.01871-.12222.49833.49833,0,0,1,.75319-.428c.06112.03064.40437.00356.44052-.27647a3.25044,3.25044,0,0,1,.21246-1.01726l.01906-.181a6.78452,6.78452,0,0,1-2.774.708l-.00013,13.105c6.32256-3.34189,13.729-8.89674,14.81288-16.03227Zm.41747-5.69784-9.139.02566-.01558,4.97321,8.76365.02686Zm.75936-9.99558L18.33555,9.68589V14.742h6.41287v.219l9.50567.00043Zm.2009-2.2275.333-4.48007A72.83417,72.83417,0,0,0,17.97428.72267,72.83447,72.83447,0,0,0,.7678,3.071l.333,4.48007a64.45419,64.45419,0,0,1,16.8735-2.31233A64.4545,64.4545,0,0,1,34.84772,7.5511ZM5.66777,3.62425c.02261.72257-.11292,1.02739-.621,1.14033l-2.69835.60965L2.45,6.61622l-.779.18062L1.44523,3.65813,4.663,2.93556C5.06938,2.84524,5.64523,2.90167,5.66777,3.62425Zm-.9032.2258c-.00872-.07857-.09032-.19192-.3161-.14677s-2.16781.48547-2.16781.48547l.02262.46289,2.24677-.49679A.267.267,0,0,0,4.76457,3.85005Zm5.84838.41774c.01128.31616-.01126.73385-.85811.85812L7.33871,5.5097c-.429.079-1.129.01134-1.1516-.80155L6.15329,3.28553c0-.29354-.01127-.72256.79028-.84676l2.608-.429c.31617-.05643,1.02747.15809,1.02747.74512Zm-.80161-.24841-.02262-.92575a.37531.37531,0,0,0-.44028-.33878l-1.99839.33878c-.41774.079-.40648.30484-.40648.54188l.02262.8468c.02253.35.20316.3387.47417.29353l1.97577-.31609A.4305.4305,0,0,0,9.81134,4.01938Zm5.69314.0507-.001.52167-.78029.03764.00045-.45838c-.001-.45638-.25125-.74206-.67566-.71257l-2.15576.14035.02128,1.24667-.77659.03665L11.05162,1.765l3.23653-.21563c.59252-.04772,1.1132.07322,1.112.88555a1.36028,1.36028,0,0,1-.20856.67841A1.24173,1.24173,0,0,1,15.50448,4.07008ZM14.46653,2.522c-.00766-.1651-.0826-.23-.26387-.23478l-2.34176.12315.01.49529L14.183,2.7764C14.34324,2.764,14.47425,2.68716,14.46653,2.522Zm5.17863.17644-2.48385.00044a.27141.27141,0,1,1,0-.54281h3.18388v-.677H16.78872c-.18061,0-.79028.03955-.7846.9597s.64914.93709.7846.93709L19.284,3.37542a.27139.27139,0,0,1,.27135.27143.25305.25305,0,0,1-.27135.24884H16.1v.67692h3.54513c.22585,0,.81856.03388.81856-.9427S19.79763,2.69842,19.64516,2.69842Zm9.5742.94843-2.61929-.49679.06769-1.1742L25.92264,1.863l-.192,3.20641.74519.10165.09031-1.37746,2.61937.49679L29.09516,5.6l.74521.13554.192-3.19521-.73386-.13548Zm1.321,2.19029,3.53394.75646.05649-.64354-2.80008-.59837.03389-.64354,2.81134.59839.04515-.64356-2.81133-.59843.02261-.587,2.83388.59839.04515-.64354L30.721,2.67589ZM21.06776,2.42749c-.04515.92581-.06769,1.34357-.06769,1.34357a.84474.84474,0,0,0,.779.89192l3.2968.24833.03388-.7-2.75483-.20324c-.25967-.01127-.542-.0903-.51942-.56449l.02261-.67744c.01128-.271.10159-.51932.53069-.48551l2.82253.22578.03389-.7-3.30806-.25967C21.65489,1.5242,21.113,1.50167,21.06776,2.42749Z"/></svg>