<svg id="Layer_1" data-name="Layer 1" xmlns="http://www.w3.org/2000/svg" viewBox="0 0 49.40344 40.09533"><defs><style>.cls-1{fill-rule:evenodd;}</style></defs><title>1ca</title><path class="cls-1" d="M49.31575,11.72491c-.16948-2.85384-.59211-5.9681-2.70721-8.07954-1.92919-1.92567-4.71288-2.46581-7.30435-2.812A110.09989,110.09989,0,0,0,24.70178.00177V0c-.477,0-1.48229.0016-2.80987.02771a101.35111,101.35111,0,0,0-11.793.80571,17.94869,17.94869,0,0,0-4.9013,1.20129q-.13.05032-.25426.10222C1.39494,3.62544.57031,7.41526.3806,8.925a26.72974,26.72974,0,0,0-.2928,2.79991,81.56821,81.56821,0,0,0,.17629,9.9095,53.846,53.846,0,0,0,1.365,9.69543A13.17331,13.17331,0,0,0,3.347,35.53362a7.81881,7.81881,0,0,0,3.3188,2.67252c2.80645,1.28253,6.045,1.39185,9.07563,1.57951,2.97266.18394,5.96584.29512,8.96034.30968,2.99495-.01456,5.9872-.12574,8.96032-.30968,3.03059-.18766,6.26873-.297,9.07517-1.57951a7.81724,7.81724,0,0,0,3.31926-2.67252,13.1834,13.1834,0,0,0,1.71794-4.20378A53.84435,53.84435,0,0,0,49.139,21.63441,81.56836,81.56836,0,0,0,49.31575,11.72491ZM6.387,34.71747c-1.89823-2.044-2.14875-5.49536-2.51263-8.13149a78.55274,78.55274,0,0,1-.66131-11.59739C3.24768,11.9663,3.025,8.1315,4.93967,5.57913c1.01156-1.34986,2.6962-1.79806,4.23056-2.2426a.48665.48665,0,0,1,.42733.24183c-.01254.50955-.1069,5.35859.55988,13.92349l.01333.17074q.06624.8426.14241,1.73185.01644.19167.03345.38583c.0179.205.03612.4111.05487.61972q.02827.315.0578.635.01844.19947.03743.4012.03642.38795.07471.78338l.01256.1317.04254.43587.02422.249c.32094,4.13332.71335,8.25889,1.23718,12.37718.04354.41371.07372.69369.09373.87653C11.94913,38.28739,7.03669,35.41982,6.387,34.71747Zm25.47867,2.70535H17.538a.23962.23962,0,0,1-.06044-.27329c.09151-.33887,1.45509-4.73481,1.45509-4.73481.895-2.92212.95737-3.11426,3.25509-3.56431a12.65166,12.65166,0,0,1,5.02807,0c2.29725.45005,2.36013.64219,3.25463,3.56431,0,0,1.36451,4.39594,1.45461,4.73481A.239.239,0,0,1,31.86568,37.42282ZM35.00885,4.74846c-.88072,3.31885-1.8444,7.25448-2.73337,10.48894a25.74335,25.74335,0,0,1-2.36617,6.14292l-.00163.00241a4.7583,4.7583,0,0,1-2.84111,1.94,16.36458,16.36458,0,0,1-2.36479.1162A16.38889,16.38889,0,0,1,22.3389,23.323a4.74776,4.74776,0,0,1-2.82152-1.91047l-.02173-.03224a25.96245,25.96245,0,0,1-2.38493-6.20666c-.88195-3.21451-1.836-7.10857-2.70939-10.40078-.19824-.78171-.35969-1.41969-.45321-1.78969A.22518.22518,0,0,1,14.127,2.7558c.07214-.01808.17006-.038.30768-.06073.23422-.02893.562-.05313,1.01025-.1136.10533-.01416.21573-.02713.32539-.04027.577-.04737,1.33734-.09274,2.34348-.1265,3.80475-.12564,6.44592-.14934,6.588-.15121.14205.00187,2.78368.02557,6.58845.15121,1.00444.03372,1.76429.079,2.34123.12633.11012.0132.221.02622.32671.04044.45008.06069.77871.08486,1.0132.11393.13638.02251.2335.04238.30512.06032a.22517.22517,0,0,1,.17907.227C35.36323,3.34888,35.20429,3.97738,35.00885,4.74846ZM45.52916,26.586c-.36433,2.63613-.61487,6.08748-2.51309,8.13149-.66682.7214-5.83331,3.72912-5.58827,1.41191.94822-7.23979,1.472-14.50224,1.92192-21.78933.13207-3.05784.307-6.12115.34885-9.18084.04468-.51646-.27684-1.78892.53474-1.82268,1.5339.44454,3.219.89274,4.23009,2.2426,1.91476,2.55237,1.69248,6.38811,1.72708,9.40946A78.36225,78.36225,0,0,1,45.52916,26.586Z"/></svg>