<svg id="Layer_1" data-name="Layer 1" xmlns="http://www.w3.org/2000/svg" viewBox="0 0 42.5 42.50002"><defs><style>.cls-1{fill-rule:evenodd;}</style></defs><title>1ca</title><path class="cls-1" d="M5.3277,21.25873A15.89864,15.89864,0,0,0,13.61533,35.2048l-7.38221-19.239A15.64672,15.64672,0,0,0,5.3277,21.25873Z"/><path class="cls-1" d="M25.33291,5.85007a16.07254,16.07254,0,0,0-8.06132-.01743L21.311,16.9756Z"/><path class="cls-1" d="M21.25872,0A21.25,21.25,0,1,0,42.5,21.25873,21.29988,21.29988,0,0,0,21.25872,0Zm0,39.78391A18.54262,18.54262,0,1,1,39.80133,21.25873,18.57655,18.57655,0,0,1,21.25872,39.78391Z"/><path class="cls-1" d="M21.1194,25.61147l-4.109,10.65541-.01737.33081a15.67,15.67,0,0,0,4.2657.57461,16.11308,16.11308,0,0,0,4.022-.50491l-.05226-.40051Z"/><path class="cls-1" d="M36.16246,15.61758,28.58875,35.37892a15.98675,15.98675,0,0,0,7.57371-19.76134Z"/><path class="cls-1" d="M29.26772,7.48672,24.60161,20.336H18.02026L13.33678,7.43447a16.134,16.134,0,0,0-4.492,3.84775l6.651,17.2543,2.4375-6.30276H24.323l2.43755,6.30276,6.72061-17.46324A16.0157,16.0157,0,0,0,29.26772,7.48672Z"/></svg>