<svg id="Layer_1" data-name="Layer 1" xmlns="http://www.w3.org/2000/svg" viewBox="0 0 42.5 36.23488"><defs><style>.cls-1{fill:#1a1617;fill-rule:evenodd;}</style></defs><title>1ca</title><path class="cls-1" d="M42.43393,14.92294c-.023-1.3453-1.05431-1.37112-1.05431-1.37112q-.9099-.14115-1.84338-.26436A18.85139,18.85139,0,0,0,21.25989,0,18.86194,18.86194,0,0,0,3.0378,13.10632c-.50357.09815-.96587.19318-1.441.29333C.25715,13.6429.16658,14.58664.16658,14.64744a34.50385,34.50385,0,0,0,0,6.63555A1.2858,1.2858,0,0,0,1.5052,22.65291c.44273.0954.939.18324,1.46968.265a18.849,18.849,0,0,0,18.285,13.31695A18.85312,18.85312,0,0,0,39.52025,23c1.14214-.14549,1.77706-.24771,1.77706-.24771,1.07869-.09306,1.10177-1.3807,1.10177-1.3922C42.59647,19.48127,42.44548,14.92294,42.43393,14.92294ZM21.25989,4.42046a14.36662,14.36662,0,0,1,13.18927,8.32189A209.73927,209.73927,0,0,0,8.18987,12.4907,14.38071,14.38071,0,0,1,21.25989,4.42046Zm9.55076,15.659H29.35651l-.43628-.80581h-2.3265l-.36343.80581H24.77618l2.03576-4.54235h1.81755Zm-9.88782-1.685a1.21793,1.21793,0,0,1-1.0179-1.17231v-.21982a1.44381,1.44381,0,0,1,1.16331-1.46526H24.3399v1.17224H21.359v.65944h2.472a1.30378,1.30378,0,0,1,.87245,1.17219v.21982a1.363,1.363,0,0,1-.79973,1.31866H19.97774V18.98057h3.417v-.58611Zm-5.23468,0a1.21792,1.21792,0,0,1-1.01788-1.17231v-.21982a1.44381,1.44381,0,0,1,1.16324-1.46526h3.27166v1.17224H16.12439v.65944h2.47192a1.3038,1.3038,0,0,1,.8725,1.17219v.21982a1.36317,1.36317,0,0,1-.79974,1.31866H14.743V18.98057h3.41712v-.58611Zm-1.89033-2.85739v4.54235h-1.5995V15.53707Zm-6.398,1.5386v3.00375H6.01845V15.53707H8.345l1.67226,3.22369V15.53707h1.16326v4.54235H9.07206Zm13.86006,14.739A14.365,14.365,0,0,1,8.05683,23.46291c6.21769.46742,13.38551.49885,13.38551.49885,5.04409.08179,9.55-.15281,12.99109-.43645A14.3683,14.3683,0,0,1,21.25989,31.81469ZM36.48155,20.07942H34.30037l-1.74484-3.07709v3.07709H31.17411V15.53707h2.39921L35.1001,18.6875V15.53707h1.38145Z"/><polygon class="cls-1" points="27.757 16.783 27.103 18.101 28.411 18.101 27.757 16.783"/></svg>