<svg id="Layer_1" data-name="Layer 1" xmlns="http://www.w3.org/2000/svg" viewBox="0 0 92.42987 13.53102"><title>1ca</title><g id="w21Gc0.tif"><path d="M70.542.15156l1.82537,12.96227c-.54122,0-1.03239.01328-1.52136-.01367-.07736-.00426-.19231-.18257-.20956-.293-.24883-1.59172-.4837-3.18562-.72237-4.77893q-.17767-1.18612-.35825-2.37181a2.85528,2.85528,0,0,0-.09905-.31035l-4.515,8.18492L60.45092,5.4234,60.337,5.434c-.37576,2.54686-.75152,5.09372-1.12975,7.65724H57.52451c.6094-4.33426,1.21406-8.63467,1.8187-12.93509l.108-.03222c1.8159,3.28042,3.63179,6.56085,5.49424,9.92535C66.80349,6.69142,68.616,3.41575,70.4286.14009ZM45.1874,7.53226a10.21572,10.21572,0,0,0,1.796-.59064A3.254,3.254,0,0,0,48.64423,3.6061,2.93249,2.93249,0,0,0,46.56371.817,7.893,7.893,0,0,0,44.32363.42035C42.73693.36159,41.14655.40156,39.55769.402c-.48483.00015-.486.00165-.48609.4822q-.00055,5.561.0017,11.1221c.0003.3502-.10479.84661.0776,1.01188.20724.18779.68256.09043,1.04173.09725.49777.00945.49873.00155.49877-.49468.0003-3.4249.0041-6.84981-.006-10.27468-.001-.321.08971-.42906.41622-.42373,1.07074.0175,2.14277-.01759,3.21257.01862a5.9312,5.9312,0,0,1,1.486.24487,1.50119,1.50119,0,0,1,1.06709,1.24841,1.97992,1.97992,0,0,1-1.74577,2.50519c-1.02288.12112-2.06557.07478-3.09942.10387-.15816.00445-.31615.01449-.55591.0258.14975.19116.24484.32037.34786.44291,1.71908,2.04487,3.44826,4.08137,5.15028,6.14033a1.11216,1.11216,0,0,0,1.04425.47374c.43467-.03684.8749-.00795,1.3127-.00795l.02921-.097c-1.49238-1.79-2.98476-3.58-4.51977-5.42114C45.01048,7.56662,45.102,7.55907,45.1874,7.53226ZM86.28832,0c-2.09376,4.41513-4.141,8.73228-6.22091,13.11812.44918,0,.82379-.0272,1.19259.00738a.67337.67337,0,0,0,.76995-.47338c1.324-2.84721,2.67344-5.68262,4.01637-8.521.062-.13115.13748-.256.24981-.46342.23681.5046.43671.92605.6328,1.34925Q88.72359,8.89,90.52169,12.76145c.06256.1342.18973.32826.29792.33584.50883.03565,1.02152.01587,1.61026.01587ZM17.92568,13.11813c.45972,0,.8369-.02694,1.20841.00744a.65169.65169,0,0,0,.74472-.458c1.32584-2.84771,2.6755-5.68431,4.01884-8.52386.06313-.13345.13552-.2625.23844-.46071.09557.17575.16125.28237.21368.39514q.74406,1.6,1.48422,3.20179,1.27554,2.754,2.55571,5.50587c.05838.12484.17813.30566.27858.31192.511.03181,1.025.01467,1.61921.01467C28.23428,8.72859,26.21307,4.41308,24.14615,0,22.049,4.42263,20.00245,8.73848,17.92568,13.11813ZM4.46449,6.91134c-.232-.22418-.24007-.35451-.00931-.58683Q7.16721,3.59418,9.85709.84187c.11108-.113.21625-.23181.32418-.34791L10.14973.40284c-.52465,0-1.05052-.02042-1.57332.01084a.9079.9079,0,0,0-.54668.2324Q5.18934,3.49773,2.37316,6.37345c-.07231.07345-.13449.15688-.21182.24794.08357.0921.14948.173.22376.24539q3.11052,3.03034,6.22361,6.05805c.06617.06435.146.16091.22113.16248.62559.01313,1.25158.00745,1.87745.00745l.08594-.14124a3.00543,3.00543,0,0,1-.4051-.28333C8.41251,10.75166,6.44488,8.82491,4.46449,6.91134ZM.48861.40194C.00513.40322.00345.40376.00339.88447Q.00264,6.75912.00308,12.63379c0,.0588.0055.11807,0,.17633-.02115.22288.06614.32287.30084.31057.26975-.01414.54083-.00216.81133-.00275.4605-.001.462-.00139.46206-.459q.00063-5.91.00026-11.81989V.40176C1.18731.40176.838.401.48861.40194Z"/></g></svg>