<svg id="Layer_1" data-name="Layer 1" xmlns="http://www.w3.org/2000/svg" viewBox="0 0 62.27902 31.25297"><defs><style>.cls-1{fill-rule:evenodd;}</style></defs><title>1ca</title><path d="M31.13964,0C13.94172,0,0,6.99622,0,15.62643S13.94172,31.253,31.13964,31.253,62.279,24.25668,62.279,15.62643,48.33756,0,31.13964,0Zm-.00057,29.28486c-15.15836,0-27.49149-6.1278-27.49149-13.65866S15.98071,1.96967,31.13907,1.96967c15.15884,0,27.49152,6.12575,27.49152,13.65653S46.29791,29.28486,31.13907,29.28486Z"/><path class="cls-1" d="M28.1112,8.61888h.50247a.30972.30972,0,0,1,.31325.31313v14.2852a.33077.33077,0,0,0,.33518.33468h3.74081a.3315.3315,0,0,0,.33658-.33468V7.99662a.33682.33682,0,0,0-.33658-.33575H28.1112c-.04844,0-.04844.046-.04844.08257v.79392C28.06276,8.57173,28.06276,8.61888,28.1112,8.61888Z"/><path class="cls-1" d="M36.54574,23.55189h3.67269a.5118.5118,0,0,0,.44058-.33027L43.7919,13.3605c0-.0022.036-.13729.15278-.13729.11166,0,.14913.13624.15019.13729l3.16643,9.86112a.51.51,0,0,0,.44285.33027h3.67133a.28847.28847,0,0,0,.24244-.11674.35073.35073,0,0,0,.05537-.29312L46.56235,7.88287a.42267.42267,0,0,0-.44391-.222H40.255a.08718.08718,0,0,0-.08359.08257v.79392a.08878.08878,0,0,0,.08359.08152h.43178a.279.279,0,0,1,.31284.2735.537.537,0,0,1-.03672.18027l-4.71482,14.0706a.3369.3369,0,0,0,.05637.29069A.29512.29512,0,0,0,36.54574,23.55189Z"/><path class="cls-1" d="M11.55594,8.61888a.31068.31068,0,0,1,.31454.31313v14.2852a.32959.32959,0,0,0,.33347.33468h3.63677a.334.334,0,0,0,.33256-.33468v-6.0075c0-.13092.06-.2061.16624-.2061a.27065.27065,0,0,1,.22962.1524.23918.23918,0,0,0,.01514.02147l4.28345,6.00962a.8004.8004,0,0,0,.58357.36479h4.31793a.31776.31776,0,0,0,.22621-.52136c-.01309-.01942-5.41423-7.65746-5.46888-7.73468-.01612-.02359-.023-.03862-.03326-.05576a.247.247,0,0,1-.02727-.06865.20321.20321,0,0,1-.00953-.05158.48162.48162,0,0,1,.06581-.19951l.00425-.00864,4.57061-6.767a.31924.31924,0,0,0,.00065-.32187.30456.30456,0,0,0-.26406-.16192H20.73471a.81151.81151,0,0,0-.58747.36477l-3.56362,5.03879c-.111.16519-.22.17379-.24077.17379h-.00333a.1577.1577,0,0,1-.16624-.16843V7.99662a.33494.33494,0,0,0-.33256-.33575h-4.7879a.0862.0862,0,0,0-.083.08257v.79392a.0866.0866,0,0,0,.083.08152Z"/></svg>