<svg id="Layer_1" data-name="Layer 1" xmlns="http://www.w3.org/2000/svg" viewBox="0 0 80.33402 30.38818"><defs><style>.cls-1{fill-rule:evenodd;}</style></defs><title>1ca</title><path class="cls-1" d="M40.17992,0C17.97863,0,0,6.81345,0,15.207c0,8.3937,17.97863,15.1812,40.17992,15.1812,22.17548,0,40.1541-6.7875,40.1541-15.1812C80.334,6.81345,62.3554,0,40.17992,0Zm0,28.83382c-21.29459,0-38.59965-6.06216-38.59965-13.62684,0-7.5387,17.30506-13.67855,38.59965-13.67855,21.34646,0,38.6257,6.13985,38.6257,13.67855C78.80562,22.77166,61.52638,28.83382,40.17992,28.83382Zm15.8544-11.03616.28494.07776a14.68835,14.68835,0,0,1-1.7874,2.38337c-1.60619,1.63212-2.64252,1.088-2.87561.90668a1.80308,1.80308,0,0,1-.31086-1.47668,5.58088,5.58088,0,0,1,1.03619-2.30558c.9326-1.1399,2.07249-1.91708,2.97953-1.81348C56.47473,15.69922,56.5783,16.78726,56.03432,17.79766ZM40.17992,2.66833c-20.67275,0-37.38209,5.62179-37.38209,12.53865,0,6.94294,16.70934,12.56462,37.38209,12.56462,20.647,0,37.40814-5.62168,37.40814-12.56462C77.58806,8.29012,60.82688,2.66833,40.17992,2.66833ZM21.86449,22.9271A4.08593,4.08593,0,0,1,17.5642,18.808a4.557,4.557,0,0,1,3.67855-4.17093c.28507,0,.38867.1036.38867.259,0,.1037-.1036.2332-.3368.3368a3.71776,3.71776,0,0,0-1.91708,2.90151,2.28592,2.28592,0,0,0,1.6062,2.25385,2.85439,2.85439,0,0,0,.80309.05186c2.5129,0,5.33662-2.82388,8.39344-7.1243-.49209.02595-2.59052.25915-3.10866.855-.2331.18136-.38854.07765-.4404-.1295a.92071.92071,0,0,1,.15581-.3368c.82867-.93262,3.31559-1.1399,3.91144-1.21768C32.93079,9.06389,35.77488,6.8814,36.559,6.72426c-.01821-.00427-.03944-.01051-.05726-.01452a25.3102,25.3102,0,0,0-5.23338-.855c-4.99982,0-7.22764,2.15027-7.124,4.11919a1.26376,1.26376,0,0,0,1.6579,1.13987,4.5033,4.5033,0,0,0,2.84967-2.02062.27741.27741,0,0,1,.36275-.15555.3109.3109,0,0,1,.10357.311c-.12952,1.01024-1.68385,3.8082-4.3781,3.8082a2.63523,2.63523,0,0,1-2.487-2.772c.026-2.56473,2.64239-5.15535,9.093-5.15535a24.13467,24.13467,0,0,1,4.09351.36272,66.41541,66.41541,0,0,0,9.58467,1.088,30.10092,30.10092,0,0,0,4.30045-.15544,9.48955,9.48955,0,0,1,1.68382-.28494c.51819,0,.51819.20715.51819.41446,0,.829-2.90153,2.40929-5.36253,2.40929-3.62635,0-7.38906-1.64362-9.34233-2.17268A.28658.28658,0,0,1,36.89,7.1243a2.7625,2.7625,0,0,1-.3883.41446,16.00988,16.00988,0,0,0-4.19706,4.8445,33.45824,33.45824,0,0,0,3.3677-.38864,2.52135,2.52135,0,0,1-.1036-.62176c.07765-1.114.72534-1.78756,1.55435-1.65791a.90958.90958,0,0,1,.77718.88076,2.29956,2.29956,0,0,1-.6736,1.39891,4.767,4.767,0,0,1-.803.51816c0,.28494.38851.51814.72531.54408-.07778.28494-.05186.41443-.18136.38851a1.25195,1.25195,0,0,1-1.088-.75125c-1.036.18138-2.0462.31088-4.09317.51816C26.63121,21.55411,25.025,22.9271,21.86449,22.9271Zm35.517-1.373c1.11385-.05184,3.16042-2.1762,3.65264-2.69423.1036-.12963.285-.3627.38866-.3627s.31086.10355.31086.259a2.433,2.433,0,0,1-.41456.72542c-1.03619,1.29534-2.746,3.29-4.689,3.34188-.95851,0-1.32113-.38862-1.45065-1.13987a6.27273,6.27273,0,0,1-3.4714,1.06211,2.10782,2.10782,0,0,1-2.04655-1.373,2.99958,2.99958,0,0,1-.15544-1.943,4.28922,4.28922,0,0,1-2.2798.38867,2.02947,2.02947,0,0,1-2.09791-1.78756c-1.24384,2.27977-1.2957,2.35743-2.5651,4.7408h-2.202L43.185,17.979a6.28958,6.28958,0,0,0,.6736-1.70977.51147.51147,0,0,0-.49224-.62171,2.87275,2.87275,0,0,0-1.52841.90667,29.49618,29.49618,0,0,0-2.51287,3.1346c-1.0104,1.50262-2.746,3.21236-4.63711,3.21236a2.73344,2.73344,0,0,1-2.87559-2.202s-.1295.33677-1.34718,1.03632c-.10358.05171-.36262.20715-.44.15542a1.16869,1.16869,0,0,1-.38888-.64766c.07763.02592.23307-.1037.72531-.49224a3.37777,3.37777,0,0,0,1.16582-1.29531c.2331-.49222.648-1.26942.93259-1.81351a5.1328,5.1328,0,0,1,4.32624-3.21236.53232.53232,0,0,1,.54408.28494.48013.48013,0,0,1,.1295.46642,4.94081,4.94081,0,0,0-3.2641,2.02065,5.68382,5.68382,0,0,0-.88088,2.17607,1.73259,1.73259,0,0,0,1.19173,2.12436c1.50249.23322,2.746-.85494,3.73043-2.53879a5.84947,5.84947,0,0,0,.44074-2.202,2.44831,2.44831,0,0,0-.59582-1.52854.65925.65925,0,0,1,.6214-.72534.38069.38069,0,0,1,.31085.1036,3.475,3.475,0,0,1,.8031,2.25385,3.91891,3.91891,0,0,1-.05184.77715c1.088-1.32123,2.461-3.031,3.52311-3.3678a1.31584,1.31584,0,0,1,.62174-.10357,1.472,1.472,0,0,1,1.684,1.70977c1.03617-1.19164,1.76164-1.63212,2.72-1.58028a1.33823,1.33823,0,0,1,1.39891,1.34721,1.48815,1.48815,0,0,1-1.3726,1.47654,1.37728,1.37728,0,0,1-1.4252-1.03619,1.27494,1.27494,0,0,0-.82891,1.19163A1.288,1.288,0,0,0,47.40766,18.808a3.35762,3.35762,0,0,0,2.5651-1.088c1.76114-1.65806,2.7456-3.39375,5.28439-3.36783a2.37425,2.37425,0,0,1,2.17609,1.76163l3.34191-5.64763h2.04657L57.2778,20.28471a2.00631,2.00631,0,0,0-.3368.9067C56.99323,21.68363,57.6146,21.55411,57.3815,21.55411ZM36.29409,11.94288a1.672,1.672,0,0,1,0-1.01037.82665.82665,0,0,1,.72578-.64769c.181-.02592.25865.15544.28459.31089a1.381,1.381,0,0,1-.36274.93259C36.55321,11.9688,36.29409,11.94288,36.29409,11.94288Z"/></svg>