<svg id="Layer_1" data-name="Layer 1" xmlns="http://www.w3.org/2000/svg" viewBox="0 0 81.7751 30.96347"><defs><style>.cls-1{fill-rule:evenodd;}</style></defs><title>1ca</title><path class="cls-1" d="M81.45367.00036,41.01325.0432V.04228l-.1627.00109h-.00017l-.16115.0002V.04445L.31314.3141,0,.31619.18273.57244l5.396,7.5671L7.95325,22.18337l.00018-.00005A5.02,5.02,0,0,0,10.00808,24.512a12.23833,12.23833,0,0,0,3.52154,1.74658l.02027.00508,27.27467,4.66754.18869.0323,26.579-5.10656.01205-.00256a12.24728,12.24728,0,0,0,3.70381-1.58474,4.50712,4.50712,0,0,0,1.97846-2.68425l.00125-.007L75.787,8.14251,81.58348.26063,81.7751,0Zm-.32643.32649L76.19159,2.92114H41.01339V.36934ZM5.18592,3.13862h35.5032V29.68394q-6.83522-1.16637-13.5398-2.47444-6.78489-1.32858-13.38985-2.82028a6.08123,6.08123,0,0,1-2.37711-1.724,1.30583,1.30583,0,0,1-.14164-.23576l.01753-.00193-.02-.11413L8.74141,8.10077,8.72224,8.056Zm35.96856,24.745,19.52052-3.491.01148-.003a4.60062,4.60062,0,0,0,1.71785-.83122,1.65733,1.65733,0,0,0,.31037-.35716l6.59816-.68693c-.43981,1.374-6.70245,2.52082-14.78274,3.99978-4.15916.76131-8.79667,1.61013-13.37564,2.63236Zm28.163-5.383-.60714-.00807.6109-.00307Zm-6.00884-2.1123,5.39744-.83244,1.25374.001-.28,1.80267-6.63167-.027Zm.83779-4.0238,5.33219-.69,1.07332.00292-.42547,2.83583-6.36054-.04213ZM69.411,23.29024a2.78934,2.78934,0,0,1-1.34822.894c-7.30726,1.86786-14.72028,3.22852-22.12222,4.58714-1.65277.30338-3.30435.60667-4.92719.91021V29.4008l.05537-.0124c4.61477-1.03387,9.30147-1.8917,13.50063-2.66029,8.44605-1.54592,14.93129-2.733,14.98739-4.34467l-.10876-.00339-.00043-.10875-6.67064.03351-.12512.00061.00065.00466-21.63909.23453V21.46l28.75908.11736.0935.00035.01437-.09245.31381-2.02044.01942-.12526-.12687-.0001-29.07331-.0227v-.77888l.04022.00026,29.16623.19315.0943.00063.01405-.09359.45812-3.05351.01859-.12419-.1265-.00035-29.62433-.08071-.04068-.00012V13.03454H52.088V11.69013H41.01339V9.06647H52.21925V4.48465H41.01339v-1.346H76.011l-3.56184,5.1356-.0179.04348L70.10711,21.7976l-.00046.00211A2.98668,2.98668,0,0,1,69.411,23.29024ZM40.68912,2.92114H5.00034L.62772.63816,40.68912.37059Zm-39.3813-1.329c.53954.60645,1.21155,1.21817,1.67029,1.76768.29266.32075,1.01177.26048,1.40325.69485.38606.42835,3.36018,3.24108,2.92776,3.936l-1.45424-.022ZM5.91521,8.1871l2.62687.03979,2.4698,14.05884a2.02118,2.02118,0,0,1-1.37418.50286,2.32783,2.32783,0,0,1-1.362-.63629l-.00205-.01114-.00129-.01279Zm7.69642,17.75569A11.91258,11.91258,0,0,1,10.19545,24.246a7.0327,7.0327,0,0,1-1.7358-1.67487,2.2965,2.2965,0,0,0,1.16613.435c.00421.00025.00839-.00015.0126.00006,1.44663,3.02855,19.32008,4.49,31.05074,7.25227v.31821Zm57.51422-1.943a11.93176,11.93176,0,0,1-3.602,1.53784l-26.51051,5.0355v-.40388c11.65052-2.73112,29.00544-4.12459,30.64183-7.10359a2.48481,2.48481,0,0,0,.88452-.50142A4.83066,4.83066,0,0,1,71.12585,23.99975Zm1.84552-2.48854h0a3.51036,3.51036,0,0,1-.18788.57786l-.01256-.0138a2.90375,2.90375,0,0,1-1.25305.80311,3.35457,3.35457,0,0,1-1.49419-.11876,3.11412,3.11412,0,0,0,.29877-.92751h-.00006L72.642,8.37792l.10391-.14983,2.7038-.041Zm2.541-13.54254-1.661.02516c.12417-.60019,1.40577-1.972,2.24913-3.05175a5.22428,5.22428,0,0,0,1.72993-.98331A38.91671,38.91671,0,0,0,80.565.86846l.2754-.14475ZM28.96331,17.05044H40.199v1.66092H28.96331Zm-.0017,3.80052,11.23736.03532v6.97234L29.10959,25.99935ZM8.92618,7.76878l.05513-.00021,31.15087-.11648.1082-.00041.00051-.1079.01428-3.05868.00052-.10916-.10924,0L6.64064,4.3616l-.21495-.00007.12712.17322L8.89347,7.72426ZM8.87934,4.58,13.87,5.03739l1.7968,2.48875-6.63034.0248L6.85559,4.57916Zm31.36155,6.04886V8.50365l0-.10872h-.10868L9.33491,8.38759l-.12484,0,.01695.12326.28407,2.06589.013.09434.0949-.00015,30.51323-.04184ZM9.45974,8.6051l1.41085.00033,5.18479.54418.24658,1.29467-6.58811.009ZM9.772,11.44683,9.646,11.44639l.018.12455.437,3.0195.01358.09384H40.24131V11.562l-.10913-.00042Zm.12591.218,2.19028.00828,3.82284.42773.38757,2.36513H10.30331ZM39.6132,14.46593l.4098-.00192v.00192ZM28.14128,20.20684l-.00032-.10916-.01351-4.67978-.00031-.10953-.10886.0008-17.669.12951-.12968.001.02265.12695.81284,4.55028.016.08994.09141,0H28.14128ZM10.47987,15.65521l2.01332-.01476,4.64636.43105.32867,3.917H11.25388ZM11.865,22.25942l-.16114-.001.05966.14978a2.43368,2.43368,0,0,0,.84619,1.06279,4.65319,4.65319,0,0,0,1.52046.69525l.029.00382c2.31783,0,4.63275-.06334,6.94761-.12665s4.62976-.12666,6.94165-.12666h.10916V22.3555l-.10871-.00064Zm.8735,1.03678a2.26968,2.26968,0,0,1-.70609-.81833l1.34128.00791,5.5556.51537.56371.86788c-1.77368.04593-3.547.08338-5.31845.08358A4.42493,4.42493,0,0,1,12.73846,23.2962Zm59.885-15.83341.05793.00064.03287-.048,1.13-1.6492.11718-.171-.20763.00091L53.24,5.6834l-.10871.00046V7.24409l.10829.00121Zm-.05624-.21812-7.12929-.08.50276-.688,5.68368-.654,1.92278-.00817Zm-1.62426,7.60842.017-.0888L71.93721,9.665l.02467-.12863-.13124-.00055-18.721-.08011-.10959-.00046v5.29034l.10871.00066,17.7437.10623Zm-6.50147-.25642.43062-4.11241,5.30661-.738,1.51984.0065-.93563,4.88175Zm12.28943,7.363a.62416.62416,0,0,0-.23-.23064.62112.62112,0,0,0-.15189-.06356.64614.64614,0,0,0-.32812,0,.62614.62614,0,0,0-.152.06351.62884.62884,0,0,0-.23151.23034.62072.62072,0,0,0-.06421.15271.634.634,0,0,0-.02144.16541.614.614,0,0,0,.08565.31571.64059.64059,0,0,0,.23151.23124.62225.62225,0,0,0,.632,0,.636.636,0,0,0,.23-.23155.62048.62048,0,0,0,.08471-.3154.64062.64062,0,0,0-.02119-.16514A.62836.62836,0,0,0,76.73087,21.95971Zm.01049.31782a.55729.55729,0,0,1-.01866.14473.54389.54389,0,0,1-.05618.134.55895.55895,0,0,1-.088.11509.56968.56968,0,0,1-.11529.089.54213.54213,0,0,1-.13372.05664.54739.54739,0,0,1-.42284-.05664.56908.56908,0,0,1-.20507-.20446.54215.54215,0,0,1-.05686-.13395.54773.54773,0,0,1-.01888-.14445.5572.5572,0,0,1,.01888-.14565.54391.54391,0,0,1,.05658-.1343.55978.55978,0,0,1,.20472-.20387.54515.54515,0,0,1,.27871-.07519v0a.54454.54454,0,0,1,.27907.07522.55469.55469,0,0,1,.203.2036.54812.54812,0,0,1,.05592.13432.56628.56628,0,0,1,.01859.1459Zm-.24982.31239a.12578.12578,0,0,1-.01108-.03026l-.00438-.02336-.00346-.02667-.0015-.02234q0-.04455-.00253-.078a.38051.38051,0,0,0-.00755-.05539.15532.15532,0,0,0-.01358-.03845.088.088,0,0,0-.02059-.02645h0a.12515.12515,0,0,0-.03-.0178.2402.2402,0,0,0-.03475-.0117.13123.13123,0,0,0,.04635-.01511.1218.1218,0,0,0,.04018-.0369.17491.17491,0,0,0,.02513-.05174.21471.21471,0,0,0,.00836-.06095l0-.00006a.26223.26223,0,0,0-.00925-.06028.15057.15057,0,0,0-.02173-.04622.12911.12911,0,0,0-.03461-.03372.17484.17484,0,0,0-.04882-.02186.38911.38911,0,0,0-.06591-.01213.82127.82127,0,0,0-.08557-.004h-.26832v.6997l.00143-.00006.08794-.00364.00131-.00008v-.2991h.15941v0q.03934,0,.06858.00281a.25545.25545,0,0,1,.04807.00845.11625.11625,0,0,1,.03178.01371.05843.05843,0,0,1,.01913.01934.11006.11006,0,0,1,.01083.02782h0a.23126.23126,0,0,1,.006.038l.00188.03229.00179.03418.00254.03394.00483.03162a.183.183,0,0,0,.0078.02946.16787.16787,0,0,0,.0124.02693l.00039.00071h.09215V22.605l-.00075-.00038A.03332.03332,0,0,1,76.49154,22.58992ZM76.3933,22.113a.10694.10694,0,0,1-.03412.08651.15668.15668,0,0,1-.10288.02886h-.21778v-.2307h.19191a.39167.39167,0,0,1,.07448.00612.14409.14409,0,0,1,.05034.01854.07475.07475,0,0,1,.02853.03479A.14434.14434,0,0,1,76.3933,22.113Zm.007.45783.00909.02533-.00566-.0123Z"/></svg>