<svg id="Layer_1" data-name="Layer 1" xmlns="http://www.w3.org/2000/svg" viewBox="0 0 42.5 42.5221"><defs><style>.cls-1{fill-rule:evenodd;}</style></defs><title>1ca</title><path class="cls-1" d="M31.1121,2.41026A21.2696,21.2696,0,0,0,11.41,40.11184,21.26962,21.26962,0,0,0,31.1121,2.41026ZM2.12278,21.25A19.13356,19.13356,0,0,1,20.69718,2.12278L18.28692,19.52523,11.41,24.89854,4.42248,30.3603A19.13739,19.13739,0,0,1,2.12278,21.25ZM31.1121,37.65737A19.108,19.108,0,0,1,5.06375,31.42169L11.41,28.81242l9.8179-4.02445,9.88422,4.00235,6.36839,2.58713A19.00566,19.00566,0,0,1,31.1121,37.65737Zm0-12.80306-6.83274-5.32908L21.847,2.12278A19.104,19.104,0,0,1,40.37718,21.25a18.947,18.947,0,0,1-2.27758,9.06606Z"/></svg>