<svg id="Layer_1" data-name="Layer 1" xmlns="http://www.w3.org/2000/svg" viewBox="0 0 42.55127 42.55121"><title>1ca</title><path d="M36.31958,6.23163a21.27541,21.27541,0,1,0-30.088,30.088,21.27541,21.27541,0,1,0,30.088-30.08795ZM21.27557,41.815A20.53924,20.53924,0,0,1,6.75214,6.75214,20.53935,20.53935,0,1,1,21.27557,41.815ZM21.27551,9.50555V21.27563H9.50568A11.77012,11.77012,0,0,1,21.27551,9.50555Zm0,11.77008h11.77a11.77006,11.77006,0,0,1-11.77,11.7699ZM9.32965,9.72589l-1.50207,1.79-.93976-.78864L8.407,8.91681a.61929.61929,0,0,1,.82965.01343A.54546.54546,0,0,1,9.32965,9.72589Zm.16626,3.18994-.993-.83325,1.5965-1.90265a.65042.65042,0,0,1,.9801.8487ZM21.27557,1.5827A19.69294,19.69294,0,1,0,40.96844,21.27563,19.69312,19.69312,0,0,0,21.27557,1.5827Zm-2.878,1.07514h1.55915l1.411,3.69189,1.41076-3.69189h1.55927V7.84125H23.29987V4.222L21.93445,7.84125H20.80084L19.4353,4.222V7.84125H18.39752ZM5.325,11.18506,7.85437,8.17078c.52344-.6239,1.25549-1.12207,1.95093-.53846a1.82678,1.82678,0,0,1,.56647.71515,1.14956,1.14956,0,0,1-.007.77381,1.32185,1.32185,0,0,1,1.66662.15234c.64063.62274.54651,1.34277-.063,2.06909L9.301,14.52142ZM21.27557,33.85468A12.57911,12.57911,0,1,1,33.85468,21.27563,12.57933,12.57933,0,0,1,21.27557,33.85468ZM32.99664,14.62732l-.94128-1.17157,1.87524-2.74194-.011-.0138-3.072,1.26416-.95051-1.16437L33.149,6.61694l.80212.99042-2.0365,2.66382,3.112-1.336.86047,1.0625-1.95379,2.76624,3.029-1.43805.80188.99041Z"/></svg>