<svg id="Layer_1" data-name="Layer 1" xmlns="http://www.w3.org/2000/svg" viewBox="0 0 60.51755 30.83856"><defs><style>.cls-1{fill-rule:evenodd;}</style></defs><title>1ca</title><path class="cls-1" d="M36.59378,18.98291c.461,2.38116-.78742,4.35907-1.82439,6.27929-1.152,1.78593-3.05333,3.32205-5.33841,3.09173a54.212,54.212,0,0,1-14.78693-2.26617.91152.91152,0,0,1-.53755-.38384.63976.63976,0,0,1,.23037-.69133c4.244-3.43736,9.29442-5.03111,14.28746-6.70178a14.55618,14.55618,0,0,1,5.93391-.84479A2.58716,2.58716,0,0,1,36.59378,18.98291ZM54.088,8.80524c2.38117,1.95868,4.532,4.62818,3.8023,7.85413-1.19049,4.7624-6.37538,7.297-10.50414,8.91A31.14991,31.14991,0,0,1,40.4153,27.3169c-.15378-.01916-.40332.01923-.44179-.21141l.0577-.26877a62.0624,62.0624,0,0,0,8.46886-12.82729c1.0751-2.0163,2.074-4.0903,2.99564-6.12583a.98091.98091,0,0,1,.42255-.288A4.98381,4.98381,0,0,1,54.088,8.80524ZM20.578,3.73593l-.07686.288c-5.0504,5.74174-8.37245,12.4048-11.52187,19.03-.61441.576-1.21-.19224-1.76675-.44178C4.40875,20.7689,1.8738,17.79249,2.60353,14.259c1.17158-4.60862,5.91475-7.06671,9.87076-8.73706A37.05952,37.05952,0,0,1,19.829,3.52452C20.0981,3.52452,20.44373,3.48639,20.578,3.73593Zm25.06069.92171c.288.15346.63371.21109.80633.49909.15378.32647-.15346.53788-.3264.749-3.975,3.1107-8.52623,4.83932-13.17331,6.35621-2.36226.57595-4.7435,1.613-7.37421,1.037a2.44666,2.44666,0,0,1-1.51721-1.15234c-.65287-1.80483.23064-3.68659.99851-5.2615,1.01779-1.97783,2.823-4.30137,5.3195-4.33983A55.01665,55.01665,0,0,1,45.63865,4.65764Zm6.64416.15346c4.07139,2.22771,8.68033,6.145,8.20014,11.36809-.5571,4.83926-5.07,8.219-9.10256,10.25452-11.77174,5.62636-28.30588,5.799-40.46171.88319-4.10953-1.70906-8.71847-4.647-10.44677-9.06378-1.325-3.62928.288-7.41234,2.996-9.92774C9.13269,3.17889,16.35318,1.41246,23.78507.39466a54.65269,54.65269,0,0,1,23.7738,2.36168A38.19812,38.19812,0,0,1,52.28281,4.8111Z"/></svg>