<svg id="Layer_1" data-name="Layer 1" xmlns="http://www.w3.org/2000/svg" viewBox="0 0 42.5 42.57193"><title>1ca</title><path d="M13.73348,21.28633c0,.98313.49156,1.756,1.19416,1.756.63236,0,1.19444-.77288,1.19444-1.756,0-.98349-.56208-1.75669-1.19444-1.75669C14.225,19.52964,13.73348,20.30284,13.73348,21.28633Z"/><path d="M39.61793,7.28033a.8308.8308,0,0,1,1.31233.09488l1.03468,1.55468c.29423.4797.53506.41161.53506-.15124V1.0949A1.02636,1.02636,0,0,0,41.47657.07147H33.72172c-.56308,0-.628.23585-.14459.52421l1.78915,1.17369a.84776.84776,0,0,1,.10522,1.32429l-.54743.54724a1.27208,1.27208,0,0,1-1.42185.2152A21.31836,21.31836,0,1,0,42.5,21.25,21.16287,21.16287,0,0,0,39.23011,9.87354c-.23525-.47137-.53277-1.64474-.16656-2.02193ZM21.25012,6.538A14.75068,14.75068,0,0,1,35.30759,16.82833H7.19247A14.75087,14.75087,0,0,1,21.25012,6.538ZM18.6509,19.60011v-.632h4.42582v.632H21.95238v3.30162h1.19439a1.4723,1.4723,0,0,0,1.47515-1.40478h.70219v2.17742H18.6509v-.77264h1.12365V19.60011Zm6.60333,0H24.13055v-.632h4.77672v.632H27.71279l1.68613,2.88056L30.874,19.60011h-.843v-.632h3.30166v.632H32.20884L30.031,23.67437H27.43175Zm-6.88454,1.68622c0,1.40487-1.54535,2.5287-3.442,2.5287-1.82651,0-3.37186-1.12383-3.37186-2.5287,0-1.335,1.54535-2.45905,3.37186-2.45905C16.82434,18.82728,18.36969,19.95133,18.36969,21.28633Zm-12.29346,2.388-2.1776-4.07426H2.7748v-.632H7.55166v.632H6.35723l1.68609,2.88056L9.5887,19.60011H8.67535v-.632h3.302v.632H10.85305l-2.1777,4.07426ZM21.25012,36.0338A14.75089,14.75089,0,0,1,7.19256,25.74347h28.115A14.75076,14.75076,0,0,1,21.25012,36.0338ZM39.72551,21.28633c0,1.40487-1.54547,2.5287-3.4424,2.5287-1.82615,0-3.37154-1.12383-3.37154-2.5287S34.457,18.757,36.28311,18.757C38.18,18.757,39.72551,19.88137,39.72551,21.28633Z"/><path d="M35.089,21.28633c0,.98313.49174,1.756,1.19411,1.756.63194,0,1.1942-.77288,1.1942-1.756,0-1.05414-.56226-1.82675-1.1942-1.82675C35.58074,19.45958,35.089,20.23219,35.089,21.28633Z"/></svg>