<svg id="Layer_1" data-name="Layer 1" xmlns="http://www.w3.org/2000/svg" xmlns:xlink="http://www.w3.org/1999/xlink" viewBox="0 0 34.02002 65.91895"><defs><style>.cls-1{fill:none;clip-rule:evenodd;}.cls-2{clip-path:url(#clip-path);}</style><clipPath id="clip-path"><path class="cls-1" d="M-116.34211,239.5888A33.75421,33.75421,0,0,1-82.52524,273.202a33.75478,33.75478,0,0,1-33.81687,33.616,33.75417,33.75417,0,0,1-33.814-33.616,33.7536,33.7536,0,0,1,33.814-33.61324m0-8.38236a42.121,42.121,0,0,0-42.24647,41.9956,42.1216,42.1216,0,0,0,42.24647,41.99838A42.12218,42.12218,0,0,0-74.09285,273.202a42.1216,42.1216,0,0,0-42.24926-41.9956"/></clipPath></defs><polygon points="32.959 31.899 1.061 0 0 1.061 31.899 32.959 0 64.858 1.061 65.919 32.959 34.02 34.02 32.959 32.959 31.899"/></svg>