<svg xmlns="http://www.w3.org/2000/svg" viewBox="0 0 17.7314 17.7319"><title>icon-x</title><path d="M1,17.7314a1,1,0,0,1-.709-1.7051l7.1611-7.16L.2925,1.707a1.0026,1.0026,0,0,1,0-1.415,1.0306,1.0306,0,0,1,1.4136,0l7.1592,7.16L16.0244.293A.9923.9923,0,0,1,16.7324,0h0a1.0034,1.0034,0,0,1,.7095.2949A.989.989,0,0,1,17.731.998a.9913.9913,0,0,1-.2915.709L10.28,8.8662l7.1592,7.1592a1,1,0,0,1-1.3962,1.432l-.0179-.0179L8.8657,10.28,1.7065,17.44A.9949.9949,0,0,1,1,17.7314ZM17.0879,1.3506l-.0039.0039ZM1.3516.6455l.002.001Z"/></svg>