<svg id="Layer_1" data-name="Layer 1" xmlns="http://www.w3.org/2000/svg" xmlns:xlink="http://www.w3.org/1999/xlink" viewBox="0 0 16.15576 11.75"><defs><style>.cls-1{fill:none;clip-rule:evenodd;}.cls-2{clip-path:url(#clip-path);}</style><clipPath id="clip-path"><path class="cls-1" d="M-55.62775,187.11614a33.7542,33.7542,0,0,1,33.81686,33.61324,33.75477,33.75477,0,0,1-33.81686,33.616,33.75417,33.75417,0,0,1-33.814-33.616,33.7536,33.7536,0,0,1,33.81405-33.61324m0-8.38235a42.121,42.121,0,0,0-42.24648,41.99559,42.1216,42.1216,0,0,0,42.24648,41.99838,42.12218,42.12218,0,0,0,42.24926-41.99838,42.1216,42.1216,0,0,0-42.24926-41.99559"/></clipPath></defs><polygon points="6.396 11.75 0 5.978 1.005 4.865 6.292 9.635 15.045 0 16.156 1.009 6.396 11.75"/></svg>