<svg id="Layer_1" data-name="Layer 1" xmlns="http://www.w3.org/2000/svg" xmlns:xlink="http://www.w3.org/1999/xlink" viewBox="0 0 43.99041 43.98736"><defs><style>.cls-1{fill:none;clip-rule:evenodd;}.cls-2{clip-path:url(#clip-path);}</style><clipPath id="clip-path"><path class="cls-1" d="M-722.2346,222.05025a33.75421,33.75421,0,0,1,33.81687,33.61324,33.75478,33.75478,0,0,1-33.81687,33.616,33.75418,33.75418,0,0,1-33.814-33.616,33.7536,33.7536,0,0,1,33.814-33.61324m0-8.38235a42.121,42.121,0,0,0-42.24648,41.99559,42.1216,42.1216,0,0,0,42.24648,41.99838,42.12218,42.12218,0,0,0,42.24926-41.99838A42.12159,42.12159,0,0,0-722.2346,213.6679"/></clipPath></defs><path d="M15.752,26.54642a1.00068,1.00068,0,0,1-.09473,1.04736l-3.75,5a.9999.9999,0,0,1-1.59961-1.2002l2.54981-3.3999h-1.75a.99982.99982,0,0,1-.79981-1.6001l3.75-5a.9999.9999,0,0,1,1.59961,1.2002l-2.5498,3.3999h1.75A1.0004,1.0004,0,0,1,15.752,26.54642Zm6.23047-10.55274h-18v-10h18Zm-2-8h-14v6h14Zm23,6v6a.99974.99974,0,0,1-1,1h-3v14a4.00378,4.00378,0,0,1-3.99024,3.999v.001h-2v-.002l-.00976.002a4.00426,4.00426,0,0,1-4-4v-22a2.00229,2.00229,0,0,0-2-2h-1V43.98733h-26V0h26V8.99368h1.00976v.001a4.00376,4.00376,0,0,1,3.99024,3.999v22a2.00229,2.00229,0,0,0,2,2h2a2.00229,2.00229,0,0,0,2-2v-14h-3a.99973.99973,0,0,1-1-1v-6a.99974.99974,0,0,1,1-1h1v-3a1,1,0,1,1,2,0v3h2v-3a1,1,0,1,1,2,0v3h1A.99974.99974,0,0,1,42.98251,13.99368ZM23.98251,2h-22v39.9873h22Zm17,12.99365h-6v4h6Z"/></svg>