<svg id="Layer_1" data-name="Layer 1" xmlns="http://www.w3.org/2000/svg" xmlns:xlink="http://www.w3.org/1999/xlink" viewBox="0 0 10 15"><defs><style>.cls-1{fill:none;clip-rule:evenodd;}.cls-2{clip-path:url(#clip-path);}.cls-3{fill-rule:evenodd;}</style><clipPath id="clip-path"><path class="cls-1" d="M143.78289,192.05657a33.61522,33.61522,0,1,1-33.814,33.61324,33.75421,33.75421,0,0,1,33.814-33.61324m0-8.38235a41.99774,41.99774,0,1,0,42.24926,41.99559,42.121,42.121,0,0,0-42.24926-41.99559"/></clipPath></defs><path class="cls-3" d="M.013,10.24083l-.00934,0Q-.0022,10.11745.00133,9.9881,0,9.92843,0,9.86842A5.19618,5.19618,0,0,1,1.04025,6.73475,23.59908,23.59908,0,0,1,2.405,4.4626,21.00648,21.00648,0,0,0,5.0158,0L4.9842.02235A21.00628,21.00628,0,0,0,7.595,4.48494,23.87738,23.87738,0,0,1,8.923,6.68643,5.195,5.195,0,0,1,10,9.86842q0,.06618-.00162.132.004.13462-.002.26277l-.011,0A5.05529,5.05529,0,0,1,5,15,5.056,5.056,0,0,1,.013,10.24083Z"/></svg>