<svg id="Layer_1" data-name="Layer 1" xmlns="http://www.w3.org/2000/svg" xmlns:xlink="http://www.w3.org/1999/xlink" viewBox="0 0 15 14"><defs><style>.cls-1{fill:none;clip-rule:evenodd;}.cls-2{clip-path:url(#clip-path);}</style><clipPath id="clip-path"><path class="cls-1" d="M124.40594,189.03265a33.61522,33.61522,0,1,1-33.814,33.61324,33.7542,33.7542,0,0,1,33.814-33.61324m0-8.38236a41.99774,41.99774,0,1,0,42.24926,41.9956,42.121,42.121,0,0,0-42.24926-41.9956"/></clipPath></defs><path d="M8,4A1.99781,1.99781,0,0,0,9.929,2.5H14.5v-1H9.929a1.99037,1.99037,0,0,0-3.858,0H.5v1H6.071A1.99781,1.99781,0,0,0,8,4ZM8,1A1,1,0,1,1,7,2,1.0013,1.0013,0,0,1,8,1Z"/><path d="M13,9a2,2,0,1,0-1.929-2.5H.5v1H11.071A1.99781,1.99781,0,0,0,13,9Zm0-3a1,1,0,1,1-1,1A1.0013,1.0013,0,0,1,13,6Z"/><path d="M2,10a2,2,0,1,0,1.929,2.5H14.5v-1H3.929A1.99781,1.99781,0,0,0,2,10Zm0,3a1,1,0,1,1,1-1A1.0013,1.0013,0,0,1,2,13Z"/></svg>