<svg id="Layer_1" data-name="Layer 1" xmlns="http://www.w3.org/2000/svg" xmlns:xlink="http://www.w3.org/1999/xlink" viewBox="0 0 21.99561 18.23584"><defs><style>.cls-1{fill:none;clip-rule:evenodd;}.cls-2{clip-path:url(#clip-path);}</style><clipPath id="clip-path"><path class="cls-1" d="M-81.47725,230.29241a33.7542,33.7542,0,0,1,33.81686,33.61324,33.75477,33.75477,0,0,1-33.81686,33.616,33.75417,33.75417,0,0,1-33.81405-33.616,33.7536,33.7536,0,0,1,33.81405-33.61324m0-8.38235a42.121,42.121,0,0,0-42.24648,41.99559A42.1216,42.1216,0,0,0-81.47725,305.904,42.12218,42.12218,0,0,0-39.228,263.90565a42.12159,42.12159,0,0,0-42.24926-41.99559"/></clipPath></defs><polygon points="21.996 8.368 2.871 8.368 10.179 1.061 9.118 0 0 9.118 9.118 18.236 10.179 17.175 2.871 9.868 21.996 9.868 21.996 8.368"/></svg>