<svg id="Layer_1" data-name="Layer 1" xmlns="http://www.w3.org/2000/svg" xmlns:xlink="http://www.w3.org/1999/xlink" viewBox="0 0 43.99041 43.98736"><defs><style>.cls-1{fill:none;clip-rule:evenodd;}.cls-2{clip-path:url(#clip-path);}</style><clipPath id="clip-path"><path class="cls-1" d="M-1052.41131,224.06036a33.7542,33.7542,0,0,1,33.81687,33.61324,33.75478,33.75478,0,0,1-33.81687,33.616,33.75417,33.75417,0,0,1-33.814-33.616,33.7536,33.7536,0,0,1,33.814-33.61324m0-8.38236a42.121,42.121,0,0,0-42.24648,41.9956,42.1216,42.1216,0,0,0,42.24648,41.99837A42.12217,42.12217,0,0,0-1010.162,257.6736a42.1216,42.1216,0,0,0-42.24926-41.9956"/></clipPath></defs><path d="M19.73744,20.07263a6.97379,6.97379,0,0,1,.96741,2h-8.266a3.98636,3.98636,0,0,1-3.44361,2,3.9175,3.9175,0,0,1-1.97314-.53271,6.9448,6.9448,0,0,1,.5-2.126,1.993,1.993,0,1,0,2.45947-3.0705,6.97252,6.97252,0,0,1,1.95178-.96362,3.97189,3.97189,0,0,1,1.06189,2.69281Zm23.25781-7.7207v9.7207H38.43886a3.9646,3.9646,0,0,1-6.88721,0H24.80836a10.82628,10.82628,0,0,1-1.524,7.871l9.42188,9.42194a.99989.99989,0,1,1-1.41406,1.41406l-9.24-9.24a10.97647,10.97647,0,0,1-18.86609-9.467H.99525l.03711-11.269,2.2041-7.88867H32.58217l4.09668,7.33154Zm-17.29553-7.437L28.582,10.07263h5.709L31.40834,4.91492Zm-8,0L20.582,10.07263h5.70874L23.40846,4.91492Zm5.29944,19.15576a9.002,9.002,0,1,0-9.00195,9.00195A9.01192,9.01192,0,0,0,22.99916,24.07068Zm13.99609-3.998a2,2,0,1,0-2,2A2.00229,2.00229,0,0,0,36.99525,20.07263Zm4-6.27929-5.16211-1.72071H9.99525a1,1,0,0,1,0-2h8.29553L15.40846,4.91492H4.754L2.99525,11.20984v8.86279h.76319a10.9858,10.9858,0,0,1,20.47753,0h6.75928a4,4,0,0,1,8,0h2Z"/></svg>