<svg id="Layer_1" data-name="Layer 1" xmlns="http://www.w3.org/2000/svg" viewBox="0 0 43.99041 43.98736"><path d="M33.87167,7.67742h-23.748L7.73348,16.92877l-4.49267,2.424v9.88769L5.45956,31.46v4.8498h8.6582V32.04608H29.87264v4.26367h8.65821V31.46l2.21875-2.21954V19.35272l-4.55811-2.45929Zm-22.19922,2H32.31307l1.731,6.87744H9.89559Zm.44531,24.63233H7.45956V32.04608h4.6582Zm19.75488,0V32.04608h4.65821v2.26367Zm6.877-5.89746-1.63282,1.63379H6.87362L5.24081,28.41229V20.54608l3.6914-1.99122h.26722l.16833.04346.01123-.04346H34.54745l.00976.03907.15515-.03907h.34583l3.69141,1.99122ZM5.24081,16.51043H1.02108v-2H5.24081Zm37.72851-2v2H38.7496v-2ZM28.6246,20.99383h7.6582v2H29.026c-2.34082,2.19141-4.75586,3.30078-7.18554,3.30078q-.08057,0-.16114-.00146a9.86937,9.86937,0,0,1-6.79492-3.29932H7.65v-2h7.6582a1.00155,1.00155,0,0,1,.72754.314c1.832,1.9419,3.74414,2.94678,5.68359,2.98584,2.07422.05616,4.11914-.97314,6.20606-3.01464A.99945.99945,0,0,1,28.6246,20.99383ZM7.65,25.43231h6.43945v2H7.65Zm22.19433,0H36.2828v2H29.84432Z"/></svg>