<svg id="Layer_1" data-name="Layer 1" xmlns="http://www.w3.org/2000/svg" xmlns:xlink="http://www.w3.org/1999/xlink" viewBox="0 0 18.23584 18.23633"><defs><style>.cls-1{fill:none;clip-rule:evenodd;}.cls-2{clip-path:url(#clip-path);}</style><clipPath id="clip-path"><path class="cls-1" d="M-87.03693,192.289a33.7542,33.7542,0,0,1,33.81686,33.61324,33.75477,33.75477,0,0,1-33.81686,33.616,33.75417,33.75417,0,0,1-33.81405-33.616A33.7536,33.7536,0,0,1-87.03693,192.289m0-8.38235a42.121,42.121,0,0,0-42.24648,41.99559,42.1216,42.1216,0,0,0,42.24648,41.99838,42.12218,42.12218,0,0,0,42.24926-41.99838,42.12159,42.12159,0,0,0-42.24926-41.99559"/></clipPath></defs><polygon points="18.236 1.061 17.175 0 9.118 8.058 1.061 0 0 1.061 8.057 9.118 0 17.176 1.061 18.236 9.118 10.179 17.175 18.236 18.236 17.176 10.178 9.118 18.236 1.061"/></svg>