<svg id="Layer_1" data-name="Layer 1" xmlns="http://www.w3.org/2000/svg" viewBox="0 0 1596.60748 567.15546"><title>ezev-logo</title><path d="M.52789,329.15546c-.62573-31-.2312-63-.23-95H342.53863c-16.47217,32-32.30762,64-48.12744,95Zm-.17407,238H174.23736c15.81983-31,31.655-63,48.1272-96H.12384C.12262,504.15546-.27192,535.15546.35382,567.15546ZM1106.49737,332.95721c-16.47205-32.7547-32.30737-64.24346-48.1272-95.70141H684.48663c-.62561,31.81415-.23108,63.24957-.23,95.70141ZM415.00274,466.15546l233.36914-466L.86041.109V100.15546H490.99249c-92.793,185-233.4773,467-233.4773,467h105.251l.30957-.68067,1.8916-.10571,862.45581-.87183-51.0022-99.34179ZM1483.70611,0q-88.18725,176.07971-177.43371,354.27509Q1216.816,175.58356,1128.925.01923H684.99957v97.2124H1069.935c78.76233,157.36615,156.90406,313.49255,235.0459,469.619.9209.00378,1.08374.00451,2.00452.00818Q1451.79657,283.42949,1596.60748,0Z"/></svg>