<?xml version="1.0" encoding="utf-8"?><svg width="0" height="0" display="none" xmlns="http://www.w3.org/2000/svg" xmlns:xlink="http://www.w3.org/1999/xlink"><symbol viewBox="0 0 115.221 34.043" id="bodyType-coupe" xmlns="http://www.w3.org/2000/svg"><path d="M114.96 19.399C105.345 8.846 78.115 8.716 74.507 8.739 72.52 7.26 60.974-.68 43.196.047 24.164.817 3.157 10.945 3.007 11.02a3.35 3.35 0 00-1.969 1.68 2.17 2.17 0 00-.019 1.612l.74 3.709-.858.966a3.05 3.05 0 00-.645 3.358l1.09 3.027c1.599 4.327 5.25 4.396 5.465 4.396h7.464a.947.947 0 00.168-.034 9.798 9.798 0 0016.235-.005.955.955 0 00.193.039H83.55a.938.938 0 00.105-.021 9.794 9.794 0 0016.28-.105.976.976 0 00.46.126h12.881a1.948 1.948 0 001.945-1.946v-8.138zm-92.4 12.644a7.808 7.808 0 117.807-7.807 7.817 7.817 0 01-7.807 7.807zm69.201 0a7.808 7.808 0 117.807-7.807 7.817 7.817 0 01-7.807 7.807zm9.138-4.274a9.807 9.807 0 10-18.276 0H31.698a9.807 9.807 0 10-18.277 0h-6.61c-.039 0-2.458-.03-3.586-3.08l-1.101-3.064-.042-.098a1.14 1.14 0 01.314-1.211l1.52-1.708-.952-4.77-.055-.186c-.05-.12-.032-.16-.025-.18.056-.135.32-.372.938-.627.206-.1 20.846-10.047 39.455-10.8 18.412-.747 30.157 8.389 30.274 8.482l.282.222.358-.006c.298-.011 29.29-.39 39.033 9.728l.052 7.298z"/><path d="M67.677 9.564H34.175l-.5-3.278a1 1 0 10-1.977.303l.447 2.927-8.765-1.42a1 1 0 10-.32 1.975l9.138 1.48 35.48.013a1 1 0 000-2z"/></symbol><symbol viewBox="0 0 98.493 43.087" id="bodyType-crossover" xmlns="http://www.w3.org/2000/svg"><path d="M98.154 22.867c-9.353-9.143-24.952-9.997-27.443-10.075-2.376-1.687-4.358-3.16-6.114-4.463C55.89 1.862 53.305-.095 40.577.004c-.118.004-13.452-.017-24.28 1.095-4.182.43-5.595 2.527-5.762 2.797-.124.217-.701.947-1.312 1.72-3.573 4.517-7.384 9.615-7.384 12.931v3.998c-.756.406-1.676 1.387-1.76 3.763l-.018.491c-.11 2.808-.277 7.051 1.593 8.996a3.294 3.294 0 002.433 1.017h5.372a.954.954 0 00.215-.043 9.792 9.792 0 0018.294.043h43.889c.009 0 .017-.005.026-.005a9.792 9.792 0 0018.28.005h5.345a1.926 1.926 0 001.942-1.858l1.043-11.756zM18.83 41.087a7.808 7.808 0 117.808-7.807 7.817 7.817 0 01-7.808 7.807zm62.195 0a7.808 7.808 0 117.808-7.807 7.817 7.817 0 01-7.808 7.807zm14.484-6.275H90.7a9.808 9.808 0 10-19.351 0H28.505a9.808 9.808 0 10-19.352 0H4.087a1.29 1.29 0 01-.991-.403c-1.28-1.331-1.122-5.364-1.037-7.531l.018-.498c.057-1.587.563-2.082.762-2.119h1v-5.714c0-2.899 4.696-8.836 6.953-11.69a22.619 22.619 0 001.452-1.925c.042-.061 1.055-1.514 4.259-1.843 10.729-1.102 23.941-1.085 24.08-1.085l.86-.003c11.28 0 13.66 1.766 21.961 7.933 1.826 1.356 3.894 2.893 6.4 4.666l.254.18.311.004c.166.002 16.599.324 26.05 9.19z"/><path d="M63.332 14.546H48.311l-1.49-9.313a1 1 0 00-1.974.316l1.438 8.997H23.911l1.44-8.997a1 1 0 00-1.975-.316l-1.49 9.313H17.4l-4.649-1.566 2.523-3.178a1 1 0 10-1.566-1.244l-4.293 5.408 7.657 2.58h46.26a1 1 0 000-2z"/></symbol><symbol viewBox="0 0 100.457 41.086" id="bodyType-hatchback" xmlns="http://www.w3.org/2000/svg"><path d="M100.156 21.866c-9.375-9.164-25.874-10-28.445-10.076C57.215 1.552 52.367-.095 37.542.004a220.618 220.618 0 00-23.298 2.104 45.447 45.447 0 01-4.97.434l-.983.05c-.57.031-2.305.125-2.484 1.41-.079.57.23 1.314 1.333 1.692.478.163.568.307.546.285l-.14.169-.057.213c-.135.502-.961 1.205-1.76 1.884-1.616 1.373-3.83 3.254-3.89 6.28-.06 3.074-.04 5.046-.02 6.03-.751.413-1.656 1.397-1.74 3.752l-.019.492c-.11 2.807-.275 7.05 1.595 8.994a3.294 3.294 0 002.432 1.018h1.37a.957.957 0 00.215-.044 9.791 9.791 0 0018.293.044h48.893c.01 0 .017-.005.027-.006a9.792 9.792 0 0018.28.006h7.346a1.948 1.948 0 001.946-1.946V22.16zm-85.33 17.22a7.807 7.807 0 117.807-7.807 7.817 7.817 0 01-7.806 7.807zm67.2 0a7.807 7.807 0 117.807-7.807 7.817 7.817 0 01-7.807 7.807zm9.676-6.275a9.808 9.808 0 10-19.352 0H24.501a9.807 9.807 0 10-19.35 0H4.087a1.29 1.29 0 01-.99-.404c-1.28-1.33-1.123-5.364-1.038-7.53l.019-.499c.056-1.586.562-2.08.761-2.117h1.042l-.043-1.041c0-.022-.086-2.178.001-6.655.041-2.125 1.711-3.544 3.185-4.796a7.053 7.053 0 002.339-2.702 2.054 2.054 0 00.271-1.631 1.971 1.971 0 00-.532-.883l.271-.014a46.81 46.81 0 005.182-.456 218.186 218.186 0 0123.026-2.079C52.062 1.917 56.414 3.415 70.805 13.6l.255.18.312.003c.176.002 17.61.316 27.086 9.227l.053 9.8z"/><path d="M64.333 13.545h-28.22c-.012-.028-.01-.058-.025-.086l-4.41-8.526a1 1 0 00-1.777.918l3.98 7.694H22.356l-9.567-2.23 2.426-3.055a1 1 0 00-1.566-1.244l-4.392 5.53 12.868 3h42.208a1 1 0 000-2z"/></symbol><symbol viewBox="0 0 114.979 49.142" id="bodyType-minivan" xmlns="http://www.w3.org/2000/svg"><path d="M114.793 29.991c-5.355-8.457-20.621-13.182-22.687-13.789C80.852 6.76 71.487.08 54.294.08h-.285C52.768.06 23.468-.427 12.683 1.276a36.757 36.757 0 01-4.796.483c-.701.038-2.161.117-2.429 1.216-.148.61.14 1.164.86 1.653a2.792 2.792 0 01-.276.635l-.113.265A35.177 35.177 0 014.57 8.85C3.001 12.43.85 17.332.79 20.415.71 24.517.658 30.695.65 31.866A10.01 10.01 0 000 35.403c0 2.124 1.662 7.463 5.588 7.463h5.025a9.792 9.792 0 0018.278 0h55.927a9.792 9.792 0 0018.278 0h8.803a1.948 1.948 0 001.945-1.882l1.136-10.699zm-95.041 17.15a7.808 7.808 0 117.808-7.807 7.817 7.817 0 01-7.808 7.808zm74.205 0a7.808 7.808 0 117.808-7.807 7.817 7.817 0 01-7.808 7.808zm17.942-6.275h-8.266a9.808 9.808 0 10-19.352 0H29.428a9.808 9.808 0 10-19.352 0H5.588C3.355 40.866 2 37.072 2 35.403a7.832 7.832 0 01.556-2.914l.09-.196.002-.216c0-.07.053-7.11.142-11.623.053-2.684 2.194-7.569 3.612-10.8.664-1.515 1.197-2.73 1.42-3.472a3.226 3.226 0 00.466-2.156 1.654 1.654 0 00-.096-.28 37.297 37.297 0 004.803-.496c10.612-1.672 40.677-1.175 41-1.17l.272-.002c16.625 0 25.715 6.551 36.715 15.791l.165.139.206.058c.163.047 16.153 4.641 21.565 12.712z"/><path d="M83.244 17.171H59.516L57.739 5.696a1 1 0 00-1.976.306l1.729 11.17H35.594L33.817 5.695a1 1 0 00-1.976.306l1.73 11.17H22.285l-11.5-2.894 2.503-5.696a1 1 0 00-1.83-.804l-3.456 7.86 14.035 3.533h61.206a1 1 0 000-2z"/></symbol><symbol viewBox="0 0 108.568 41.011" id="bodyType-sedan" xmlns="http://www.w3.org/2000/svg"><path d="M108.268 21.791c-9.375-9.165-25.874-10-28.445-10.076C65.69 1.737 59.296-.675 38.831.149c-13.985.56-24.522 9.763-26.45 11.56H5.124a2.484 2.484 0 00-2.481 2.48v5.075L.92 21.2A3.634 3.634 0 000 23.62v6.812a4.198 4.198 0 001.197 3.156 4.4 4.4 0 002.929 1.147h6.662l.009-.002a9.792 9.792 0 0018.278.001h51.897c.009 0 .016-.004.025-.005a9.792 9.792 0 0018.28.005h7.346a1.948 1.948 0 001.945-1.946V22.085zm-88.332 17.22a7.808 7.808 0 117.807-7.808 7.816 7.816 0 01-7.807 7.808zm70.202 0a7.808 7.808 0 117.807-7.808 7.817 7.817 0 01-7.807 7.808zm9.675-6.276a9.808 9.808 0 10-19.351 0h-50.85a9.807 9.807 0 10-19.351 0H4.166a2.456 2.456 0 01-1.59-.594A2.309 2.309 0 012 30.433V23.62a1.644 1.644 0 01.414-1.09l2.229-2.507V14.19a.482.482 0 01.481-.48h8.065l.292-.288c.11-.107 11.047-10.698 25.43-11.273 20.418-.822 26.164 1.58 40.006 11.376l.255.18.31.004c.178.002 17.623.325 27.088 9.227l.053 9.8z"/><path d="M71.528 12.235H49.72l-3.262-6.983a1 1 0 10-1.813.846l2.867 6.137H29.12l-4.082-3.577a1 1 0 00-1.318 1.504l4.648 4.073h43.161a1 1 0 000-2z"/></symbol><symbol viewBox="0 0 109.812 47.83" id="bodyType-suv" xmlns="http://www.w3.org/2000/svg"><path d="M109.78 24.434c-1.374-6.07-21.077-8.668-25.84-9.21A226.51 226.51 0 0065.841.728l-.234-.164-.286-.016c-.234-.012-23.69-1.225-51.028 0-.311.01-1.972.21-4.186 3.212-2.31 3.133-7.934 12.457-8.187 12.876a8.128 8.128 0 00-.793 3.815v9.189c-.734.627-1.692 2.095-.706 5.224 1.33 4.214 3.1 4.54 5.456 4.54H9.47a9.794 9.794 0 0019.397 0h51.672a9.794 9.794 0 0019.397 0h6.975a1.93 1.93 0 001.943-1.872l.96-12.952zM19.168 45.83a7.807 7.807 0 117.807-7.808 7.816 7.816 0 01-7.807 7.808zm71.069 0a7.807 7.807 0 117.806-7.808 7.817 7.817 0 01-7.806 7.808zm16.673-8.428h-6.898a9.795 9.795 0 00-19.551 0H28.944a9.795 9.795 0 00-19.552 0H5.877c-1.703 0-2.557 0-3.547-3.14-.665-2.108-.171-2.996.14-3.154l.656-.24V20.45a6.638 6.638 0 01.522-2.807c.064-.107 5.813-9.641 8.068-12.697 1.621-2.198 2.68-2.401 2.654-2.401 25.616-1.147 47.797-.149 50.557-.015a227.671 227.671 0 0117.921 14.4l.238.213.318.035c8.892.977 23.25 3.886 24.391 7.571z"/><path d="M75.226 14.997H52.743a.974.974 0 00.023-.294L51.61 5.308a1 1 0 10-1.984.244l1.157 9.395c.002.018.012.032.016.05H27.366a.943.943 0 00.035-.172V5.43a1 1 0 00-2 0v9.395a.943.943 0 00.035.172H11.889l4.613-6.986a1 1 0 00-1.668-1.102L8.17 16.997h67.056a1 1 0 000-2z"/></symbol><symbol viewBox="0 0 83.239 29.103" id="brand-audi" xmlns="http://www.w3.org/2000/svg"><path d="M68.687 0a14.486 14.486 0 00-9.022 3.135 14.552 14.552 0 00-18.046 0 14.552 14.552 0 00-18.045 0 14.551 14.551 0 100 22.833 14.552 14.552 0 0018.045 0 14.553 14.553 0 0018.046 0A14.551 14.551 0 1068.687 0zM21.193 23.59a11.218 11.218 0 11-6.642-20.257 11.298 11.298 0 016.642 2.179 14.553 14.553 0 000 18.079zm2.381-2.373a11.216 11.216 0 010-13.33 11.215 11.215 0 010 13.33zM39.24 23.59a11.228 11.228 0 01-13.284 0 14.552 14.552 0 000-18.079 11.227 11.227 0 0113.284 0 14.553 14.553 0 000 18.079zm2.38-2.374a11.216 11.216 0 010-13.33 11.215 11.215 0 010 13.33zm15.665 2.374a11.228 11.228 0 01-13.284 0 14.552 14.552 0 000-18.079 11.227 11.227 0 0113.284 0 14.552 14.552 0 000 18.079zm2.38-2.374a11.216 11.216 0 010-13.33 11.216 11.216 0 010 13.33zm9.023 4.552a11.295 11.295 0 01-6.641-2.178 14.552 14.552 0 000-18.079 11.218 11.218 0 116.641 20.257z" fill-rule="evenodd"/></symbol><symbol viewBox="0 0 42.551 42.551" id="brand-bmw" xmlns="http://www.w3.org/2000/svg"><path d="M36.32 6.232A21.275 21.275 0 106.232 36.32 21.275 21.275 0 1036.32 6.232zM21.276 41.815A20.54 20.54 0 016.752 6.752a20.54 20.54 0 1114.524 35.063zm0-32.31v11.77H9.506a11.77 11.77 0 0111.77-11.77zm0 11.77h11.77a11.77 11.77 0 01-11.77 11.77zM9.33 9.726l-1.502 1.79-.94-.788 1.519-1.81a.62.62 0 01.83.013.545.545 0 01.093.796zm.166 3.19l-.993-.832 1.596-1.903a.65.65 0 01.98.849zm11.78-11.332a19.693 19.693 0 1019.692 19.693A19.693 19.693 0 0021.276 1.583zm-2.878 1.075h1.559l1.41 3.692 1.411-3.692h1.56V7.84H23.3V4.222l-1.366 3.62h-1.133l-1.366-3.62v3.62h-1.037zM5.325 11.185l2.53-3.014c.523-.624 1.255-1.122 1.95-.539a1.827 1.827 0 01.567.715 1.15 1.15 0 01-.007.774 1.322 1.322 0 011.666.153c.641.622.547 1.342-.063 2.069L9.301 14.52zm15.95 22.67a12.58 12.58 0 1112.58-12.58 12.58 12.58 0 01-12.58 12.58zm11.722-19.228l-.942-1.171 1.876-2.742-.011-.014-3.072 1.264-.95-1.164 3.251-4.183.802.99-2.036 2.664 3.112-1.336.86 1.063-1.954 2.766 3.03-1.438.801.99z"/></symbol><symbol viewBox="0 0 81.775 30.963" id="brand-cadillac" xmlns="http://www.w3.org/2000/svg"><path d="M81.454 0l-40.44.043h-.325v.001L.313.314 0 .316l.183.256L5.579 8.14l2.374 14.043a5.02 5.02 0 002.055 2.329 12.238 12.238 0 003.522 1.747l.02.005 27.275 4.667.188.032 26.58-5.106.011-.003a12.247 12.247 0 003.704-1.584 4.507 4.507 0 001.979-2.685v-.007l2.5-13.435L81.583.26l.192-.26zm-.327.327L76.192 2.92H41.013V.37zM5.186 3.139h35.503v26.545q-6.835-1.166-13.54-2.475-6.785-1.328-13.39-2.82a6.081 6.081 0 01-2.377-1.724 1.306 1.306 0 01-.141-.236l.017-.001-.02-.115L8.741 8.101l-.019-.045zm35.968 24.745l19.521-3.491.011-.003a4.6 4.6 0 001.718-.832 1.657 1.657 0 00.31-.357l6.599-.687c-.44 1.374-6.703 2.521-14.783 4-4.159.761-8.797 1.61-13.376 2.632zM69.317 22.5l-.607-.008.611-.004zm-6.008-2.113l5.397-.832h1.254l-.28 1.804-6.632-.027zm.837-4.023l5.333-.69 1.073.002-.426 2.836-6.36-.042zm5.265 6.925a2.79 2.79 0 01-1.348.894c-7.307 1.868-14.72 3.229-22.122 4.587-1.653.304-3.305.607-4.928.91v-.28l.056-.013c4.615-1.033 9.301-1.891 13.5-2.66 8.446-1.546 14.932-2.733 14.988-4.345l-.109-.003v-.109l-6.671.034h-.125v.005l-21.639.235V21.46l28.76.117h.093l.014-.092.314-2.02.02-.125h-.127l-29.074-.023v-.78l.04.001 29.167.193h.094l.014-.093.458-3.053.019-.124h-.127l-29.624-.081h-.04v-2.345h11.074V11.69H41.013V9.066H52.22V4.485H41.013V3.139h34.998l-3.562 5.135-.018.044-2.324 13.48v.002a2.987 2.987 0 01-.696 1.49zM40.689 2.921H5L.628.638 40.689.371zM1.308 1.592c.54.607 1.211 1.218 1.67 1.768.293.32 1.012.26 1.403.695.386.428 3.36 3.24 2.928 3.936l-1.454-.022zm4.607 6.595l2.627.04 2.47 14.059a2.021 2.021 0 01-1.374.503 2.328 2.328 0 01-1.362-.637l-.002-.01-.002-.014zm7.697 17.756a11.913 11.913 0 01-3.417-1.697 7.033 7.033 0 01-1.735-1.675 2.296 2.296 0 001.166.435h.012c1.447 3.029 19.32 4.49 31.051 7.252v.319zM71.126 24a11.932 11.932 0 01-3.602 1.538l-26.51 5.035v-.404c11.65-2.73 29.005-4.124 30.641-7.103a2.485 2.485 0 00.885-.502A4.83 4.83 0 0171.126 24zm1.845-2.489a3.51 3.51 0 01-.188.578l-.012-.014a2.904 2.904 0 01-1.253.803 3.355 3.355 0 01-1.494-.118 3.114 3.114 0 00.298-.928l2.32-13.454.104-.15 2.704-.04zM75.512 7.97l-1.66.025c.124-.6 1.405-1.972 2.248-3.052a5.224 5.224 0 001.73-.983A38.917 38.917 0 0080.565.87l.275-.145zm-46.549 9.08H40.2v1.661H28.963zm-.001 3.801l11.237.035v6.973l-11.09-1.86zM8.926 7.769h.055l31.151-.117h.108v-.108l.015-3.059v-.11h-.109L6.641 4.363h-.215l.127.173 2.34 3.19zM8.88 4.58l4.991.457 1.797 2.49-6.63.024-2.181-2.972zm31.362 6.049V8.394h-.109L9.335 8.389H9.21l.017.123.284 2.066.013.094h.095l30.513-.042zM9.46 8.605h1.41l5.185.545.247 1.294-6.588.01zm.312 2.842h-.126l.018.124.437 3.02.014.093H40.24v-3.122h-.109zm.126.218l2.19.008 3.823.428.388 2.365h-5.996zm29.715 2.8l.41-.001v.002zm-11.472 5.742v-.11l-.014-4.68v-.109l-.109.001-17.669.13h-.13l.023.128.813 4.55.016.09h17.07zM10.48 15.655l2.013-.015 4.647.431.328 3.917h-6.214zm1.385 6.604h-.161l.06.15a2.434 2.434 0 00.846 1.062 4.653 4.653 0 001.52.695l.03.004c2.317 0 4.632-.063 6.947-.127s4.63-.126 6.941-.126h.11v-1.562h-.11zm.874 1.037a2.27 2.27 0 01-.707-.818l1.342.008 5.555.515.564.868c-1.774.046-3.547.083-5.318.084a4.425 4.425 0 01-1.437-.657zM72.623 7.463h.058l.033-.048 1.13-1.649.117-.17h-.207l-20.514.087h-.109v1.561l.109.001zm-.056-.218l-7.129-.08.503-.688 5.683-.654 1.923-.009zm-1.624 7.608l.017-.089.977-5.099.025-.129h-.131l-18.721-.08H53v5.29h.109l17.743.106zm-6.501-.256l.43-4.113 5.307-.738 1.52.007-.936 4.882zM76.73 21.96a.624.624 0 00-.23-.231.621.621 0 00-.152-.064.646.646 0 00-.328 0 .626.626 0 00-.152.064.629.629 0 00-.232.23.62.62 0 00-.064.153.634.634 0 00-.021.165.614.614 0 00.085.316.64.64 0 00.232.231.622.622 0 00.632 0 .636.636 0 00.23-.231.62.62 0 00.085-.316.64.64 0 00-.022-.165.628.628 0 00-.063-.152zm.01.317a.557.557 0 01-.018.145.544.544 0 01-.056.134.559.559 0 01-.088.115.57.57 0 01-.116.09.542.542 0 01-.133.056.547.547 0 01-.423-.057.57.57 0 01-.205-.204.542.542 0 01-.057-.134.548.548 0 01-.019-.145.557.557 0 01.019-.145.544.544 0 01.056-.135.56.56 0 01.205-.203.545.545 0 01.279-.076.545.545 0 01.279.076.555.555 0 01.203.203.548.548 0 01.056.135.566.566 0 01.018.145zm-.25.313a.126.126 0 01-.01-.03l-.005-.024-.003-.026-.002-.023q0-.044-.002-.078a.38.38 0 00-.008-.055.155.155 0 00-.013-.039.088.088 0 00-.021-.026.125.125 0 00-.03-.018.24.24 0 00-.035-.012.131.131 0 00.047-.015.122.122 0 00.04-.037.175.175 0 00.025-.051.215.215 0 00.008-.061.262.262 0 00-.009-.06.15.15 0 00-.022-.047.13.13 0 00-.034-.034.175.175 0 00-.05-.021.39.39 0 00-.065-.013.821.821 0 00-.086-.004h-.268v.7h.001l.088-.004h.002v-.299h.16q.038 0 .068.003a.255.255 0 01.048.009.116.116 0 01.032.013.058.058 0 01.019.02.11.11 0 01.01.027.231.231 0 01.006.038l.002.033.002.034.003.034.005.031a.183.183 0 00.007.03.168.168 0 00.013.027h.092v-.007a.033.033 0 01-.014-.015zm-.098-.477a.107.107 0 01-.034.087.157.157 0 01-.103.028h-.217v-.23h.191a.392.392 0 01.075.006.144.144 0 01.05.018.075.075 0 01.029.035.144.144 0 01.01.056zm.007.458l.01.025-.006-.012z" fill-rule="evenodd"/></symbol><symbol viewBox="0 0 72.59 23.381" id="brand-chevrolet" xmlns="http://www.w3.org/2000/svg"><path d="M49.28 4.402V0H23.276v4.402H6.93L0 18.756h23.276v4.625H49.28v-4.625h16.086L72.59 4.402zm13.077 9.917H45.474v4.437H27.362V14.32H6.932l2.727-5.702h17.703V4.402h18.112v4.215h19.892l-3.009 5.702z" fill-rule="evenodd"/></symbol><symbol viewBox="0 0 96 21.878" id="brand-chrysler" xmlns="http://www.w3.org/2000/svg"><path d="M8.665 5.324c-.9.081-1.8.144-2.78.144C2.704 5.468 0 4.62 0 2.729S2.703 0 5.886 0c.885 0 1.801.063 2.686.15l.17.91A17.77 17.77 0 005.886.838c-2.065 0-3.54.697-3.54 1.891 0 1.196 1.475 1.899 3.54 1.899a19.477 19.477 0 002.982-.229zm4.233-5.23v5.278h2.272V3.024h5.026v2.348h2.272V.095h-2.272v2.089H15.17V.094zm13.823 0v5.278h2.385V.87h2.235c1.368 0 1.734.356 1.734.735 0 .626-1.117.896-2.368.896-.233 0-.667-.032-.983-.048l3.117 2.919h2.653L32.54 2.959c1.786-.207 2.92-.562 2.92-1.527 0-.87-1.485-1.337-3.653-1.337zm15.287 3.047v2.231h2.518V3.228L48.66.095h-2.734l-2.568 2.144L40.89.095h-2.75zm9.11 1.148l.295.972c1.158.111 2.316.207 3.493.207 3.2 0 4.21-.76 4.21-1.378 0-1.28-5.02-1.85-5.02-2.689 0-.238.553-.563 1.95-.563a16.828 16.828 0 012.575.23l-.275-.925A32.53 32.53 0 0055.422 0c-2.98 0-4.1.64-4.1 1.322 0 1.25 5.02 1.962 5.02 2.721 0 .442-1.085.585-1.95.585a17.635 17.635 0 01-3.273-.34zM63.039.095v5.277h7.755v-.839h-5.237V.095zM83.26.934v-.84h-8.528v5.278h8.528v-.839h-5.884V3.086h5.131V2.31h-5.131V.933zm3.969-.84v5.278h2.384V.87h2.235c1.368 0 1.734.356 1.734.735 0 .626-1.116.896-2.367.896-.234 0-.668-.032-.986-.048l3.118 2.919H96l-2.95-2.413c1.783-.207 2.916-.562 2.916-1.527 0-.87-1.482-1.337-3.65-1.337zM57.639 13.12a6.048 6.048 0 01-1.425-.237 2.93 2.93 0 01.354.574 5.295 5.295 0 01.311.807s0-.334.428-.334 10.99 0 17.555-.286c2.912-.127 5.44-.282 7.448-.439a6.764 6.764 0 01-1.503.535c-1 .238-2.527.524-11.18.762-8.65.237-10.56.188-11.607.188-1.046 0-1.094-.142-1.094-.142a2.216 2.216 0 01.121.638 4.16 4.16 0 01-.025.869 1.127 1.127 0 011.046-.713c.903-.01 5.93-.08 14.588-.411.372-.016.73-.032 1.075-.05a12.988 12.988 0 01-3.913.815c-2.664.192-5.755.2-8.134.2-2.378 0-3.409.134-4.853 1.048-1.62 1.024-2.321 2.32-4.804 3.3a10.628 10.628 0 01-4.04.727v.06l-.001-.06a10.627 10.627 0 01-4.04-.726c-2.484-.981-3.183-2.277-4.804-3.301-1.444-.914-2.474-1.048-4.854-1.048-2.378 0-5.469-.008-8.134-.2a13.001 13.001 0 01-3.912-.815c.345.018.703.034 1.075.05 8.659.332 13.684.4 14.588.411a1.129 1.129 0 011.047.713 4.02 4.02 0 01-.026-.869 2.286 2.286 0 01.12-.638s-.047.142-1.094.142c-1.046 0-2.955.05-11.606-.188-8.653-.238-10.181-.524-11.18-.762a6.695 6.695 0 01-1.503-.535c2.007.157 4.535.312 7.45.439 6.564.286 17.125.286 17.553.286.428 0 .428.334.428.334a5.233 5.233 0 01.31-.807 2.862 2.862 0 01.357-.573 6.08 6.08 0 01-1.428.236c-.478.021-2.76.096-7.042.096-4.28 0-11.225-.285-15.935-.38a52.653 52.653 0 01-8.136-.762 7.85 7.85 0 001.62.571 39.424 39.424 0 004.786.558c.213.205 1.657 1.301 8.524 1.674.368.281 2.025 1.287 7.047 1.394 6.006.129 7.272.027 8.434.448 2.226.81 3.086 2.382 5.277 3.392a11.132 11.132 0 005.075 1.151h.006a11.128 11.128 0 005.075-1.151c2.191-1.01 3.05-2.582 5.276-3.392 1.164-.421 2.43-.32 8.437-.448 5.02-.107 6.679-1.113 7.046-1.394 6.866-.373 8.309-1.47 8.523-1.674a39.504 39.504 0 004.79-.558 7.813 7.813 0 001.617-.57 52.637 52.637 0 01-8.136.76c-4.709.096-11.655.381-15.937.381-4.28 0-6.563-.075-7.04-.096zm32.403-1.625s-.59 1.05-2.983 1.599a26.572 26.572 0 01-4.456.46 8.106 8.106 0 01-2.984 1.303 34.328 34.328 0 01-5.334.42s-.59.84-3.278 1.177a64.738 64.738 0 01-8.11.587c-3.068.043-4.034.38-4.706.674-1.766.773-3.11 2.184-5.378 3.236a11.662 11.662 0 01-4.826.924 11.663 11.663 0 01-4.827-.924c-2.269-1.052-3.612-2.463-5.378-3.236-.672-.295-1.638-.631-4.706-.674a64.776 64.776 0 01-8.11-.587c-2.69-.337-3.278-1.177-3.278-1.177a34.363 34.363 0 01-5.336-.42 8.116 8.116 0 01-2.983-1.303 26.57 26.57 0 01-4.455-.46c-2.394-.548-2.982-1.599-2.982-1.599s11.597.462 18.867.547c7.814.09 12.436.252 14.202-.126 1.764-.378 3.478-1.435 5.116-1.813a17.847 17.847 0 013.761-.48 17.795 17.795 0 013.991.504c1.635.402 3.34 1.41 5.104 1.789 1.764.378 6.387.216 14.2.126 7.272-.085 18.87-.547 18.87-.547zm-.461.127s-12.4.514-18.7.63c-6.807.127-7.564.084-11.093.084a11.436 11.436 0 01-6.01-1.26 14.877 14.877 0 00-11.584 0 10.965 10.965 0 01-6.01 1.26c-3.529 0-4.285.043-11.091-.084-6.303-.116-18.7-.63-18.7-.63s-.048.66 2.648 1.26a21.067 21.067 0 004.412.462s.461.715 2.858 1.261a39.494 39.494 0 005.461.462s.336.798 3.194 1.176a78.902 78.902 0 009.086.413c2.773.083 3.526.416 4.865 1.269a34.238 34.238 0 004.432 2.745 12.136 12.136 0 003.971.868 5.32 5.32 0 00.661.001h.012a5.278 5.278 0 00.66 0 12.151 12.151 0 003.972-.87 34.353 34.353 0 004.43-2.744c1.338-.853 2.093-1.186 4.866-1.269a78.888 78.888 0 009.086-.413c2.858-.378 3.193-1.176 3.193-1.176a39.506 39.506 0 005.462-.462c2.395-.547 2.858-1.261 2.858-1.261a21.072 21.072 0 004.413-.462c2.698-.6 2.648-1.26 2.648-1.26zM52.13 18.85a6.072 6.072 0 001.545-1.098 3.263 3.263 0 001.048-2.265 3.26 3.26 0 00-1.048-2.263 6.043 6.043 0 00-1.538-1.092 5.273 5.273 0 011.141 3.353 5.274 5.274 0 01-1.148 3.365zm-.947-1.57a8.972 8.972 0 01-.043.172l.009-.013.033.02-.361 1.386.225.161.423-1.867-.223-.104a6.566 6.566 0 00-.063.246zm-1.555 1.436l.435.588.27.37.168-.646.218-.826a1.697 1.697 0 01-.74.395c-.103.031-.222.07-.35.119zm-9.469-3.227c0-2.877 3.473-5.217 7.742-5.217 4.27 0 7.744 2.34 7.744 5.217 0 2.878-3.474 5.22-7.744 5.22-4.269 0-7.742-2.342-7.742-5.22zm10.349 4.51l.234-.907.432.312.225-1.087.273-1.323-.356-.164a1.873 1.873 0 01.092-.231l.139-.255a1.803 1.803 0 00.302-.949 1.606 1.606 0 00-.327-.981 3.83 3.83 0 01-.232-.415 3.545 3.545 0 01-.186-.506 1.632 1.632 0 00-.509-.9 3.057 3.057 0 00-1.102-.473l-.197-.055a2.273 2.273 0 01-.417-.19 2.057 2.057 0 00-1.017-.314 1.746 1.746 0 00-1.014.344 3.416 3.416 0 01-.413.232 2.598 2.598 0 01-.52.17 1.413 1.413 0 00-.74.361 1.76 1.76 0 00-.493.957c-.04.151-.082.309-.146.483a2.42 2.42 0 01-.209.418 1.859 1.859 0 00-.295.823 1.535 1.535 0 00.297 1.092c.079.137.167.289.261.483a3.154 3.154 0 01.225.62 1.114 1.114 0 00.45.715 2.198 2.198 0 00.909.437c.124.035.253.07.405.126a2.986 2.986 0 01.465.222 1.977 1.977 0 00.773.281 1.706 1.706 0 001.13-.293c.136-.07.288-.151.461-.229l.045-.017.469.608.483.63.072.093zm-9.962-4.512a3.736 3.736 0 001.204 2.64 8.81 8.81 0 006.15 2.19 10.803 10.803 0 002.432-.276l-.479-.622a4.43 4.43 0 111.681-1.413l-.313 1.518-.437-.317-.198.773c2.73-.707 4.67-2.452 4.67-4.493a3.735 3.735 0 00-1.205-2.64 8.82 8.82 0 00-6.15-2.189 8.821 8.821 0 00-6.151 2.19 3.74 3.74 0 00-1.204 2.64zm3.126 3.363a5.274 5.274 0 01-1.148-3.365 5.274 5.274 0 011.14-3.353 6.018 6.018 0 00-1.539 1.092 3.268 3.268 0 00-1.047 2.263 3.271 3.271 0 001.047 2.265 6.045 6.045 0 001.547 1.098zm6.383-4.756l.144-.073.003-.412-.145.08zm1.109.447l-5.8 3.26a.815.815 0 01-.175-.387 3.458 3.458 0 00-.25-.688 7.447 7.447 0 00-.2-.374l5.78-3.304a2.26 2.26 0 01.216.536 4.356 4.356 0 00.204.554 3.744 3.744 0 00.225.403zm-5.082 1.282c-.008-.053-.016-.082-.065-.074a9.33 9.33 0 00-.407.228c-.041.035-.06.063-.052.103l-.007 1.316a.078.078 0 00.108.076l.367-.206a.14.14 0 00.05-.085v-.37l-.172.085v.17c0 .064-.067.08-.143.118 0 0-.015.017-.023-.01l.005-1.071.156-.089v.293c.052-.031.132-.068.18-.096zm.673-.48l-.186.106-.003.613-.184.101.003-.6-.173.096-.003 1.5.18-.104.003-.665.167-.091-.002.657.191-.108.007-1.504zm.782.866c-.013.005-.078.044-.078.044l-.18-.358a.356.356 0 00.09-.067.16.16 0 00.028-.093v-.602a.086.086 0 00-.04-.068c-.039-.013-.05-.011-.103.01-.132.075-.237.14-.354.205v1.48l.165-.082.003-.685.058-.028.24.533h.02l.152-.094zm.5-1.578l-.186.104-.076.478c-.005.001-.18-.32-.18-.32l-.18.096.296.523-.004.793.181-.098.002-.726zm.603 1.057l.004-.71c-.007-.017-.012-.036-.04-.03a4.53 4.53 0 01-.265.145c-.012.009-.037 0-.04-.027.002-.13 0-.252.003-.376l.177-.1v.198l.153-.085.004-.309c-.002-.056-.01-.087-.069-.066-.042.022-.407.231-.407.231a.089.089 0 00-.016.065l-.003.755c.016.03.03.023.062.014l.25-.148.029-.01a.043.043 0 01.011.039l-.002.357v.03l-.178.104.002-.24-.164.087-.001.398s-.003.042.019.032c.044-.023.086-.048.087-.047.004 0 .35-.2.37-.217.02-.018.015-.09.015-.09zm.585-.422l-.237.127.007-1.296-.178.102-.007 1.478.413-.237zm.585-.337c-.001-.003-.286.178-.286.17v-.43l.196-.113.003-.241-.206.128.003-.427.276-.161.002-.218-.48.27-.005 1.492.495-.279zm.699-.392l-.078.043-.179-.357a.404.404 0 00.09-.066.152.152 0 00.026-.094v-.602a.082.082 0 00-.037-.068.121.121 0 00-.103.009c-.132.077-.239.143-.354.207l-.001 1.48.164-.083.003-.683.057-.03.241.534h.02c.044-.026.107-.064.15-.093zm-3.426 1.23l.143-.074.002-.412-.143.08zm2.807 2.458a4.987 4.987 0 00-.613.225 6.641 6.641 0 00-.485.241 1.35 1.35 0 01-.893.25 1.602 1.602 0 01-.64-.234 3.351 3.351 0 00-.52-.249c-.168-.06-.31-.1-.437-.135a1.824 1.824 0 01-.77-.368l-.058-.047 5.773-3.245a1.166 1.166 0 01.24.72 1.422 1.422 0 01-.252.773l-.144.264a3.044 3.044 0 00-.26.773 1.147 1.147 0 01-.941 1.032zm.195-2.686l.01.154c.001.018.01.025.02.016l.325-.25a.069.069 0 00.017-.047l-.008-.153c0-.017-.01-.024-.021-.015l-.324.25a.064.064 0 00-.019.045zm-.025.54c-.002.016.008.024.02.016l.345-.217a.058.058 0 00.022-.046l.007-.152c0-.017-.007-.024-.017-.017l-.348.217a.064.064 0 00-.022.045zm-2.521 1.884a.06.06 0 00.044.024l.153.012c.017 0 .027-.006.018-.018l-.204-.355a.064.064 0 00-.044-.024l-.153-.011c-.018-.001-.025.007-.019.019zm-.344-.433a.065.065 0 00-.04-.03l-.149-.038c-.017-.003-.026.004-.02.016l.144.382a.06.06 0 00.04.03l.148.038c.016.003.027-.004.022-.016zm.794.468a.056.056 0 00.048.017l.152-.016c.017 0 .023-.01.015-.02l-.262-.314a.076.076 0 00-.048-.016l-.153.013c-.016.003-.024.012-.014.022zm.419-.047a.054.054 0 00.05.011l.148-.036c.016-.003.021-.014.012-.024l-.305-.273a.066.066 0 00-.049-.008l-.15.037c-.016.003-.022.012-.011.022zm.43-.124a.062.062 0 00.051-.004l.137-.067c.016-.008.019-.02.007-.027l-.358-.198a.06.06 0 00-.05.002l-.137.07c-.015.007-.02.018-.007.025zm.391-.194a.054.054 0 00.048-.011l.122-.094c.013-.01.014-.022 0-.025l-.39-.127a.059.059 0 00-.046.015l-.123.09c-.014.013-.014.023-.001.029zm.354-.266a.055.055 0 00.044-.021l.098-.116c.012-.016.01-.026-.005-.026l-.406-.04a.066.066 0 00-.046.023l-.1.118c-.009.012-.006.025.008.027zm.314-.305a.06.06 0 00.043-.027l.085-.127c.008-.016.005-.027-.008-.027l-.408.007a.059.059 0 00-.043.029l-.085.126c-.01.015-.006.027.008.027zm.23-.346a.058.058 0 00.038-.031l.069-.138c.007-.016.002-.027-.011-.024l-.406.057a.074.074 0 00-.037.035l-.068.139c-.008.013-.002.024.01.023zm.166-.392a.06.06 0 00.029-.04l.04-.148c.006-.017-.002-.026-.014-.021l-.385.138a.055.055 0 00-.033.037l-.037.15c-.006.016 0 .025.013.02zm-2.539.698c.141-.055.28-.113.431-.185l-.002.215.627-.505c.007.096-.005.15.001.267l.488-.686s-.393.38-.404.378c-.011 0 .033-.257.03-.257l-.612.496.013-.178c-.15.114-.39.305-.572.455zm-.897.198a2.008 2.008 0 001.088.32 2.053 2.053 0 002.05-2.054v-.03l-.286.16a1.79 1.79 0 01-2.611 1.468zm-.168.094l.03.375a.065.065 0 00.031.042l.134.074c.015.007.025.004.024-.01l-.04-.407a.06.06 0 00-.03-.04l-.103-.06zm-.284.16l.006.006.128.085c.014.009.026.005.026-.01l-.004-.163zm-.215.121l.01-.005a2.809 2.809 0 001.76.637 2.742 2.742 0 002.742-2.741 2.795 2.795 0 00-.029-.41l.037-.022-.515.29.29-.161.047-.029a2.45 2.45 0 01.02.332 2.61 2.61 0 01-2.606 2.611h-.002a2.564 2.564 0 01-1.63-.571l.042-.025zm4.22.284c.02-.019.04-.033.063-.056a1.195 1.195 0 00.284-.648l.007-.027c-.004-.008.004-.02.004-.02a5.92 5.92 0 01.038-.158l.01-.037a2.61 2.61 0 01.206-.548l.069-.128.018-.033.058-.107.005-.01.007-.012a1.289 1.289 0 00.23-.715v-.033a.878.878 0 00-.081-.375l-.009-.02a2.03 2.03 0 00-.099-.186l-.5.282a2.393 2.393 0 01.034.438 2.797 2.797 0 01-2.794 2.793 2.713 2.713 0 01-1.806-.664l-.541.304a1.733 1.733 0 00.71.329l.146.042.005.001c.09.026.184.055.29.095a3.226 3.226 0 01.533.254 1.526 1.526 0 00.612.226.919.919 0 00.553-.098l.036-.015c.063-.03.133-.066.207-.106l.014-.007.038-.02c.14-.073.299-.158.488-.242a4.705 4.705 0 01.624-.227 1.241 1.241 0 00.533-.266m-.719-4.529L44.67 16.21a1.126 1.126 0 01-.225-.816 1.486 1.486 0 01.245-.672 2.878 2.878 0 00.237-.478 5.211 5.211 0 00.157-.52 1.402 1.402 0 01.386-.776 1.044 1.044 0 01.563-.265 2.905 2.905 0 00.594-.194 4.239 4.239 0 00.453-.254 1.363 1.363 0 01.81-.285 1.681 1.681 0 01.834.267 2.67 2.67 0 00.49.22l.205.057a2.7 2.7 0 01.972.41l.036.031-.732.417-.01.005zm-3.887 2.024l-.008-.15c-.002-.018-.01-.024-.022-.016l-.32.247a.068.068 0 00-.018.048l.008.151c.001.015.01.017.018.013l.026-.015.299-.23a.073.073 0 00.017-.048zm.05-.514c0-.019-.01-.027-.021-.02l-.342.215a.064.064 0 00-.023.046l-.006.15c-.001.018.008.025.02.018l.342-.215a.06.06 0 00.022-.044zm2.005-1.883a.054.054 0 00-.047-.016l-.15.015c-.018.001-.024.01-.015.02l.259.311a.068.068 0 00.048.016l.15-.013c.016-.003.023-.011.014-.02zm.421.362a.065.065 0 00.045.024l.15.012c.018 0 .026-.006.019-.019l-.201-.35a.066.066 0 00-.044-.024l-.152-.012c-.018-.001-.025.007-.018.02zm-.836-.31a.062.062 0 00-.049-.01l-.146.035c-.018.005-.022.015-.013.026l.303.269a.064.064 0 00.049.008l.147-.035c.016-.003.02-.015.011-.022zm-.426.126a.058.058 0 00-.05.001l-.136.068c-.015.007-.017.02-.005.026l.353.196a.068.068 0 00.049-.001l.136-.07c.015-.006.019-.018.006-.023zm-.374.197a.057.057 0 00-.049.01l-.119.093c-.014.01-.014.022-.001.026l.385.125a.063.063 0 00.048-.014l.12-.092c.014-.01.015-.022 0-.026zm-.344.261a.074.074 0 00-.044.022l-.097.116c-.012.014-.009.024.004.027l.403.038a.066.066 0 00.044-.023l.099-.117c.01-.012.008-.025-.006-.026zm-.287.296a.071.071 0 00-.041.028l-.085.126c-.008.016-.006.025.008.025l.405-.007a.057.057 0 00.042-.027l.084-.125c.01-.016.006-.027-.008-.026zm-.24.344a.056.056 0 00-.038.032l-.066.136c-.008.015-.003.026.01.024l.401-.06a.056.056 0 00.037-.031l.068-.137c.008-.016.003-.025-.011-.023zm-.176.388a.068.068 0 00-.03.038l-.04.149c-.005.016.003.024.016.021l.381-.136a.073.073 0 00.031-.039l.04-.147c.003-.016-.004-.026-.016-.02zm2.552-.768c-.122.055-.44.223-.444.212.008-.099.008-.173.013-.27l-.005-.001s-.676.585-.68.578a.963.963 0 00-.024-.217l-.526.675c.125-.098.352-.304.47-.404.005-.005.018.208.025.201l.593-.555c.008.006-.021.161-.02.217.007.003.012-.003.017-.004zm.796-.188a2.05 2.05 0 00-3.043 1.732l.267-.152a1.8 1.8 0 012.487-1.416zm-.306-.256a.07.07 0 00.04.031l.148.037c.016.003.024-.006.02-.018l-.144-.378a.065.065 0 00-.038-.03l-.148-.036c-.018-.004-.027.004-.021.016zm.5.145l-.03-.299a.058.058 0 00-.028-.038l-.134-.075c-.015-.007-.025-.003-.023.01l.038.403a.07.07 0 00.03.04l.039.021zm.264-.15l-.125-.081c-.014-.01-.025-.006-.025.007l.004.157zm.216-.123a2.732 2.732 0 00-4.39 2.179 2.833 2.833 0 00.02.308l.105-.06a2.79 2.79 0 01-.013-.248 2.613 2.613 0 014.152-2.107zm-.653-.886a4.704 4.704 0 01-.273-.137 1.626 1.626 0 00-.797-.258 1.288 1.288 0 00-.77.274 4.428 4.428 0 01-.46.259 2.89 2.89 0 01-.607.199.962.962 0 00-.529.246 1.32 1.32 0 00-.364.736l-.001.006c-.042.155-.087.328-.16.523a3.034 3.034 0 01-.242.491 1.42 1.42 0 00-.235.642 1.27 1.27 0 00-.01.146 1.042 1.042 0 00.187.556l.497-.283a2.846 2.846 0 01-.025-.335 2.784 2.784 0 014.49-2.207l.625-.355a2.054 2.054 0 00-.495-.238l-.011-.003a6.38 6.38 0 00-.382-.115l-.204-.056a1.766 1.766 0 01-.233-.09" fill-rule="evenodd"/></symbol><symbol viewBox="0 0 42.5 42.226" id="brand-fiat" xmlns="http://www.w3.org/2000/svg"><path d="M10.524 13.061h5.108v1.885l-3.347.005.006 5.097 2.627.004.01 1.91-2.635-.006-.01 8.173h-1.759V13.06zm5.904-.05h1.759V30.13h-1.759V13.01zM26.1 30.08h-1.758l-.012-8.137h-2.423l-.038 8.139-1.589-.002V13.011h4.148L26.1 16.39v13.69zm-1.757-10.41h-2.429v-4.773l1.507-.005.922 2.237v2.541zm2.15-6.609h5.387l-.019 1.917-1.762-.005-.02 15.106H28.32l-.079-15.095-1.751-.011.002-1.912zM21.25 42.226A21.113 21.113 0 1142.5 21.113a21.184 21.184 0 01-21.25 21.113zM3.497 12.61c.48-2.967 2.378-5.154 5.424-6.916 6.65-4.388 17.201-4.454 24.795.154a9.64 9.64 0 015.063 6.446 30.503 30.503 0 01-3.194 21.165c-3.702 8.474-23.286 8.618-27.887.99C3.8 29.164 1.902 20.36 3.497 12.607zm28.697 22.099c-4.387 4.448-18.959 3.493-21.633 0a46.344 46.344 0 01-4.045-22.05Q6.34 8.92 8.969 7.62c6.084-2.732 18.25-3.032 23.893-.11 2.33.901 3.183 3.144 3.088 6.413a52.677 52.677 0 01-3.756 20.785z" fill-rule="evenodd"/></symbol><symbol viewBox="0 0 80.334 30.388" id="brand-ford" xmlns="http://www.w3.org/2000/svg"><path d="M40.18 0C17.979 0 0 6.813 0 15.207c0 8.394 17.979 15.181 40.18 15.181 22.175 0 40.154-6.787 40.154-15.181C80.334 6.813 62.355 0 40.18 0zm0 28.834c-21.295 0-38.6-6.062-38.6-13.627 0-7.539 17.305-13.679 38.6-13.679 21.346 0 38.626 6.14 38.626 13.679 0 7.565-17.28 13.627-38.626 13.627zm15.854-11.036l.285.077a14.688 14.688 0 01-1.787 2.384c-1.606 1.632-2.643 1.088-2.876.906a1.803 1.803 0 01-.31-1.476 5.58 5.58 0 011.036-2.306c.932-1.14 2.072-1.917 2.98-1.813 1.113.13 1.216 1.217.672 2.228zM40.18 2.668c-20.673 0-37.382 5.622-37.382 12.539 0 6.943 16.71 12.565 37.382 12.565 20.647 0 37.408-5.622 37.408-12.565 0-6.917-16.761-12.539-37.408-12.539zm-18.316 20.26a4.086 4.086 0 01-4.3-4.12 4.557 4.557 0 013.679-4.17c.285 0 .388.103.388.258 0 .104-.103.233-.336.337a3.718 3.718 0 00-1.917 2.901 2.286 2.286 0 001.606 2.254 2.854 2.854 0 00.803.052c2.513 0 5.336-2.824 8.393-7.124-.492.026-2.59.259-3.108.855-.233.181-.389.077-.44-.13a.92.92 0 01.155-.337c.829-.932 3.316-1.14 3.911-1.217 2.233-3.423 5.077-5.606 5.861-5.763l-.057-.014a25.31 25.31 0 00-5.234-.855c-5 0-7.227 2.15-7.124 4.119a1.264 1.264 0 001.658 1.14 4.503 4.503 0 002.85-2.02.277.277 0 01.363-.156.31.31 0 01.103.31c-.13 1.01-1.684 3.809-4.378 3.809a2.635 2.635 0 01-2.487-2.772c.026-2.565 2.643-5.156 9.093-5.156a24.135 24.135 0 014.094.363 66.415 66.415 0 009.584 1.088 30.1 30.1 0 004.3-.155 9.49 9.49 0 011.685-.285c.518 0 .518.207.518.414 0 .83-2.902 2.41-5.363 2.41-3.626 0-7.389-1.644-9.342-2.173a.287.287 0 01.068.333 2.763 2.763 0 01-.388.415 16.01 16.01 0 00-4.197 4.844 33.458 33.458 0 003.367-.388 2.521 2.521 0 01-.103-.622c.077-1.114.725-1.788 1.554-1.658a.91.91 0 01.777.88 2.3 2.3 0 01-.673 1.4 4.767 4.767 0 01-.803.518c0 .285.388.518.725.544-.078.285-.052.414-.181.388a1.252 1.252 0 01-1.088-.75c-1.036.18-2.047.31-4.094.517-5.155 8.342-6.761 9.715-9.922 9.715zm35.517-1.374c1.114-.052 3.16-2.176 3.653-2.694.104-.13.285-.363.389-.363s.31.104.31.26a2.433 2.433 0 01-.414.725c-1.036 1.295-2.746 3.29-4.689 3.341-.958 0-1.321-.388-1.45-1.14a6.273 6.273 0 01-3.472 1.063 2.108 2.108 0 01-2.047-1.373 3 3 0 01-.155-1.943 4.29 4.29 0 01-2.28.388 2.03 2.03 0 01-2.098-1.787c-1.244 2.28-1.295 2.357-2.565 4.74h-2.202l2.824-4.792a6.29 6.29 0 00.674-1.71.511.511 0 00-.493-.621 2.873 2.873 0 00-1.528.906 29.496 29.496 0 00-2.513 3.135c-1.01 1.502-2.746 3.212-4.637 3.212a2.733 2.733 0 01-2.876-2.202s-.13.337-1.347 1.036c-.103.052-.362.208-.44.156a1.169 1.169 0 01-.389-.648c.078.026.233-.103.726-.492a3.378 3.378 0 001.165-1.295c.234-.493.648-1.27.933-1.814a5.133 5.133 0 014.326-3.212.532.532 0 01.544.285.48.48 0 01.13.466 4.94 4.94 0 00-3.264 2.02 5.684 5.684 0 00-.881 2.177 1.733 1.733 0 001.192 2.124c1.502.233 2.746-.855 3.73-2.539a5.85 5.85 0 00.44-2.202 2.448 2.448 0 00-.595-1.528.66.66 0 01.621-.725.38.38 0 01.311.103 3.475 3.475 0 01.803 2.254 3.919 3.919 0 01-.052.777c1.088-1.321 2.461-3.03 3.524-3.368a1.316 1.316 0 01.621-.103 1.472 1.472 0 011.684 1.71c1.036-1.192 1.762-1.633 2.72-1.58a1.338 1.338 0 011.4 1.347 1.488 1.488 0 01-1.373 1.476 1.377 1.377 0 01-1.426-1.036 1.275 1.275 0 00-.828 1.191 1.288 1.288 0 001.32 1.529 3.358 3.358 0 002.566-1.088c1.76-1.658 2.745-3.394 5.284-3.368a2.374 2.374 0 012.176 1.762l3.342-5.648h2.047l-5.544 9.819a2.006 2.006 0 00-.337.906c.052.493.674.363.44.363zm-21.087-9.611a1.672 1.672 0 010-1.01.827.827 0 01.726-.648c.18-.026.259.155.284.31a1.381 1.381 0 01-.362.933c-.389.44-.648.415-.648.415z" fill-rule="evenodd"/></symbol><symbol viewBox="0 0 49.403 40.095" id="brand-honda" xmlns="http://www.w3.org/2000/svg"><path d="M49.316 11.725c-.17-2.854-.592-5.968-2.707-8.08-1.93-1.925-4.713-2.465-7.305-2.812A110.1 110.1 0 0024.702.002V0c-.477 0-1.483.002-2.81.028a101.351 101.351 0 00-11.793.805 17.949 17.949 0 00-4.901 1.202q-.13.05-.255.102C1.395 3.625.57 7.415.381 8.925a26.73 26.73 0 00-.293 2.8 81.568 81.568 0 00.176 9.91A53.846 53.846 0 001.63 31.33a13.173 13.173 0 001.718 4.204 7.819 7.819 0 003.319 2.672c2.806 1.283 6.045 1.392 9.075 1.58 2.973.184 5.966.295 8.96.31 2.996-.015 5.988-.126 8.961-.31 3.03-.188 6.269-.297 9.075-1.58a7.817 7.817 0 003.32-2.672 13.183 13.183 0 001.717-4.204 53.844 53.844 0 001.365-9.696 81.568 81.568 0 00.177-9.91zM6.387 34.717c-1.898-2.044-2.149-5.495-2.513-8.131a78.553 78.553 0 01-.66-11.597c.034-3.023-.189-6.857 1.726-9.41C5.95 4.23 7.636 3.781 9.17 3.337a.487.487 0 01.428.241c-.013.51-.107 5.359.56 13.924l.013.17q.066.843.142 1.732l.034.386.054.62.058.635.038.401.074.784.013.131.043.436.024.25c.32 4.132.713 8.258 1.237 12.376.043.414.074.694.094.877-.033 1.987-4.945-.88-5.595-1.583zm25.479 2.706H17.538a.24.24 0 01-.06-.273c.091-.34 1.455-4.735 1.455-4.735.895-2.922.957-3.115 3.255-3.565a12.652 12.652 0 015.028 0c2.297.45 2.36.643 3.254 3.565 0 0 1.365 4.396 1.455 4.735a.239.239 0 01-.06.273zm3.143-32.675c-.88 3.32-1.845 7.255-2.734 10.49a25.743 25.743 0 01-2.366 6.142l-.001.003a4.758 4.758 0 01-2.841 1.94 16.365 16.365 0 01-2.365.116 16.389 16.389 0 01-2.363-.116 4.748 4.748 0 01-2.822-1.91l-.021-.033a25.962 25.962 0 01-2.385-6.206c-.882-3.215-1.836-7.109-2.71-10.401l-.453-1.79a.225.225 0 01.179-.227c.072-.018.17-.038.308-.06.234-.03.562-.054 1.01-.115.105-.014.216-.027.325-.04a49.07 49.07 0 012.344-.126c3.805-.126 6.446-.15 6.588-.152.142.002 2.783.026 6.588.152 1.005.033 1.765.079 2.341.126.11.013.221.026.327.04.45.061.779.085 1.013.114.137.023.234.043.306.06a.225.225 0 01.179.228l-.447 1.765zm10.52 21.838c-.364 2.636-.615 6.087-2.513 8.131-.667.722-5.833 3.73-5.588 1.412.948-7.24 1.472-14.502 1.922-21.789.132-3.058.307-6.121.349-9.18.044-.517-.277-1.79.534-1.823 1.534.444 3.22.892 4.23 2.242 1.915 2.553 1.693 6.388 1.727 9.41a78.362 78.362 0 01-.66 11.597z" fill-rule="evenodd"/></symbol><symbol viewBox="0 0 60.518 30.839" id="brand-hyundai" xmlns="http://www.w3.org/2000/svg"><path d="M36.594 18.983c.46 2.381-.788 4.359-1.825 6.28-1.152 1.785-3.053 3.321-5.338 3.09a54.212 54.212 0 01-14.787-2.265.912.912 0 01-.537-.384.64.64 0 01.23-.691c4.244-3.438 9.294-5.032 14.287-6.702a14.556 14.556 0 015.934-.845 2.587 2.587 0 012.036 1.517zM54.088 8.805c2.381 1.959 4.532 4.628 3.802 7.854-1.19 4.763-6.375 7.297-10.504 8.91a31.15 31.15 0 01-6.97 1.748c-.154-.02-.404.02-.442-.212l.057-.268a62.062 62.062 0 008.47-12.828 105.965 105.965 0 002.995-6.125.98.98 0 01.422-.288 4.984 4.984 0 012.17 1.21zm-33.51-5.07l-.077.289c-5.05 5.742-8.372 12.405-11.522 19.03-.614.576-1.21-.192-1.766-.442-2.804-1.843-5.34-4.82-4.61-8.353 1.172-4.609 5.915-7.067 9.871-8.737a37.06 37.06 0 017.355-1.997c.27 0 .615-.039.749.21zm25.06.923c.289.153.634.21.807.499.154.326-.153.538-.326.749-3.975 3.11-8.527 4.839-13.174 6.356-2.362.576-4.743 1.613-7.374 1.037a2.447 2.447 0 01-1.517-1.152c-.653-1.805.23-3.687.998-5.262 1.018-1.978 2.823-4.301 5.32-4.34a55.017 55.017 0 0115.267 2.113zm6.645.153c4.071 2.228 8.68 6.145 8.2 11.368-.557 4.84-5.07 8.22-9.103 10.255-11.771 5.626-28.305 5.799-40.461.883C6.809 25.607 2.2 22.67.472 18.253c-1.325-3.63.288-7.412 2.996-9.928C9.133 3.18 16.353 1.412 23.785.395A54.653 54.653 0 0147.56 2.756a38.198 38.198 0 014.724 2.055z" fill-rule="evenodd"/></symbol><symbol id="brand-jaguar" viewBox="0 0 79.269 40.48" xmlns="http://www.w3.org/2000/svg"><defs><style>.apcls-1{fill-rule:evenodd}</style></defs><path class="apcls-1" d="M53.226 16.383a5.03 5.03 0 003.042 1.321l1.77.118c1.305.09 1.575.72 1.575.72 1.13 1.985 3.958 3.059 3.958 3.059a10.244 10.244 0 01-3.104-3.329c-.854-1.26-2.923-1.26-2.923-1.26H56.33a9.33 9.33 0 01-3.104-.629zM66.25 22.35a7.131 7.131 0 00-2.08-.51 5.21 5.21 0 011.5.72.998.998 0 01.27 1.409c-.71 1.258-3.5.628-3.5.628 2.969 1.978 4.214.494 4.214.494a1.573 1.573 0 00.374-1.934 5.842 5.842 0 005.488-1.708s-2.999 2.398-6.266.9zM15.36 1.23s-1.754.21-2.594.194c0 0-.18.03-.18.15 0 0 .06.21.435.21a5.709 5.709 0 002.339-.554zm18.285 12.85a53.098 53.098 0 006.268.019 4.645 4.645 0 011.44.103c1.748.26 2.023 1.079 2.023 1.079s3.104 6.387 9.22 6.23l2.888.016c2.609 0 6.09 2.562 6.09 2.562-.719-.54-2.188-1.949-2.188-1.949a8.37 8.37 0 00-4.861-1.662l-3.038-.017a7.664 7.664 0 01-7.301-5.27 2.673 2.673 0 00-2.474-1.53c-.132 0-.263-.006-.39 0-5.697.285-7.562-.17-7.562-.17a17.744 17.744 0 01-3.753-1.497 4.093 4.093 0 00-.27-2.369 7.7 7.7 0 004.018.39 18.33 18.33 0 01-5.277-2.339s1.05 3.029.18 4.168c0 0-.57 2.099-5.787.39a13.018 13.018 0 00-3.838-.84s-1.35.06-1.35.75a.556.556 0 00.33.48.693.693 0 01.15.869.976.976 0 00.39-.96s-.06-.3.21-.36c0 0 .72-.299 2.758.45 0 0 3.299 1.5 5.188 1.5 0 0 2.038-.12 2.788-1.02a17.445 17.445 0 004.148.978z"/><path class="apcls-1" d="M10.105 8.827a1.849 1.849 0 001.237-.619 5.725 5.725 0 013.508-1.686c2.642-.18 5.858 2.384 5.858 2.384-2.271-3.025-4.666-3.228-4.666-3.228a1.202 1.202 0 01-.832-.72c-.765-1.405-1.63-1.472-1.63-1.472a2.405 2.405 0 01.381 1.383c0 1.473-2.203 1.686-2.203 1.686-.877 1.732-1.616 1.631-1.616 1.631a.512.512 0 01-.494-.225c-.09-.135.06-.255.06-.255a4.314 4.314 0 00.464-.344 3.457 3.457 0 001.515-2.46 1.6 1.6 0 00-1.47-1.544 1.035 1.035 0 00-.84.36 15.268 15.268 0 00-.809 1.32c-.435.72-.825.614-.825.614a1.138 1.138 0 01-.839-.42.495.495 0 01-.05-.053.46.46 0 01-.04-.486 2.928 2.928 0 011.769-1.14c.042-.011.082-.024.123-.036 0 0 .106-.026.224-.065l-.007-.007c1.553-.547 1.684-1.361 1.684-1.361a2.138 2.138 0 00-1.02-.285 1.51 1.51 0 00-1.258.99l-.225-.236s-.102-.124.056-.27c0 0 .708-.873 3.302-1.263a18.618 18.618 0 014.887-.015 3.834 3.834 0 01-3.763 1.035s-.03.659 1.769.989a8.203 8.203 0 014.273 2.474 8.927 8.927 0 00-2.669-2.94.153.153 0 01-.015-.254 3.05 3.05 0 012.07-1.004s6.131.315 9.58 3.913a5.132 5.132 0 00-.645-1.47s-.106-.104-.045-.18c0 0 .045-.15.644-.03a46.922 46.922 0 017.271 2.22l5.503 1.964s1.919.704 2.983 1.184a8.533 8.533 0 00-3.283.51s-.047.03-.025.069c0 0 .012.04.107.022a5.893 5.893 0 013.548.27 14.767 14.767 0 013.187 1.85s.956.832 1.563 1.506a18.972 18.972 0 003.059 2.272s-1.327-1.26-2.429-2.429c0 0-1.574-1.889-2.294-2.519 0 0 5.43 2.547 10.323 5.308.877.495 3.71 2.136 3.71 2.136a40.203 40.203 0 005.438 2.793 5.221 5.221 0 004.498-.06l.097-.044c1.32-.684 1.621-.468 1.621-.468a.762.762 0 01.465.922c.57-.585.519-.902.519-.902-.019-1.002-1.116-.92-1.116-.92a9.489 9.489 0 00-1.83.908l-.176.114a5.628 5.628 0 01-3.808.06 39.579 39.579 0 01-5.506-2.763s-5.037-2.99-9.377-5.172c0 0-5.42-2.811-12.684-5.96C38.912 6.41 25.06 0 14.85 0c0 0-5.292-.067-7.084 1.968a1.003 1.003 0 00-.158.585.153.153 0 01-.044.146 7.792 7.792 0 00-1.428 1.26.698.698 0 00-.068.876s.225.36.428.63l.003-.003a1.748 1.748 0 001.424.733.762.762 0 01.338.057 1.59 1.59 0 00.45.27h.37s.08-.011.09-.079a2.038 2.038 0 00-.067-.337.778.778 0 01-.124-.619 2.208 2.208 0 01.439-.967.653.653 0 01.832-.033 1.448 1.448 0 01.416 1.63s-.36.675-.754.675a.43.43 0 01-.393-.135l-.259-.034s-.079 0-.079.067l.012.191a.277.277 0 00.056.17.23.23 0 01-.011.28.519.519 0 00-.124.551s.225.945.99.945zm-.293-6.503a1.17 1.17 0 01-1.049.51.78.78 0 011.05-.51zM7.8 3.002c.258-.1.292.045.292.045.011.124-.135.169-.135.169a6.4 6.4 0 00-1.293 1.091c-.1.112-.168.056-.168.056-.124-.113 0-.259 0-.259A7.851 7.851 0 017.8 3.002z"/><path class="apcls-1" d="M21.671 5.877a2.887 2.887 0 00-.3 3.478c-3.868-.12-4.977.96-4.977.96a2.795 2.795 0 00-1.2 3.178c1.08 1.71 2.34.51 2.34.51-1.8.36-1.77-1.23-1.77-1.23.39-2.758 3.988-2.638 3.988-2.638a56.828 56.828 0 017.886.87c-3.628-.84-4.738-1.74-4.738-1.74-1.529-.93-1.229-3.388-1.229-3.388zm28.567 29.585a8.42 8.42 0 00.178-2.049v-5.281H49.25v5.678a7.145 7.145 0 01-.133 1.492c-.323 1.573-1.514 2.152-3.302 2.152a3.2 3.2 0 01-2.429-.87 3.785 3.785 0 01-.618-2.663v-5.79h-1.896v5.89a4.13 4.13 0 00.955 3.142 5.771 5.771 0 003.949 1.107c2.494 0 3.985-.832 4.462-2.808zm13.253 2.588h2.257l-4.842-9.918h-1.178l-4.948 9.917h1.203l1.338-2.784h4.921l1.25 2.784zm-3.65-8.038l2.088 4.578h-4.283l2.195-4.578zM18.338 38.05h2.256l-4.843-9.918h-1.178l-4.948 9.917h1.203l1.34-2.784h4.92l1.25 2.784zm-3.652-8.038l2.089 4.578h-4.283l2.194-4.578zM30.92 38.27a10.385 10.385 0 003.91-.737V33.49h-1.895v3.62a6.672 6.672 0 01-2.14.35 3.977 3.977 0 01-4.163-4.252 4.229 4.229 0 014.552-4.474 5.739 5.739 0 013.318 1.16v-1.178a7.994 7.994 0 00-3.452-.772 6.938 6.938 0 00-5.14 1.974 5.232 5.232 0 00-1.378 3.416c0 3.808 3.113 4.936 6.388 4.936zm46.164-.22h2.185l-2.916-4.027a3.062 3.062 0 002.186-2.827 2.81 2.81 0 00-.656-1.958c-.81-.895-2.267-1.106-3.722-1.106h-3.588v9.917h1.896v-3.808h1.988l2.627 3.808zm-3.22-9.23c1.52 0 2.738.634 2.738 2.31a2.272 2.272 0 01-.803 1.86 3.14 3.14 0 01-2.11.575h-1.22V28.82zM1.615 40.088a4.686 4.686 0 002.429-4.45v-7.506H2.147v6.237a21.098 21.098 0 01-.11 2.633A4.453 4.453 0 010 40.48a3.825 3.825 0 001.615-.392z"/></symbol><symbol viewBox="0 0 92.43 13.531" id="brand-karma" xmlns="http://www.w3.org/2000/svg"><path d="M70.542.152l1.825 12.962c-.54 0-1.032.013-1.521-.014-.077-.004-.192-.182-.21-.293-.248-1.592-.483-3.185-.722-4.779l-.358-2.372a2.855 2.855 0 00-.1-.31l-4.514 8.185-4.491-8.108-.114.011-1.13 7.657h-1.682L59.343.156l.108-.032 5.494 9.925L70.43.14zm-25.355 7.38a10.216 10.216 0 001.796-.59 3.254 3.254 0 001.661-3.336 2.932 2.932 0 00-2.08-2.789 7.893 7.893 0 00-2.24-.397C42.737.362 41.147.402 39.558.402c-.485 0-.486.002-.486.482l.001 11.122c0 .35-.104.847.078 1.012.207.188.682.09 1.042.097.497.01.498.002.498-.494 0-3.425.004-6.85-.006-10.275 0-.32.09-.429.417-.424 1.07.018 2.142-.017 3.212.019a5.931 5.931 0 011.486.245 1.501 1.501 0 011.067 1.248 1.98 1.98 0 01-1.745 2.505c-1.023.122-2.066.075-3.1.104-.158.005-.316.015-.556.026.15.191.245.32.348.443 1.72 2.045 3.448 4.081 5.15 6.14a1.112 1.112 0 001.045.474c.434-.037.874-.008 1.312-.008l.03-.097L44.83 7.6c.18-.033.271-.04.356-.068zM86.288 0l-6.22 13.118c.449 0 .823-.027 1.192.007a.673.673 0 00.77-.473c1.324-2.847 2.673-5.683 4.016-8.52.062-.132.138-.257.25-.464.237.504.437.926.633 1.349q1.795 3.873 3.593 7.744c.062.135.19.329.298.336.508.036 1.021.016 1.61.016zM17.926 13.118c.46 0 .837-.027 1.208.008a.652.652 0 00.745-.458c1.326-2.848 2.675-5.685 4.019-8.524.063-.134.135-.263.238-.461.096.176.161.282.214.395q.744 1.6 1.484 3.202 1.276 2.754 2.556 5.506c.058.125.178.305.278.312.511.032 1.025.014 1.62.014L24.145 0l-6.22 13.118zM4.464 6.911c-.232-.224-.24-.354-.009-.586Q7.167 3.595 9.857.842c.111-.113.216-.232.324-.348L10.15.403c-.525 0-1.05-.02-1.574.01a.908.908 0 00-.546.233Q5.19 3.498 2.373 6.373c-.072.074-.134.157-.212.248.084.092.15.173.224.246q3.11 3.03 6.224 6.058c.066.064.146.16.22.162.626.013 1.252.008 1.878.008l.086-.141a3.005 3.005 0 01-.405-.284c-1.975-1.918-3.943-3.845-5.924-5.759zM.49.401C.005.404.003.405.003.885v11.75c0 .059.006.118 0 .176-.021.223.066.323.3.31.27-.013.542-.001.812-.002.46-.001.462-.001.462-.46V.403H.49z"/></symbol><symbol id="brand-kia" viewBox="0 0 62.279 31.253" xmlns="http://www.w3.org/2000/svg"><defs><style>.arcls-1{fill-rule:evenodd}</style></defs><path d="M31.14 0C13.942 0 0 6.996 0 15.626s13.942 15.627 31.14 15.627 31.139-6.996 31.139-15.627S48.338 0 31.139 0zm0 29.285c-15.16 0-27.492-6.128-27.492-13.659S15.98 1.97 31.139 1.97c15.159 0 27.492 6.125 27.492 13.656S46.298 29.285 31.139 29.285z"/><path class="arcls-1" d="M28.111 8.619h.503a.31.31 0 01.313.313v14.285a.33.33 0 00.335.335h3.74a.332.332 0 00.337-.335V7.997a.337.337 0 00-.336-.336H28.11c-.048 0-.048.046-.048.082v.794c0 .035 0 .082.048.082zm8.435 14.933h3.672a.512.512 0 00.441-.33l3.133-9.862c0-.002.036-.137.153-.137.111 0 .149.136.15.137l3.166 9.862a.51.51 0 00.443.33h3.671a.288.288 0 00.243-.117.35.35 0 00.055-.293l-5.11-15.26a.423.423 0 00-.445-.221h-5.863a.087.087 0 00-.084.082v.794a.089.089 0 00.084.082h.432a.279.279 0 01.313.273.537.537 0 01-.037.18l-4.715 14.071a.337.337 0 00.056.29.295.295 0 00.242.119zM11.556 8.619a.31.31 0 01.314.313v14.285a.33.33 0 00.334.335h3.637a.334.334 0 00.332-.335V17.21c0-.131.06-.206.167-.206a.27.27 0 01.23.152.24.24 0 00.014.021l4.284 6.01a.8.8 0 00.583.365h4.318a.318.318 0 00.226-.521l-5.468-7.735c-.017-.024-.023-.039-.034-.056a.247.247 0 01-.027-.069.203.203 0 01-.01-.051.482.482 0 01.066-.2l.005-.008 4.57-6.767a.32.32 0 000-.322.305.305 0 00-.263-.162h-4.1a.812.812 0 00-.587.365l-3.563 5.038c-.111.166-.22.174-.241.174h-.003a.158.158 0 01-.167-.168V7.997a.335.335 0 00-.332-.336h-4.788a.086.086 0 00-.083.082v.794a.087.087 0 00.083.082z"/></symbol><symbol viewBox="0 0 42.5 42.522" id="brand-mercedes" xmlns="http://www.w3.org/2000/svg"><path d="M31.112 2.41A21.27 21.27 0 0011.41 40.112 21.27 21.27 0 0031.112 2.41zM2.122 21.25A19.134 19.134 0 0120.698 2.123l-2.41 17.402L11.41 24.9l-6.988 5.46a19.137 19.137 0 01-2.3-9.11zm28.99 16.407a19.108 19.108 0 01-26.048-6.235l6.346-2.61 9.818-4.024 9.884 4.002 6.369 2.587a19.006 19.006 0 01-6.369 6.28zm0-12.803l-6.833-5.329-2.432-17.402a19.104 19.104 0 0118.53 19.127 18.947 18.947 0 01-2.277 9.066z" fill-rule="evenodd"/></symbol><symbol viewBox="0 0 75.49 33.173" id="brand-mini" xmlns="http://www.w3.org/2000/svg"><path d="M75.49 7.696H51.68a16.58 16.58 0 00-27.998 0H0l2.41 2.414h19.997a16.464 16.464 0 00-.88 2.718H5.122l2.41 2.414h13.621a17.07 17.07 0 00-.059 1.345c0 .463.024.92.062 1.373H10.244l2.41 2.415h8.88a16.463 16.463 0 00.887 2.718h-7.055l2.41 2.414H23.7a16.58 16.58 0 0027.96 0h6.053l2.41-2.414H52.94a16.463 16.463 0 00.887-2.718h9.008l2.41-2.415h-11.04a16.4 16.4 0 00.061-1.373c0-.454-.023-.9-.058-1.345h13.75l2.409-2.414H53.835a16.464 16.464 0 00-.88-2.718H73.08zm-37.745 23.08a14.162 14.162 0 1114.162-14.162 14.162 14.162 0 01-14.162 14.162z"/><path d="M30.463 18.673l-1.923-5.816h-2.18v7.471h1.592v-5.54l1.678 5.54h1.649l1.684-5.54v5.54h1.591v-7.471h-2.185l-1.906 5.816zm13.864-.344l-2.995-5.472h-1.76v7.471h1.478v-5.237l2.994 5.281 1.78-.044v-7.471h-1.478l-.019 5.472zm-8.037-5.478h1.515v7.471H36.29zm11.26 0h1.515v7.471H47.55z"/></symbol><symbol id="brand-mitsubishi" viewBox="0 0 42.5 36.663" xmlns="http://www.w3.org/2000/svg"><defs><style>.aucls-1{fill-rule:evenodd}</style></defs><path class="aucls-1" d="M21.25 0l-6.986 12.188 6.986 12.286 7.083-12.286L21.25 0z"/><path class="aucls-1" d="M0 36.663h14.167l7.083-12.189H7.375L0 36.663zm35.319-12.189H21.25l7.18 12.189H42.5l-7.181-12.189z"/></symbol><symbol id="brand-nissan" viewBox="0 0 42.5 36.235" xmlns="http://www.w3.org/2000/svg"><defs><style>.avcls-1{fill:#1a1617;fill-rule:evenodd}</style></defs><path class="avcls-1" d="M42.434 14.923c-.023-1.345-1.054-1.371-1.054-1.371q-.91-.141-1.844-.265A18.851 18.851 0 0021.26 0 18.862 18.862 0 003.038 13.106c-.504.098-.966.194-1.441.294-1.34.243-1.43 1.187-1.43 1.247a34.504 34.504 0 000 6.636 1.286 1.286 0 001.338 1.37c.443.095.94.183 1.47.265A18.849 18.849 0 0021.26 36.235 18.853 18.853 0 0039.52 23c1.142-.145 1.777-.248 1.777-.248 1.079-.093 1.102-1.38 1.102-1.392.197-1.879.046-6.437.035-6.437zM21.26 4.42a14.367 14.367 0 0113.19 8.322 209.74 209.74 0 00-26.26-.251 14.38 14.38 0 0113.07-8.07zm9.55 15.66h-1.453l-.437-.806h-2.326l-.364.805h-1.454l2.036-4.542h1.817zm-9.887-1.686a1.218 1.218 0 01-1.018-1.172v-.22a1.444 1.444 0 011.163-1.465h3.272v1.172h-2.981v.66h2.472a1.304 1.304 0 01.872 1.172v.22a1.363 1.363 0 01-.8 1.318h-3.925v-1.098h3.417v-.587zm-5.235 0a1.218 1.218 0 01-1.018-1.172v-.22a1.444 1.444 0 011.164-1.465h3.271v1.172h-2.98v.66h2.471a1.304 1.304 0 01.873 1.172v.22a1.363 1.363 0 01-.8 1.318h-3.926v-1.098h3.417v-.587zm-1.89-2.857v4.542h-1.6v-4.542zM7.4 17.076v3.003H6.018v-4.542h2.327l1.672 3.224v-3.224h1.164v4.542H9.072zm13.86 14.739a14.365 14.365 0 01-13.203-8.352c6.218.467 13.385.499 13.385.499 5.044.082 9.55-.153 12.991-.437a14.368 14.368 0 01-13.173 8.29zm15.222-11.736H34.3l-1.744-3.077v3.077h-1.382v-4.542h2.4l1.526 3.15v-3.15h1.382z"/><path class="avcls-1" d="M27.757 16.783l-.654 1.318h1.308l-.654-1.318z"/></symbol><symbol viewBox="0 0 35.948 46.787" id="brand-porsche" xmlns="http://www.w3.org/2000/svg"><path d="M13.31 17.696c0-.06-.034-.101-.12-.142l-.413-.192a.405.405 0 01-.262-.408.468.468 0 01.495-.5.49.49 0 01.528.531h-.27c-.028-.18-.102-.255-.254-.255-.135 0-.232.079-.232.19a.142.142 0 00.095.124l.424.196a.396.396 0 01.276.414.515.515 0 01-.17.393.486.486 0 01-.359.117.51.51 0 01-.479-.237.584.584 0 01-.079-.31h.267c.034.192.122.271.3.271.15 0 .253-.079.253-.192zm9.613.436h.278v-1.348h.4v-.298h-1.087v.298h.409zm-7.427.032c.433 0 .544-.287.544-.662v-1.016h-.278v1.01c0 .27-.072.37-.27.37-.188 0-.263-.104-.263-.37v-1.01h-.278v1.016c0 .38.113.662.545.662zm1.099-.032h.278v-1.348h.4v-.298h-1.087v.298h.409zm4.962 0h-.277v-1.646h.593c.192 0 .265.02.346.095a.508.508 0 01.14.38.386.386 0 01-.192.381c.131.07.147.115.158.434.01.266.016.307.059.356h-.307a.706.706 0 01-.034-.26c-.007-.241.027-.39-.23-.39h-.256zm0-.928h.265c.19 0 .25-.052.25-.212s-.058-.208-.25-.208h-.265zm-7.475.928h.278v-1.348h.4v-.298h-1.087v.298h.409zm4.992.032a.454.454 0 00.404-.24l.027.208h.192v-.892h-.56v.283h.305c-.036.22-.151.343-.325.343-.228 0-.377-.22-.377-.556 0-.343.144-.557.377-.557.151 0 .242.079.296.257h.284a.564.564 0 00-.582-.555c-.4 0-.662.345-.662.869 0 .492.258.84.621.84zm-1.26-.032h.278v-1.348h.4v-.298h-1.087v.298h.41zm3.988 6.876a1.315 1.315 0 01.022.88c-.113.486-.485.678-.553.994s.282.802.384.983.147.36-.068.485a1.991 1.991 0 00-.576.757 1.838 1.838 0 01-.745.654c-.237.102-.158.181-.17.35s-.27.294-.383.294-.18.124-.203-.124a.901.901 0 01.18-.621 3 3 0 01.61-.508 1.18 1.18 0 00.384-.565 4.462 4.462 0 01.293-.395 1.458 1.458 0 01-.101-.226 1.825 1.825 0 00-1.028-.542.636.636 0 00-.09.497.269.269 0 01-.203.339 1.859 1.859 0 00-.982.52 1.228 1.228 0 01-.768.372c-.124.034-.102.225-.124.316s-.113.248-.44.248-.125-.339-.035-.53.181-.192.328-.34a1.14 1.14 0 01.587-.293 3.082 3.082 0 00.847-.598.605.605 0 00.045-.79 4.482 4.482 0 01-.598-.904 4.904 4.904 0 01-2.236-.553c-.316.35-1.355.068-1.58-.011-.283-.057-.407.045-.452.214a.74.74 0 00.079.531.898.898 0 01.124.542.426.426 0 00.27.395c.227.023.159.248.136.474s-.293.113-.406.012l-.282-.396a.855.855 0 01-.271-.813 2.838 2.838 0 00-.08-.925c-.09-.531.08-.565.294-.61a4.074 4.074 0 00.79-.282c-.428-.18-.643-.78-.767-1.05a.258.258 0 00-.43-.102 3.49 3.49 0 00-.327.361c-.067.102-.033.181-.056.283s-.203.305-.26.474a3.329 3.329 0 01-.068.587.355.355 0 01-.44.135c-.18-.079 0-.496.011-.564.068-.248.192-.316.192-.474 0-.452.158-.362.26-.599a5.912 5.912 0 01.587-.88.344.344 0 01.52-.023 3.056 3.056 0 00.745.361.688.688 0 00.18-.395 1.351 1.351 0 01.317-.688c.146-.125.463-.542.598-.678.068-.124.214-.237.056-.429s-.304-.011-.508.158-.338.045-.327-.011.011-.08-.057-.18-.169.022-.293-.159a.267.267 0 01.068-.305c.101-.124.158-.203.237-.282s.406-.26.598-.451c.068-.046.192-.046.215-.09s-.034-.17-.023-.283.384-.203.53-.215a.342.342 0 01.193-.417c.135-.08.225 0 .203.079s-.023.203.056.248a.348.348 0 01.147.192.156.156 0 00.04.15l.108-.14a.189.189 0 01.09-.27.355.355 0 01.44.102c.113.124.553-.045.666-.045a.081.081 0 01.056.147c-.045.033-.068.101.011.18s.34-.034.565-.045.192.158.068.192c-.294.113-.283.215-.226.395s.214.147.497.136.225.18.101.225a.418.418 0 00-.248.294c0 .09.282.158.474.215.192.056.203.191.09.248a.167.167 0 00-.113.203c.012.09 0 .203-.169.215a.36.36 0 00-.305.225c-.011.068.09.136.271.204a.162.162 0 01.012.305c-.102.022-.192-.057-.283.158s-.192.237-.293.237a.243.243 0 00-.249.135.397.397 0 01-.225.203c-.144.072-.317.192-.034.43a4.476 4.476 0 001.829.507 2.354 2.354 0 011.083.26c.17.113.373.35.599.124s-.08-.52-.282-.745a.81.81 0 01-.305-.858c.022-.158-.09-.384-.068-.508a.549.549 0 01.271-.361.74.74 0 00.26-.282c.214-.362.463-.305.79-.362s.294-.056.418-.361.305-.316.35-.248 0 .248-.045.338a.42.42 0 01-.023.384c-.09.203-.677.395-.79.43s-.023.157.056.1c.508-.372.61.035.621.159.328-.011.316.226.282.418a.62.62 0 01-.237.643c-.113.102.057.237.215.26a.627.627 0 00.09.497c.09.135-.022.429-.18.564a.875.875 0 010 .542c-.068.158-.633.18-.881.068s-.361-.158-.553-.102zm-4.674-5.52a.179.179 0 01-.01-.016v.15a.086.086 0 00.01-.135zm3.016-1.356h-.291l.48-1.646h.315l.476 1.646h-.302l-.093-.345h-.49zm.172-.628h.339l-.17-.64zM4.41 14.05a.621.621 0 00.467.211c.344 0 .746-.261.768-.961a12.507 12.507 0 016.052-2.123 4.212 4.212 0 012.484.949c.135.113.248.113.225-.068-.112-.722-1.083-1.377-1.422-1.558a2.832 2.832 0 01.79-1.084c.09-.09.158-.203 0-.203a2.73 2.73 0 00-1.806 1.016 4.983 4.983 0 00-1.016-.023 2.739 2.739 0 01.97-1.738c.068-.068.136-.18-.022-.18-1.264.112-1.964 1.76-2.055 2.1-.113.022-.835.135-1.061.202a3.406 3.406 0 011.287-2.325c.135-.09.18-.226 0-.226-1.671.045-2.416 2.461-2.484 2.98a14.154 14.154 0 00-1.31.633 4.016 4.016 0 011.4-3.32c.09-.09.159-.248-.045-.203-1.92.271-2.416 3.59-2.45 3.963-.045.35-.361.215-.437.176a.623.623 0 00-.942.535.509.509 0 00.023.153.674.674 0 00-.407.592.623.623 0 00.623.623.582.582 0 00.368-.12zm21.874 22.132c.072-.303.537-.45.637-.495.074-.033.101-.13 0-.13a1.746 1.746 0 00-1.4.407 3.981 3.981 0 00-.74-.05c.08-.372.681-.71 1.004-.983-.047.04.087-.115-.014-.115a2.191 2.191 0 00-1.708 1.15c-.072.014-.792.158-.937.202.132-.852 1.189-1.408 1.276-1.466s.115-.145 0-.145a3.055 3.055 0 00-2.263 1.876 7.495 7.495 0 00-.757.306 2.572 2.572 0 01.964-1.845c.058-.058.101-.159-.029-.13-1.228.174-1.722 1.964-1.744 2.202-.03.224-.304.246-.353.222a.399.399 0 00-.602.342.323.323 0 00.015.098.336.336 0 00-.207.343.37.37 0 00.363.398c.091 0 .15.01.217-.04a.398.398 0 00.3.134c.22 0 .332-.059.346-.507a11.249 11.249 0 014.614-1.254 3.543 3.543 0 012.046.94c.087.073.159.073.144-.042a2.085 2.085 0 00-1.172-1.418zm-2.423 3.481a.579.579 0 01.3-.36c.051-.024.07-.09 0-.09a.854.854 0 00-.822.335 1.843 1.843 0 00-.405-.001 1.726 1.726 0 01.575-.74c-.032.028.059-.078-.01-.078-.607-.013-1.208.796-1.248.944a4.174 4.174 0 00-.505.139 1.73 1.73 0 01.5-.992c.06-.04.079-.099 0-.099-.832.028-1.112 1.079-1.141 1.306a3.296 3.296 0 00-.416.175 1.87 1.87 0 01.32-1.273c.04-.04.07-.109-.02-.089-.757.134-.84 1.388-.854 1.551-.02.154-.207.169-.24.152a.273.273 0 00-.413.234.222.222 0 00.01.067.23.23 0 00-.141.234.253.253 0 00.248.273c.062 0 .103.007.149-.028a.272.272 0 00.204.092c.15 0 .295-.063.305-.369a6.393 6.393 0 013.032-.96 2.624 2.624 0 011.354.452c.06.05.109.05.099-.03-.05-.316-.298-.563-.881-.845zM35.948 2.44l-1.987 26.193c-.36 7.497-7.406 13.73-15.987 18.155C9.394 42.361 2.348 36.13 1.987 28.632L0 2.44C7.316.768 11.742 0 17.974 0s10.658.768 17.974 2.439zM2.424 24.802L11.2 24.8v-3.046a2.396 2.396 0 00-1.753-.504 5.89 5.89 0 00-3.661 1.98c-.015.472-.286.649-.518.649a.42.42 0 01-.316-.143.393.393 0 01-.248.082.42.42 0 01-.42-.42.455.455 0 01.274-.4.342.342 0 01-.016-.103.42.42 0 01.636-.362c.051.026.22.14.25-.096.023-.251-.009-2.611 1.253-2.968.137-.03.092.076.03.137a3.93 3.93 0 00-.544 2.24 5.768 5.768 0 01.681-.415c.061-.26.498-2.223 1.541-2.244.122 0 .092.092 0 .153a2.479 2.479 0 00-.637 1.558c.152-.045.533-.11.61-.125.06-.229.51-1.545 1.363-1.621.107 0 .061.11.016.156a3.178 3.178 0 00-.588 1.286 2.636 2.636 0 01.613.027 4.946 4.946 0 011.434-1.172l.002-2.675c-.119-.108-.305-.223-.874-.225a8.614 8.614 0 00-4.43 1.708c-.02.63-.381.865-.69.865a.56.56 0 01-.421-.19.524.524 0 01-.332.108.56.56 0 01-.56-.56.607.607 0 01.366-.533.457.457 0 01-.02-.138.56.56 0 01.847-.481c.068.034.353.156.394-.159.03-.335.545-3.142 2.272-3.386.183-.04.122.102.04.183a3.703 3.703 0 00-1.327 2.807 10.868 10.868 0 011.088-.524c.082-.345.845-2.452 2.236-2.48.163 0 .122.123 0 .204a2.655 2.655 0 00-1.09 1.958c.203-.061.83-.208.932-.228a2.288 2.288 0 011.759-1.62c.142 0 .081.147.02.208a2.06 2.06 0 00-.783 1.294 2.652 2.652 0 01.574.076l-.003-.758h6.413V6.011A63.066 63.066 0 001.167 8.354zm15.189 9.944v-2.103a6.585 6.585 0 01-5.24-2.874l-9.563.01a13.859 13.859 0 001.866 4.97zm0 10.991v-5.91l-8.626.02a42.874 42.874 0 008.626 5.89zm.361-13.808a6.122 6.122 0 006.052-6.006V15.626H11.923v10.297a6.122 6.122 0 006.051 6.006zm15.496-6.457l-8.722.027v.875a6.66 6.66 0 01-2.613 4.916l-.102.21a2.167 2.167 0 00-.143 1.35 6.287 6.287 0 01.776-.326c.055-.415 1.168-2.379 2.688-2.43.144 0 .108.109 0 .181a3.192 3.192 0 00-1.482 1.86c.18-.054 1.278-.234 1.369-.252a2.28 2.28 0 011.711-1.41c.127 0-.04.195.018.145a2.046 2.046 0 00-.776 1.143 4.967 4.967 0 01.925.063 2.067 2.067 0 011.694-.452c.126 0 .093.121 0 .163-.124.055-.79.126-.88.506a2.736 2.736 0 011.634 2.195c.018.144-.072.144-.18.054a4.08 4.08 0 00-2.53-1.572 14.806 14.806 0 00-5.88 1.653c-.018.56-.158.634-.433.634a.497.497 0 01-.374-.169c-.084.064-.158.051-.272.051a.462.462 0 01-.453-.498.42.42 0 01.258-.429.405.405 0 01-.019-.122.498.498 0 01.754-.428c.06.03.404.004.44-.276a3.25 3.25 0 01.213-1.018l.019-.18a6.785 6.785 0 01-2.774.707v13.105c6.322-3.341 13.729-8.896 14.812-16.032zm.417-5.698l-9.139.026-.015 4.973 8.764.027zm.76-9.995l-16.311-.093v5.056h6.412v.219h9.506zm.2-2.228l.334-4.48A72.834 72.834 0 0017.974.723 72.834 72.834 0 00.768 3.07l.333 4.48a64.454 64.454 0 0116.873-2.31 64.454 64.454 0 0116.874 2.31zM5.668 3.624c.023.723-.112 1.028-.62 1.14l-2.699.61.102 1.242-.779.18-.226-3.138 3.218-.722c.406-.09.982-.034 1.005.688zm-.902.226c-.01-.079-.09-.192-.317-.147s-2.167.486-2.167.486l.022.463 2.247-.497a.267.267 0 00.215-.305zm5.848.418c.011.316-.011.734-.858.858L7.34 5.51c-.43.079-1.13.011-1.152-.802l-.034-1.422c0-.294-.011-.723.79-.847l2.609-.43c.316-.056 1.027.159 1.027.746zm-.802-.249l-.022-.925a.375.375 0 00-.44-.34l-1.999.34c-.418.079-.406.304-.406.542l.022.846c.023.35.203.339.474.294l1.976-.316a.43.43 0 00.395-.44zm5.693.051v.522l-.78.037v-.458c-.001-.456-.252-.742-.676-.713l-2.156.14.022 1.247-.777.037-.085-3.117 3.236-.216c.593-.047 1.113.074 1.112.886a1.36 1.36 0 01-.208.678 1.242 1.242 0 01.312.957zm-1.037-1.548c-.008-.165-.083-.23-.264-.235l-2.342.123.01.496 2.312-.13c.16-.012.291-.089.284-.254zm5.178.176h-2.484a.271.271 0 110-.542h3.184V1.48H16.79c-.18 0-.79.04-.785.96s.65.937.785.937h2.495a.271.271 0 01.271.27.253.253 0 01-.271.25H16.1v.677h3.545c.226 0 .819.033.819-.943s-.666-.932-.819-.932zm9.574.949L26.6 3.15l.068-1.174-.745-.113-.192 3.206.745.102.09-1.377 2.62.496-.09 1.31.744.136.192-3.196-.733-.135zm1.321 2.19l3.534.757.057-.644-2.8-.598.034-.644 2.81.599.046-.644-2.811-.598.022-.587 2.834.598.045-.644-3.59-.756zm-9.472-3.41C21.023 3.353 21 3.771 21 3.771a.845.845 0 00.78.892l3.296.248.034-.7-2.755-.203c-.26-.011-.542-.09-.52-.564l.023-.678c.011-.27.102-.52.53-.485l2.823.225.034-.7-3.308-.26c-.282-.022-.824-.044-.87.881z" fill-rule="evenodd"/></symbol><symbol viewBox="0 0 71.085 19.328" id="brand-smart" xmlns="http://www.w3.org/2000/svg"><path d="M52.47 11.166h.014v7.998h-2.593v-1.99A7.767 7.767 0 1143.677 3.69c-.04.933-.082 1.852-.11 2.771a5.065 5.065 0 106.2 4.938 4.956 4.956 0 00-.918-2.908c.81-.425 1.605-.85 2.4-1.276a7.794 7.794 0 011.221 3.951zm-8.01-1.001c-.042.055 8.38-5.185 8.38-5.185L44.46 0zM55.007 8.23v11.097h3.169V8.231a1.722 1.722 0 011.893-1.88h2.099V3.65h-2.1a5.113 5.113 0 00-5.061 4.582zm14.17 8.162h-.205a1.95 1.95 0 01-2.168-1.866V6.242h3.512V3.388H66.75V.453h-2.853v14.115l.014.014a5.128 5.128 0 005.062 4.513h2.112v-2.702zM29.328 2.798A5.73 5.73 0 0025.2 4.527a5.723 5.723 0 00-4.102-1.701 5.414 5.414 0 00-5.57 5.24v.178h.014v10.92h3.169V8.23h.014c-.014-.014-.014-.028-.014-.055v-.11a2.424 2.424 0 014.774 0h-.014v11.098h3.169V8.244h.014c0-.013.013-.027.013-.04V7.97c.096-1.056 1.51-1.92 2.662-1.92a2.285 2.285 0 012.373 2.167h.013v10.947h3.17V8.217c0-.055.013-.124.013-.178a5.432 5.432 0 00-5.57-5.24zm-18.08 7.394C9.26 9.15 7.175 10.165 4.65 9.328c-.782-.26-1.083-2.236-.384-2.744a5.756 5.756 0 012.771-.836A2.597 2.597 0 019.74 7.64l3.196-.137A4.71 4.71 0 0011.11 4.06a6.698 6.698 0 00-4.5-1.303C3.869 2.757.385 4.842.385 8.04c0 2.043 1.098 3.21 3.073 3.84 2.455.783 7.037-.095 7.037 2.593 0 1.427-2.785 2.127-3.676 2.003-1.07-.137-3.485-.823-3.704-2.071l-3.115.3c.343 3.06 4.157 4.486 6.79 4.486 3.087 0 6.722-1.33 6.722-4.91a4.726 4.726 0 00-2.263-4.089z" fill-rule="evenodd"/></symbol><symbol viewBox="0 0 58.613 34.163" id="brand-subaru" xmlns="http://www.w3.org/2000/svg"><path d="M49.654 26.542v5.483a2.02 2.02 0 002.162 2.092c1.52.06 3.075.065 4.727-.003a2.02 2.02 0 002.07-2.094v-5.478h-1.996v5.044a.652.652 0 01-.663.69 25.046 25.046 0 01-3.703 0 .725.725 0 01-.614-.706v-5.028zM2.307 26.54a2.224 2.224 0 00-2.282 1.88 2.51 2.51 0 00-.006.662 1.956 1.956 0 002.005 1.812c.845.073 4.295.258 4.716.292.565.047.645.27.645.571 0 .34-.156.538-.645.566-1.064.064-3.06.045-4.063.012-.354-.012-.608-.106-.62-.53l-.006-.367H.052l-.003.222c.01 1.573.546 2.301 2.045 2.419a43.051 43.051 0 005.255-.008 2.035 2.035 0 001.99-2.199c.004-.06 0-.172 0-.266a1.957 1.957 0 00-1.886-2.087c-.69-.06-4.377-.228-4.895-.273-.395-.035-.556-.235-.556-.564a.493.493 0 01.522-.501c1.181-.08 3.225-.062 4.032-.015.398.026.555.222.577.452v.35h2v-.31c-.038-1.504-.763-2.077-2.144-2.133-1.5-.06-3.128-.076-4.682.015zm17.803 7.603h6.624a2.05 2.05 0 002.247-2.331c0-1.034-.495-1.593-.868-1.706.31-.136.669-.592.669-1.482a1.961 1.961 0 00-2.1-2.082c-1.289-.002-6.572 0-6.572 0v7.6zm6.065-5.933c.367.027.68.18.68.587 0 .418-.284.633-.715.658h-4.033V28.21zm0 2.823c.337.015.795.158.795.707 0 .571-.378.71-.84.728h-4.023v-1.435zM10.09 26.542v5.483a2.02 2.02 0 002.164 2.092 58.25 58.25 0 004.728-.003 2.022 2.022 0 002.068-2.094v-5.478h-1.994v5.044a.656.656 0 01-.666.69 25.013 25.013 0 01-3.702 0 .723.723 0 01-.615-.706v-5.028zm29.813-.002v7.603l1.988-.003v-2.722h4.125a.717.717 0 01.742.733c.05.776.03 1.986.03 1.986l2.017.006s-.007-1.1-.033-1.918a1.835 1.835 0 00-.87-1.681 1.805 1.805 0 00.79-1.711 2.018 2.018 0 00-2.134-2.293zm6.113 1.67c.47.038.719.247.719.727a.669.669 0 01-.719.735h-4.125v-1.46zm-14.155 4.581h4.522l.694 1.349h2.332l-4.142-7.6h-2.233l-4.146 7.6h2.267l.706-1.349zm3.695-1.61h-2.852l1.438-2.746zM7.625 11.744C7.625 5.255 17.687 0 29.515 0c11.828 0 21.706 5.255 21.706 11.744 0 6.485-9.878 11.744-21.706 11.744-11.989 0-21.89-5.26-21.89-11.744zm21.9 10.502c10.952 0 20.097-4.703 20.097-10.502 0-5.845-9.243-10.502-20.096-10.502-10.947 0-20.3 4.657-20.3 10.502 0 5.8 8.977 10.502 20.3 10.502zm5.661-4.15c.324.05 1.466.218 1.933.303a.91.91 0 01.777.672 7.2 7.2 0 01.21.674c.069.242.158.61.168.643a.13.13 0 00.132.093.138.138 0 00.13-.096c.022-.053.123-.428.188-.651a6.328 6.328 0 01.216-.663.93.93 0 01.733-.658c.47-.084 1.547-.22 2.08-.285.404-.044 1.28-.16 1.382-.169.108-.016.151-.079.151-.148 0-.078-.043-.136-.157-.147a60.019 60.019 0 01-1.376-.146c-.618-.074-1.68-.228-2.036-.308a.873.873 0 01-.723-.537 3.187 3.187 0 01-.231-.622c-.039-.154-.192-.661-.213-.744-.022-.1-.08-.13-.139-.13-.066 0-.12.023-.147.134-.035.106-.158.586-.21.75a5.359 5.359 0 01-.216.604.893.893 0 01-.706.545c-.605.121-1.693.294-1.95.333a6.213 6.213 0 01-1.882.093c-.515-.047-1.67-.227-2.433-.346-.463-.07-.939-.105-1.196-.54a3.874 3.874 0 01-.336-.831 20.817 20.817 0 01-.253-.878c-.032-.095-.07-.148-.153-.148-.083 0-.126.053-.154.156-.035.105-.182.617-.253.86a3.105 3.105 0 01-.342.841c-.26.38-.507.429-1.139.536a37.44 37.44 0 01-2.129.27c-.565.065-.92.102-1.127.126-.103.013-.165.047-.165.147 0 .102.062.14.165.152.188.026.742.087 1.131.127.652.07 1.24.127 2.125.267.858.133 1.009.248 1.284.896a4.045 4.045 0 01.246.811c.061.273.188.82.208.934a.148.148 0 00.144.151c.093 0 .135-.06.153-.156.02-.126.153-.705.214-.929a6.692 6.692 0 01.236-.811c.275-.7.499-.775 1.335-.903.642-.1 1.834-.28 2.439-.35a6.11 6.11 0 011.886.078zm6.331-4.426c.35.05.944.165 1.612.315a.853.853 0 01.696.616 9.542 9.542 0 01.262.931c.077.286.128.535.134.581a.158.158 0 00.145.134.152.152 0 00.15-.126c.015-.062.066-.311.137-.594.078-.304.167-.64.262-.93a.812.812 0 01.636-.589 23.8 23.8 0 011.49-.261c.435-.067 1.186-.162 1.291-.178.11-.016.153-.083.153-.146a.147.147 0 00-.153-.151c-.109-.018-.83-.116-1.298-.184a23.83 23.83 0 01-1.483-.254.885.885 0 01-.59-.456 4.478 4.478 0 01-.276-.716 34.415 34.415 0 00-.169-.61.146.146 0 00-.15-.116.144.144 0 00-.14.122c-.03.109-.106.385-.175.608a3.399 3.399 0 01-.267.712.865.865 0 01-.655.47c-.668.141-1.247.262-1.611.317a6.306 6.306 0 01-2.338.008c-.531-.08-1.427-.214-2.13-.349a1.166 1.166 0 01-.931-.568 5.892 5.892 0 01-.3-.865c-.059-.195-.174-.59-.213-.74-.029-.103-.07-.144-.153-.144-.083 0-.124.041-.152.143-.04.128-.147.511-.212.737a5.644 5.644 0 01-.304.863 1.103 1.103 0 01-.913.566c-.584.123-1.515.222-2.347.31-.368.047-1.044.126-1.201.15a.133.133 0 00-.14.143c0 .089.035.134.138.146.145.022.94.111 1.198.141.445.05 1.511.196 2.348.315a1.104 1.104 0 011.052.982c.09.366.169.635.226.916.052.23.133.596.155.668.03.106.08.15.147.15.067 0 .13-.032.158-.155.013-.067.115-.523.14-.647.062-.267.14-.594.23-.936.17-.606.349-.81 1.074-.978.569-.133 1.614-.266 2.12-.337a6.398 6.398 0 012.347-.014zm5.04-4.717c-.062 0-.963-.122-1.438-.185-.551-.082-1.235-.159-1.85-.292a1.021 1.021 0 01-.751-.533 6.846 6.846 0 01-.335-.986c-.044-.139-.146-.53-.17-.626-.03-.109-.092-.133-.147-.133-.056 0-.115.018-.15.133l-.177.615a7.443 7.443 0 01-.337 1.001 1.035 1.035 0 01-.86.545c-.427.072-1.301.194-2.175.308a9.904 9.904 0 01-3.41.023c-.49-.052-1.787-.218-2.214-.276-1.567-.186-4.17-.45-5.754-.73a2.35 2.35 0 01-2.125-1.565 19.99 19.99 0 01-.716-2.229 38.552 38.552 0 01-.395-1.56c-.03-.121-.08-.163-.159-.163-.07 0-.12.038-.156.163-.065.247-.27 1.033-.422 1.557a20.752 20.752 0 01-.705 2.232 2.356 2.356 0 01-2.1 1.57c-1.604.306-3.559.546-5.37.742-.891.095-3.47.377-3.576.39a.145.145 0 100 .29c.107.015 2.755.293 3.586.383 1.877.203 3.616.42 5.281.71a2.532 2.532 0 012.3 2.129c.241.81.566 2.23.679 2.783.111.487.303 1.505.327 1.593.024.111.074.156.152.156.072 0 .13-.039.159-.156.02-.097.216-1.143.315-1.597.121-.543.453-2.024.683-2.791.409-1.35.81-1.822 2.242-2.072 1.441-.257 4.147-.577 5.764-.77.406-.05 1.339-.13 2.204-.234a10.257 10.257 0 013.418.032c.856.103 1.443.185 2.132.301a.96.96 0 01.929.73c.137.384.242.803.313 1.09.064.252.146.661.166.748a.142.142 0 00.14.125.16.16 0 00.15-.125c.023-.107.1-.496.162-.748.061-.257.208-.778.315-1.09a.984.984 0 01.817-.715c.459-.1 1.253-.206 1.828-.29.44-.062 1.363-.179 1.43-.189a.143.143 0 00.143-.15.147.147 0 00-.143-.144z"/></symbol><symbol viewBox="0 0 42.5 42.319" id="brand-tesla" xmlns="http://www.w3.org/2000/svg"><path d="M25.631 4.118a42.008 42.008 0 0115 3.624 13.367 13.367 0 01-5.72 4.296c-.258-2.536-2.044-3.158-7.713-3.158l-5.945 33.44-5.994-33.445c-5.629.005-7.415.625-7.674 3.163a13.366 13.366 0 01-5.72-4.297 42.004 42.004 0 0115.001-3.624l4.383 5.338zM21.25 0A58.166 58.166 0 000 4.14a20.486 20.486 0 001.19 2.458 49.001 49.001 0 0120.06-4.024 49.005 49.005 0 0120.06 4.024 16.126 16.126 0 001.19-2.457A58.163 58.163 0 0021.25 0z"/></symbol><symbol viewBox="0 0 53.339 34.748" id="brand-toyota" xmlns="http://www.w3.org/2000/svg"><path d="M24.998 32.979c-2.796-1.752-4.857-7.796-4.857-14.98 0-.263.002-.523.008-.783l.003.005c-7.779-1.223-13.399-4.573-13.543-8.533l-.023.046a12.717 12.717 0 00-2.99 8.014c0 8.574 9.413 15.6 21.352 16.222l.05.009zM0 17.373C0 7.78 11.94 0 26.67 0s26.669 7.78 26.669 17.373c0 9.595-11.94 17.375-26.67 17.375S0 26.968 0 17.373zM26.67 2.507c2.843 0 5.262 4.314 6.158 10.332l.003-.01c5.532-.86 9.405-2.847 9.405-5.158 0-3.102-6.97-5.615-15.567-5.615S11.103 4.57 11.103 7.671c0 2.311 3.873 4.297 9.405 5.159l.004.01c.896-6.02 3.315-10.333 6.157-10.333zm1.72 30.463c11.94-.622 21.352-7.648 21.352-16.222a12.718 12.718 0 00-2.99-8.014l-.023-.046c-.144 3.96-5.763 7.31-13.543 8.533l.004-.005c.005.26.008.52.008.784 0 7.183-2.062 13.227-4.857 14.979l.05-.01zm-1.72-19.684c1.275 0 2.513-.054 3.698-.158h-.002c-.59-3.857-2.022-6.58-3.696-6.58s-3.105 2.723-3.695 6.58h-.002c1.185.104 2.424.158 3.697.158zm0 14.287c2.141 0 3.888-4.455 3.98-10.043l.012.004c-1.29.12-2.625.182-3.992.182s-2.7-.062-3.99-.182l.01-.004c.094 5.588 1.84 10.043 3.98 10.043z" fill-rule="evenodd"/></symbol><symbol id="brand-volkswagen" viewBox="0 0 42.5 42.5" xmlns="http://www.w3.org/2000/svg"><defs><style>.bbcls-1{fill-rule:evenodd}</style></defs><path class="bbcls-1" d="M5.328 21.259a15.899 15.899 0 008.287 13.946l-7.382-19.24a15.647 15.647 0 00-.905 5.294zM25.333 5.85a16.073 16.073 0 00-8.061-.017l4.039 11.143z"/><path class="bbcls-1" d="M21.259 0A21.25 21.25 0 1042.5 21.259 21.3 21.3 0 0021.259 0zm0 39.784A18.543 18.543 0 1139.8 21.259a18.577 18.577 0 01-18.54 18.525z"/><path class="bbcls-1" d="M21.12 25.611l-4.11 10.656-.017.33a15.67 15.67 0 004.266.575 16.113 16.113 0 004.022-.505l-.053-.4zm15.042-9.993l-7.573 19.76a15.987 15.987 0 007.573-19.76z"/><path class="bbcls-1" d="M29.268 7.487l-4.666 12.849H18.02L13.337 7.434a16.134 16.134 0 00-4.492 3.848l6.65 17.255 2.438-6.303h6.39l2.438 6.303 6.72-17.464a16.016 16.016 0 00-4.213-3.586z"/></symbol><symbol viewBox="0 0 42.5 42.572" id="brand-volvo" xmlns="http://www.w3.org/2000/svg"><path d="M13.733 21.286c0 .983.492 1.756 1.195 1.756.632 0 1.194-.773 1.194-1.756s-.562-1.756-1.194-1.756c-.703 0-1.195.773-1.195 1.756z"/><path d="M39.618 7.28a.83.83 0 011.312.095l1.035 1.555c.294.48.535.412.535-.151V1.095A1.026 1.026 0 0041.477.07h-7.755c-.563 0-.628.236-.145.525l1.79 1.173a.848.848 0 01.104 1.325l-.547.547a1.272 1.272 0 01-1.422.215A21.318 21.318 0 1042.5 21.25a21.163 21.163 0 00-3.27-11.376c-.235-.472-.533-1.645-.166-2.022zM21.25 6.538a14.75 14.75 0 0114.058 10.29H7.192A14.75 14.75 0 0121.25 6.538zM18.65 19.6v-.632h4.427v.632h-1.125v3.302h1.195a1.472 1.472 0 001.475-1.405h.702v2.177h-6.673v-.772h1.124V19.6zm6.604 0h-1.123v-.632h4.776v.632h-1.194l1.686 2.88 1.475-2.88h-.843v-.632h3.302v.632h-1.124l-2.178 4.074h-2.6zm-6.884 1.686c0 1.405-1.546 2.529-3.442 2.529-1.827 0-3.372-1.124-3.372-2.529 0-1.335 1.545-2.459 3.372-2.459 1.896 0 3.442 1.124 3.442 2.46zM6.076 23.674L3.9 19.6H2.775v-.632h4.777v.632H6.357l1.686 2.88L9.59 19.6h-.914v-.632h3.302v.632h-1.124l-2.178 4.074zm15.174 12.36a14.75 14.75 0 01-14.057-10.29h28.115a14.75 14.75 0 01-14.058 10.29zm18.476-14.748c0 1.405-1.546 2.529-3.443 2.529-1.826 0-3.371-1.124-3.371-2.529s1.545-2.529 3.371-2.529c1.897 0 3.443 1.124 3.443 2.53z"/><path d="M35.089 21.286c0 .983.492 1.756 1.194 1.756.632 0 1.194-.773 1.194-1.756 0-1.054-.562-1.826-1.194-1.826-.702 0-1.194.772-1.194 1.826z"/></symbol><symbol id="icon-arrow" viewBox="0 0 34.02 65.919" xmlns="http://www.w3.org/2000/svg"><defs><clipPath id="bdclip-path"><path d="M-116.342 239.589a33.754 33.754 0 0133.817 33.613 33.755 33.755 0 01-33.817 33.616 33.754 33.754 0 01-33.814-33.616 33.754 33.754 0 0133.814-33.613m0-8.383a42.121 42.121 0 00-42.247 41.996 42.122 42.122 0 0042.247 41.998 42.122 42.122 0 0042.25-41.998 42.122 42.122 0 00-42.25-41.996" fill="none" clip-rule="evenodd"/></clipPath><style/></defs><path d="M32.959 31.899L1.061 0 0 1.061l31.899 31.898L0 64.858l1.061 1.061L32.959 34.02l1.061-1.061-1.061-1.06z"/></symbol><symbol id="icon-car-type-electric" viewBox="0 0 11.329 16.687" xmlns="http://www.w3.org/2000/svg"><defs><clipPath id="beclip-path"><path d="M159.791 190.744a33.615 33.615 0 11-33.814 33.614 33.754 33.754 0 0133.814-33.614m0-8.382a41.998 41.998 0 1042.25 41.996 42.121 42.121 0 00-42.25-41.996" fill="none" clip-rule="evenodd"/></clipPath><style/></defs><path fill-rule="evenodd" d="M0 10.564L6.644 0 5.48 5.802h5.849L4.075 16.687l1.405-6.123H0z"/></symbol><symbol id="icon-car-type-hybrid" viewBox="0 0 10 15" xmlns="http://www.w3.org/2000/svg"><defs><clipPath id="bfclip-path"><path d="M143.783 192.057a33.615 33.615 0 11-33.814 33.613 33.754 33.754 0 0133.814-33.613m0-8.383a41.998 41.998 0 1042.25 41.996 42.121 42.121 0 00-42.25-41.996" fill="none" clip-rule="evenodd"/></clipPath><style/></defs><path d="M.013 10.24h-.01q-.005-.123-.002-.252L0 9.868a5.196 5.196 0 011.04-3.133 23.6 23.6 0 011.365-2.272A21.006 21.006 0 005.015 0l-.03.022a21.006 21.006 0 002.61 4.463 23.877 23.877 0 011.328 2.201A5.195 5.195 0 0110 9.868q0 .067-.002.132.004.135-.002.263h-.01A5.055 5.055 0 015 15a5.056 5.056 0 01-4.987-4.76z" fill-rule="evenodd"/></symbol><symbol id="icon-check" viewBox="0 0 16.156 11.75" xmlns="http://www.w3.org/2000/svg"><defs><clipPath id="bgclip-path"><path d="M-55.628 187.116A33.754 33.754 0 01-21.81 220.73a33.755 33.755 0 01-33.817 33.616 33.754 33.754 0 01-33.814-33.616 33.754 33.754 0 0133.814-33.613m0-8.382a42.121 42.121 0 00-42.246 41.995 42.122 42.122 0 0042.246 41.999 42.122 42.122 0 0042.25-41.999 42.122 42.122 0 00-42.25-41.995" fill="none" clip-rule="evenodd"/></clipPath><style/></defs><path d="M6.396 11.75L0 5.978l1.005-1.113 5.287 4.77L15.045 0l1.111 1.009-9.76 10.741z"/></symbol><symbol id="icon-filter" viewBox="0 0 15 14" xmlns="http://www.w3.org/2000/svg"><defs><clipPath id="bhclip-path"><path d="M124.406 189.033a33.615 33.615 0 11-33.814 33.613 33.754 33.754 0 0133.814-33.613m0-8.383a41.998 41.998 0 1042.25 41.996 42.121 42.121 0 00-42.25-41.996" fill="none" clip-rule="evenodd"/></clipPath><style/></defs><path d="M8 4a1.998 1.998 0 001.929-1.5H14.5v-1H9.929a1.99 1.99 0 00-3.858 0H.5v1h5.571A1.998 1.998 0 008 4zm0-3a1 1 0 11-1 1 1.001 1.001 0 011-1zm5 8a2 2 0 10-1.929-2.5H.5v1h10.571A1.998 1.998 0 0013 9zm0-3a1 1 0 11-1 1 1.001 1.001 0 011-1zM2 10a2 2 0 101.929 2.5H14.5v-1H3.929A1.998 1.998 0 002 10zm0 3a1 1 0 111-1 1.001 1.001 0 01-1 1z"/></symbol><symbol id="icon-fuel-type" viewBox="0 0 43.99 43.987" xmlns="http://www.w3.org/2000/svg"><defs><clipPath id="biclip-path"><path d="M-722.235 222.05a33.754 33.754 0 0133.817 33.613 33.755 33.755 0 01-33.817 33.616 33.754 33.754 0 01-33.814-33.616 33.754 33.754 0 0133.814-33.613m0-8.382a42.121 42.121 0 00-42.246 41.995 42.122 42.122 0 0042.246 41.999 42.122 42.122 0 0042.25-41.999 42.122 42.122 0 00-42.25-41.995" fill="none" clip-rule="evenodd"/></clipPath><style/></defs><path d="M15.752 26.546a1 1 0 01-.095 1.048l-3.75 5a1 1 0 01-1.6-1.2l2.55-3.4h-1.75a1 1 0 01-.8-1.6l3.75-5a1 1 0 011.6 1.2l-2.55 3.4h1.75a1 1 0 01.895.552zm6.23-10.552h-18v-10h18zm-2-8h-14v6h14zm23 6v6a1 1 0 01-1 1h-3v14a4.004 4.004 0 01-3.99 3.999h-2v-.001l-.01.002a4.004 4.004 0 01-4-4v-22a2.002 2.002 0 00-2-2h-1v32.993h-26V0h26v8.994h1.01a4.004 4.004 0 013.99 4v22a2.002 2.002 0 002 2h2a2.002 2.002 0 002-2v-14h-3a1 1 0 01-1-1v-6a1 1 0 011-1h1v-3a1 1 0 112 0v3h2v-3a1 1 0 112 0v3h1a1 1 0 011 1zM23.982 2h-22v39.987h22zm17 12.994h-6v4h6z"/></symbol><symbol viewBox="0 0 17.2 9.4" id="icon-long-arrow" xmlns="http://www.w3.org/2000/svg"><path d="M15.3 5.2H0v-1h15.3L11.8.7l.7-.7 4.7 4.7-.7.7-4 4-.7-.7 3.5-3.5z"/></symbol><symbol id="icon-longer-arrow" viewBox="0 0 21.996 18.236" xmlns="http://www.w3.org/2000/svg"><defs><clipPath id="bkclip-path"><path d="M-81.477 230.292a33.754 33.754 0 0133.817 33.614 33.755 33.755 0 01-33.817 33.616 33.754 33.754 0 01-33.814-33.616 33.754 33.754 0 0133.814-33.614m0-8.382a42.121 42.121 0 00-42.247 41.996 42.122 42.122 0 0042.247 41.998 42.122 42.122 0 0042.249-41.998 42.122 42.122 0 00-42.25-41.996" fill="none" clip-rule="evenodd"/></clipPath><style/></defs><path d="M21.996 8.368H2.871l7.308-7.307L9.118 0 0 9.118l9.118 9.118 1.061-1.061-7.308-7.307h19.125v-1.5z"/></symbol><symbol viewBox="0 0 22 14.5" id="icon-menu" xmlns="http://www.w3.org/2000/svg"><path d="M20.75 6H1.25a1.25 1.25 0 000 2.5h19.5a1.25 1.25 0 000-2.5zM1.25 2.5h19.5a1.25 1.25 0 000-2.5H1.25a1.25 1.25 0 000 2.5zm19.5 9.5H1.25a1.25 1.25 0 000 2.5h19.5a1.25 1.25 0 000-2.5z"/></symbol><symbol viewBox="0 0 17.731 17.732" id="icon-x" xmlns="http://www.w3.org/2000/svg"><path d="M1 17.731a1 1 0 01-.709-1.705l7.161-7.16-7.16-7.159a1.003 1.003 0 010-1.415 1.03 1.03 0 011.414 0l7.16 7.16L16.023.293A.992.992 0 0116.732 0a1.003 1.003 0 01.71.295.989.989 0 01.289.703.991.991 0 01-.291.709l-7.16 7.16 7.16 7.158a1 1 0 01-1.397 1.432l-.018-.018-7.16-7.159-7.159 7.16a.995.995 0 01-.706.291zm16.088-16.38l-.004.004zM1.352.645l.002.001z"/></symbol><symbol viewBox="0 0 1596.607 567.155" id="logo-ezev" xmlns="http://www.w3.org/2000/svg"><path d="M.528 329.155c-.626-31-.231-63-.23-95h342.24c-16.472 32-32.307 64-48.127 95zm-.174 238h173.883c15.82-31 31.655-63 48.128-96H.124c-.001 33-.396 64 .23 96zm1106.143-234.198l-48.127-95.701H684.487c-.626 31.814-.231 63.25-.23 95.701zM415.003 466.155l233.369-466L.86.11v100.046h490.132c-92.793 185-233.477 467-233.477 467h105.251l.31-.68 1.891-.106 862.456-.872-51.002-99.342zM1483.706 0l-177.434 354.275L1128.925.02H685v97.213h384.935l235.046 469.619 2.004.008L1596.607 0z"/></symbol></svg>